<svg xmlns="http://www.w3.org/2000/svg" viewBox="0 0 306.64 186.78"><defs><style>.cls-1,.cls-3{fill:#f1f2f2;}.cls-1{stroke:#e6e7e8;stroke-width:6px;}.cls-1,.cls-2,.cls-4,.cls-5,.cls-7{stroke-miterlimit:10;}.cls-2,.cls-4,.cls-5{fill:#fff;stroke-linecap:round;}.cls-2,.cls-4{stroke:#a7a9ac;}.cls-2{stroke-width:3px;}.cls-4{stroke-width:1.5px;}.cls-5{stroke:#231f20;stroke-width:4px;}.cls-6{fill:#414042;}.cls-7{fill:none;stroke:#939598;}.cls-8{font-size:6.05px;fill:#231f20;font-family:MyriadPro-Regular, Myriad Pro;}.cls-9{letter-spacing:-0.01em;}</style></defs><title>fartyCloud</title><g id="Layer_2" data-name="Layer 2"><g id="cvClouds"><path class="cls-1" d="M189.65,59.05c0-.41,0-.83,0-1.24a24,24,0,0,0-13-21.36,24,24,0,0,0-39.91-16.06,24,24,0,0,0-40.35-10.1q-3.37-.21-6.82-.21c-3.68,0-7.29.19-10.81.54a24,24,0,0,0-34.53,8.87A24.11,24.11,0,0,0,29,33.18c-.2.24-.4.48-.59.73-.43,0-.87,0-1.3,0A24.06,24.06,0,0,0,14.48,78.44,24.06,24.06,0,0,0,56,102.78a24,24,0,0,0,35.65-4.39,24.05,24.05,0,0,0,38,8.39,24,24,0,0,0,37-6.38,24.06,24.06,0,1,0,23-41.35Z"/><path class="cls-2" d="M53.7,75.72c-.58.17,1.84.11,3.75-4.58"/><path class="cls-2" d="M81,72.29c.8-.28-1.84,3.28,2.89,4.74"/><path class="cls-2" d="M55.34,74.62c2.1,6,15.29,13.31,25.91.92"/><path class="cls-2" d="M55.34,74.62a66.57,66.57,0,0,0,25.89.5"/><path class="cls-1" d="M285.09,139.25a18.09,18.09,0,0,0-3.85.41,18.51,18.51,0,0,0-30.45-1,16.43,16.43,0,0,0-7.37-1.74,16.63,16.63,0,1,0,4.88,32.52,18.51,18.51,0,0,0,31.06,6,18.55,18.55,0,1,0,5.73-36.19Z"/><path class="cls-3" d="M79.25,53.73h2.61c0,2.64-1.18,4.81-2.61,4.81s-2.61-2.17-2.61-4.81,1.15-4.77,2.57-4.81Z"/><path class="cls-3" d="M60.74,53.73h2.62c0,2.64-1.18,4.81-2.62,4.81s-2.61-2.17-2.61-4.81S59.28,49,60.7,48.92Z"/><circle class="cls-4" cx="55.73" cy="53.45" r="8.57"/><circle class="cls-4" cx="80.25" cy="52.73" r="8.57"/><path class="cls-5" d="M53.84,51.26s-1.63,5.44,3.26,4.9"/><path class="cls-5" d="M77.75,51S76.12,56.42,81,55.87"/><ellipse class="cls-6" cx="265.86" cy="150.74" rx="1.65" ry="3.64"/><ellipse class="cls-6" cx="258.47" cy="150.74" rx="1.65" ry="3.64"/><path class="cls-6" d="M255.25,159.16s5.58,6.71,14,0"/><path class="cls-7" d="M186,109.79a48.63,48.63,0,0,0,45.82,15.84"/><path class="cls-7" d="M175,116.43c3.7.67,6.87,2.95,10.1,4.87a61.41,61.41,0,0,0,16,6.7"/><path class="cls-7" d="M168.3,117.56a72.59,72.59,0,0,1,17,26.42"/><path class="cls-7" d="M185.53,132c6.28,6.91,11.69,14.78,14.6,23.64s3.18,18.81-.52,27.38"/><path class="cls-7" d="M209.71,133.39a67,67,0,0,0,33.7-9.68"/><path class="cls-7" d="M205.9,143c5,2,8.44,6.73,10.09,11.82s1.71,10.55,1.47,15.9-.73,10.71-.12,16"/><text class="cls-8" transform="translate(198.13 112.86)"><tspan class="cls-9">t</tspan><tspan x="1.97" y="0">oot</tspan></text></g></g></svg>