<svg xmlns="http://www.w3.org/2000/svg" viewBox="0 0 137.63 164.88"><defs><style>.cls-1{fill:#414042;}.cls-2{fill:#939598;}.cls-3{fill:#d1d3d4;}.cls-4{fill:#bcbec0;}.cls-5{fill:#e6e7e8;}.cls-6{fill:#f15a29;}.cls-7{fill:#a7a9ac;}.cls-8{fill:#fbb040;}.cls-9{fill:#27aae1;}.cls-10,.cls-11,.cls-12{fill:none;stroke-linecap:round;stroke-miterlimit:10;}.cls-10{stroke:#a7a9ac;}.cls-11{stroke:#231f20;}.cls-12{stroke:#be1e2d;}</style></defs><title>Asset 2</title><g id="Layer_2" data-name="Layer 2"><g id="fireSax"><path class="cls-1" d="M127.39,2.68l10.49,6.09a107.13,107.13,0,0,0-22.52,1.64l-2.09-7.89c2.5-.13,4.8-.16,6.8-.14a1.16,1.16,0,0,0,.59.16,1.21,1.21,0,0,0,.57-.15C125,2.45,127.39,2.68,127.39,2.68Z" transform="translate(-0.25 -0.25)"/><path class="cls-2" d="M121.81,1.4a1.14,1.14,0,0,1-.58,1h-1.16a1.15,1.15,0,1,1,1.74-1Z" transform="translate(-0.25 -0.25)"/><path class="cls-2" d="M120.07,2.38h1.16a1.21,1.21,0,0,1-.57.15A1.16,1.16,0,0,1,120.07,2.38Z" transform="translate(-0.25 -0.25)"/><path class="cls-3" d="M113.27,2.52l2.09,7.89h0c-24,4.74-23.18,17.94-23.18,17.94.06,1,.13,2,.19,3,.09,1.55.19,3.1.28,4.65a50.66,50.66,0,0,1-5.73.62,39.45,39.45,0,0,1-7.91,0,8.74,8.74,0,0,1-4.59-1.75c.11-3.17.23-6.1.35-8.7C75.35,13.54,85.93,7.5,97.45,4.69l1.07-.25c1.41-.32,2.82-.59,4.23-.82l1-.16C107.05,3,110.3,2.67,113.27,2.52Z" transform="translate(-0.25 -0.25)"/><path class="cls-4" d="M103.75,2.87a1,1,0,0,1-.5.12.88.88,0,0,1-.5-.13h0a.21.21,0,0,1-.1-.17c0-.17.27-.31.6-.31s.61.14.61.31A.26.26,0,0,1,103.75,2.87Z" transform="translate(-0.25 -0.25)"/><path class="cls-4" d="M103.75,2.87v.59l-1,.16V2.86a.88.88,0,0,0,.5.13A1,1,0,0,0,103.75,2.87Z" transform="translate(-0.25 -0.25)"/><path class="cls-4" d="M102.11,1.53a.34.34,0,0,1-.17-.27c0-.3.59-.55,1.31-.55s1.31.25,1.31.55-.58.55-1.31.55A2,2,0,0,1,102.11,1.53Z" transform="translate(-0.25 -0.25)"/><path class="cls-3" d="M60.07,131.86c-1,.51-1.79,2.67-1.79,5.26,0,3,1,5.37,2.25,5.37s2.24-2.4,2.24-5.37a11,11,0,0,0-.45-3.22c-.4-1.31-1-2.16-1.79-2.16A1,1,0,0,0,60.07,131.86Zm13-.11H73c-.72,0-1.35.8-1.76,2.06a10.83,10.83,0,0,0-.48,3.32c0,3,1,5.37,2.24,5.37s2.25-2.4,2.25-5.37S74.3,131.86,73.1,131.75Zm25.78,5c.33,5,1.49,9.06-1.55,13.54-.24.35-.48.68-.74,1-15.34,19.56-44.3,17.56-59.47-.85-4.22-5.12-2.75-9.09-3.08-15.14-.2-3.59-.52-7.18-1-10.75-1.17-8-3.54-22.11-12-26.34a47.1,47.1,0,0,0,15.27-6.8,48.3,48.3,0,0,0,10.95-9.89c10.49,14.23,12.27,40.85,12.27,40.85,6.1,8.7,13-.87,13-.87s0-2.79.11-7.47a4.24,4.24,0,0,0,.14-8.43c.05-2.37.09-4.93.14-7.66h.18a4.24,4.24,0,0,0,0-8.48h0c0-2.48.1-5,.15-7.63h.25a4.24,4.24,0,0,0,0-8.48h-.07c.07-3.12.14-6.26.22-9.39a1.88,1.88,0,0,0,.34,0,4.24,4.24,0,1,0,0-8.47h-.14c.09-3.21.17-6.36.26-9.39h.25a4.24,4.24,0,0,0,0-8.48c0-1,.06-1.89.1-2.81A8.74,8.74,0,0,0,79,36.63a39.45,39.45,0,0,0,7.91,0A50.66,50.66,0,0,0,92.65,36l.57,9.16q.45,7.15.89,14.31c-1,.42-1.76,2.28-1.76,4.5,0,2.54,1,4.59,2.19,4.59h.13q.94,15.06,1.87,30.11c.53,8.51,1,17,1.55,25.54Q98.48,130.5,98.88,136.75Z" transform="translate(-0.25 -0.25)"/><path class="cls-3" d="M98.52,2V4.44l-1.07.25V2.16C97.8,2.09,98.16,2,98.52,2Z" transform="translate(-0.25 -0.25)"/><path class="cls-3" d="M98.52,1V2c-.36,0-.72.11-1.07.18V1S98.1.22,98.52,1Z" transform="translate(-0.25 -0.25)"/><path class="cls-5" d="M94.54,59.42c1.21,0,2.2,2.06,2.2,4.59s-.92,4.44-2.07,4.58c-.18-3-.37-6.05-.56-9.08A1.07,1.07,0,0,1,94.54,59.42Z" transform="translate(-0.25 -0.25)"/><path class="cls-5" d="M94.11,59.51c.19,3,.38,6.05.56,9.08h-.13c-1.21,0-2.19-2-2.19-4.59C92.35,61.79,93.11,59.93,94.11,59.51Z" transform="translate(-0.25 -0.25)"/><path class="cls-5" d="M74.32,37.69a4.24,4.24,0,0,1,0,8.48h-.25C74.14,43.22,74.23,40.38,74.32,37.69Z" transform="translate(-0.25 -0.25)"/><path class="cls-5" d="M73.93,55.54a4.24,4.24,0,1,1,0,8.47,1.88,1.88,0,0,1-.34,0c.06-2.84.13-5.66.2-8.44Z" transform="translate(-0.25 -0.25)"/><path class="cls-5" d="M73.44,73.38a4.24,4.24,0,0,1,0,8.48h-.25c.06-2.78.12-5.62.18-8.47Z" transform="translate(-0.25 -0.25)"/><path class="cls-5" d="M73.06,89.48a4.24,4.24,0,0,1,0,8.48h-.18c.05-2.68.1-5.52.16-8.47Z" transform="translate(-0.25 -0.25)"/><path class="cls-5" d="M72.74,105.61A4.24,4.24,0,0,1,72.6,114C72.64,111.68,72.69,108.83,72.74,105.61Z" transform="translate(-0.25 -0.25)"/><path class="cls-1" d="M73.1,131.75c1.2.11,2.16,2.47,2.16,5.37s-1,5.37-2.25,5.37-2.24-2.4-2.24-5.37a10.83,10.83,0,0,1,.48-3.32Z" transform="translate(-0.25 -0.25)"/><path class="cls-5" d="M74.3,37.69h0c-.09,2.69-.18,5.53-.27,8.47a4.24,4.24,0,0,1,.25-8.47Z" transform="translate(-0.25 -0.25)"/><path class="cls-5" d="M73.79,55.55c-.07,2.78-.14,5.6-.2,8.44a4.23,4.23,0,0,1,.2-8.44Z" transform="translate(-0.25 -0.25)"/><path class="cls-5" d="M73.37,73.38c-.06,2.85-.12,5.69-.18,8.47a4.24,4.24,0,0,1,.18-8.47Z" transform="translate(-0.25 -0.25)"/><path class="cls-4" d="M73.1,131.75l-1.85,2.05c.41-1.26,1-2.06,1.76-2.06Z" transform="translate(-0.25 -0.25)"/><path class="cls-5" d="M73,89.48c-.06,3-.11,5.79-.16,8.47A4.24,4.24,0,0,1,73,89.48Z" transform="translate(-0.25 -0.25)"/><path class="cls-5" d="M72.24,105.58a4.07,4.07,0,0,1,.5,0c0,3.22-.1,6.07-.14,8.43l-.36,0a4.24,4.24,0,1,1,0-8.48Z" transform="translate(-0.25 -0.25)"/><path class="cls-1" d="M62.32,133.9a11,11,0,0,1,.45,3.22c0,3-1,5.37-2.24,5.37s-2.25-2.4-2.25-5.37c0-2.59.77-4.75,1.79-5.26Z" transform="translate(-0.25 -0.25)"/><path class="cls-3" d="M62.32,133.9l-2.25-2a1,1,0,0,1,.46-.12C61.27,131.74,61.92,132.59,62.32,133.9Z" transform="translate(-0.25 -0.25)"/><path class="cls-3" d="M51.64,62.1c3.25,4.88,1.27,12.36-4.38,19.43a48.3,48.3,0,0,1-10.95,9.89A47.1,47.1,0,0,1,21,98.22c-7.9,1.82-14.68.59-17.69-3.93s-1.59-11,2.92-17.47c.7.37,1.44.68,2.17,1a28.77,28.77,0,0,1,3,1.62l.63.37c-1.7,3.39-2,6.64-.42,9,3.2,4.79,12.89,4,21.64-1.89,6.89-4.59,11.15-10.9,11.1-15.72,2.84-4.56,2.34-9.18.78-13.27A10.53,10.53,0,0,1,51.64,62.1Z" transform="translate(-0.25 -0.25)"/><path class="cls-6" d="M45.16,57.89c1.56,4.09,2.06,8.71-.78,13.27a6.3,6.3,0,0,0-1-3.53c-1.51-2.27-4.47-3.27-8.1-3.09-1.36-2.24-3.85-4-3-5.94C37.11,57.26,41.59,57,45.16,57.89Z" transform="translate(-0.25 -0.25)"/><path class="cls-7" d="M44.38,71.16c0,4.82-4.21,11.13-11.1,15.72-8.75,5.84-18.44,6.68-21.64,1.89-1.56-2.34-1.28-5.59.42-9,3.92,2.26,8.23,5,12.92,4.35,4.41-.63,8.36-3.12,11.87-5.72,1-.77,2-1.56,3-2.36A19.49,19.49,0,0,0,44.38,71.16Z" transform="translate(-0.25 -0.25)"/><path class="cls-6" d="M43.35,67.63a6.3,6.3,0,0,1,1,3.53,19.49,19.49,0,0,1-4.49,4.9c-1,.8-2,1.59-3,2.36C33.34,81,29.39,83.51,25,84.14c-4.69.68-9-2.09-12.92-4.35a23.89,23.89,0,0,1,4.09-5.64,19.9,19.9,0,0,0,7.24,1.2c4.45-.06,9-1.57,11.59-5.25a4.6,4.6,0,0,0,.27-5.56C38.88,64.36,41.84,65.36,43.35,67.63Z" transform="translate(-0.25 -0.25)"/><path class="cls-6" d="M45.16,57.89c-3.57-.89-8-.63-12.86.71v0c1.57-3.37-1.15-4.92,1.43-5.16,0,0-4.44-.36-5.88,3.65,0,0-2.56-3.19-2.67-5.5.11-.65.17-1.09.17-1.09a2.17,2.17,0,0,0-.17,1.09c-.27,1.67-.89,4.7-1.77,5.21,0,0-1.29-4.29-3.44-4.44,0,0,1.44,3.44-.57,4.66,0,0-2.65-4.23-5.37-3.73,0,0,2.65,3.3,0,4.59s-4.51,7-2.77,12.25a3.51,3.51,0,0,0,.26.6,42.86,42.86,0,0,0-5.26,6.12,8.78,8.78,0,0,1-.94-.54c-.18-.12-.37-.25-.54-.39A9.2,9.2,0,0,1,2.38,73,19.94,19.94,0,0,1,.32,64.51C0,59.34.54,53.16,3,48.48c2.69-5.23,4.2-4.36,4.59-8.56C8,35.51,5.26,29.86,5.26,29.86c7.52.32,8.87,8.48,8.87,8.48.15-3.42.15-6.41,2.94-8.78a10.53,10.53,0,0,1,1.49-1c4.3-2.5,2.62-9,2.62-9C28.6,24.21,29.61,43.18,30,38.89s11.41-8.16,11.41-8.16S35.83,40,39.08,46.81C40.24,49.25,43.39,53.23,45.16,57.89Z" transform="translate(-0.25 -0.25)"/><path class="cls-8" d="M35.25,64.54A4.6,4.6,0,0,1,35,70.1c-2.58,3.68-7.14,5.19-11.59,5.25l-.07-2.88A5.45,5.45,0,0,0,28.77,67a5.19,5.19,0,0,0-.1-1A23.18,23.18,0,0,1,35.25,64.54Z" transform="translate(-0.25 -0.25)"/><path class="cls-8" d="M27.86,57.06c1.44-4,5.88-3.65,5.88-3.65-2.58.24.14,1.79-1.43,5.16v0c-1.2.33-2.42.73-3.65,1.2Z" transform="translate(-0.25 -0.25)"/><path class="cls-8" d="M27.31,63.32a5.36,5.36,0,0,0-2.95-1.64c1.43-.71,2.87-1.34,4.29-1.88,1.23-.47,2.45-.87,3.65-1.2-.9,2,1.59,3.7,3,5.94A23.18,23.18,0,0,0,28.67,66,5.35,5.35,0,0,0,27.31,63.32Z" transform="translate(-0.25 -0.25)"/><path class="cls-9" d="M22.59,69a33.45,33.45,0,0,1,3.24-1.78c.11,1.42.63,2.49,1.26,2.49s1.28-1.38,1.28-3.09c0-.16,0-.33,0-.48l.32-.12a5.19,5.19,0,0,1,.1,1,5.45,5.45,0,0,1-5.45,5.45A5.39,5.39,0,0,1,19.64,71q1-.78,2.07-1.5Z" transform="translate(-0.25 -0.25)"/><path class="cls-9" d="M28.67,66l-.32.12c-.09-1.44-.59-2.54-1.21-2.59l.17-.18A5.35,5.35,0,0,1,28.67,66Z" transform="translate(-0.25 -0.25)"/><path class="cls-8" d="M19.37,63.28a5.36,5.36,0,0,0-1.23,2.07,51,51,0,0,0-6.61,5.35,3.51,3.51,0,0,1-.26-.6c-1.74-5.23.12-11,2.77-12.25s0-4.59,0-4.59c2.72-.5,5.37,3.73,5.37,3.73,2-1.22.57-4.66.57-4.66,2.15.15,3.44,4.44,3.44,4.44.88-.51,1.5-3.54,1.77-5.21.11,2.31,2.67,5.5,2.67,5.5l.79,2.74c-1.42.54-2.86,1.17-4.29,1.88a5.1,5.1,0,0,0-1-.1A5.42,5.42,0,0,0,19.37,63.28Z" transform="translate(-0.25 -0.25)"/><path class="cls-9" d="M28.35,66.09c0,.15,0,.32,0,.48,0,1.71-.57,3.09-1.28,3.09s-1.15-1.07-1.26-2.49Q27.11,66.56,28.35,66.09Z" transform="translate(-0.25 -0.25)"/><path class="cls-1" d="M27.14,63.5c.62,0,1.12,1.15,1.21,2.59q-1.25.47-2.52,1.08,0-.3,0-.6a6.24,6.24,0,0,1,.28-1.9Z" transform="translate(-0.25 -0.25)"/><path class="cls-9" d="M26.08,64.67a6.24,6.24,0,0,0-.28,1.9q0,.3,0,.6A33.45,33.45,0,0,0,22.59,69l-.88.57q-1.08.72-2.07,1.5a5.44,5.44,0,0,1-1.5-5.67l.54-.37.18-.11a6.26,6.26,0,0,0-.22,1.7c0,1.71.58,3.09,1.29,3.09s1.28-1.38,1.28-3.09A6.07,6.07,0,0,0,21,64.72a2.6,2.6,0,0,0-.44-.9q1.92-1.18,3.85-2.14a5.36,5.36,0,0,1,2.95,1.64l-.17.18h-.05C26.68,63.49,26.31,64,26.08,64.67Z" transform="translate(-0.25 -0.25)"/><path class="cls-8" d="M25.36,50.47s-.06.44-.17,1.09A2.17,2.17,0,0,1,25.36,50.47Z" transform="translate(-0.25 -0.25)"/><path class="cls-9" d="M23.32,61.58a5.1,5.1,0,0,1,1,.1q-1.93,1-3.85,2.14a.77.77,0,0,0-.58-.33.58.58,0,0,0-.26.06h0l-.29-.27A5.42,5.42,0,0,1,23.32,61.58Z" transform="translate(-0.25 -0.25)"/><path class="cls-8" d="M23.32,72.47l.07,2.88a19.9,19.9,0,0,1-7.24-1.2A32.27,32.27,0,0,1,19.64,71,5.39,5.39,0,0,0,23.32,72.47Z" transform="translate(-0.25 -0.25)"/><path class="cls-1" d="M21,64.72a6.07,6.07,0,0,1,.26,1.85c0,1.71-.57,3.09-1.28,3.09s-1.29-1.38-1.29-3.09a6.26,6.26,0,0,1,.22-1.7c.44-.3.88-.58,1.32-.85Z" transform="translate(-0.25 -0.25)"/><path class="cls-9" d="M20.51,63.82a2.6,2.6,0,0,1,.44.9l-.77-.7Z" transform="translate(-0.25 -0.25)"/><path class="cls-1" d="M19.67,63.55l.51.47c-.44.27-.88.55-1.32.85a2.13,2.13,0,0,1,.8-1.32Z" transform="translate(-0.25 -0.25)"/><path class="cls-9" d="M19.37,63.28l.29.27a2.13,2.13,0,0,0-.8,1.32l-.18.11-.54.37A5.36,5.36,0,0,1,19.37,63.28Z" transform="translate(-0.25 -0.25)"/><path class="cls-8" d="M17.88,67a5.39,5.39,0,0,0,1.76,4,32.27,32.27,0,0,0-3.49,3.13,8.58,8.58,0,0,1-4.62-3.45,51,51,0,0,1,6.61-5.35A5.36,5.36,0,0,0,17.88,67Z" transform="translate(-0.25 -0.25)"/><path class="cls-6" d="M16.15,74.15a23.89,23.89,0,0,0-4.09,5.64l-.63-.37a28.77,28.77,0,0,0-3-1.62c-.73-.3-1.47-.61-2.17-1a42.86,42.86,0,0,1,5.26-6.12A8.58,8.58,0,0,0,16.15,74.15Z" transform="translate(-0.25 -0.25)"/><path class="cls-10" d="M92.37,31.39c1.2.38,2.56.5,3.36,1.54a1.71,1.71,0,0,1,.39,1,1.79,1.79,0,0,1-1.26,1.47,13.66,13.66,0,0,1-2.21.63,50.66,50.66,0,0,1-5.73.62,39.45,39.45,0,0,1-7.91,0,8.74,8.74,0,0,1-4.59-1.75,6.14,6.14,0,0,1-2.13-3.59,23.25,23.25,0,0,1,2.59-15.41C78.14,9.93,84,6.08,90.28,4a47.88,47.88,0,0,1,7.17-1.79c.35-.07.71-.13,1.07-.18,1.19-.19,2.39-.33,3.59-.45l1.46-.13" transform="translate(-0.25 -0.25)"/><path class="cls-11" d="M64.57,140.79s2.59,2.63,4.84,0" transform="translate(-0.25 -0.25)"/><polyline class="cls-11" points="56.57 128.67 59.82 131.61 62.07 133.65"/><polyline class="cls-11" points="75.89 128.15 72.85 131.5 71 133.55 70.91 133.65"/><path class="cls-11" d="M22.24,68.68a2.24,2.24,0,0,0,.35.27A1.68,1.68,0,0,0,25,68.68" transform="translate(-0.25 -0.25)"/><line class="cls-11" x1="19.42" y1="63.3" x2="19.93" y2="63.77"/><polyline class="cls-11" points="17.56 61.62 19.12 63.03 19.41 63.3"/><polyline class="cls-11" points="28.63 61.33 27.06 63.07 26.89 63.25 25.83 64.42 25.78 64.48"/><path class="cls-12" d="M16.37,31.16s3.05.85,2.29,3.64-2,11.18-.13,10.75" transform="translate(-0.25 -0.25)"/><path class="cls-12" d="M28.77,37.27S23,39.13,25.14,48.59" transform="translate(-0.25 -0.25)"/></g></g></svg>