<svg xmlns="http://www.w3.org/2000/svg" viewBox="0 0 79.34 95.05"><defs><style>.cls-1{fill:#414042;}.cls-2{fill:#939598;}.cls-3{fill:#d1d3d4;}.cls-4{fill:#bcbec0;}.cls-5{fill:#e6e7e8;}.cls-6{fill:#be1e2d;}.cls-7{fill:#f15a29;}.cls-8{fill:#f7941d;}.cls-9{fill:#fbb040;}.cls-10{fill:#27aae1;}.cls-11{fill:#a7a9ac;}.cls-12{fill:#231f20;}</style></defs><title>fireSax</title><g id="Layer_2" data-name="Layer 2"><g id="fireSax"><path class="cls-1" d="M73.29,1.4l6,3.51a61.47,61.47,0,0,0-13,1L65.15,1.31c1.44-.07,2.77-.09,3.92-.08a.67.67,0,0,0,.34.09.73.73,0,0,0,.33-.08C71.91,1.27,73.29,1.4,73.29,1.4Z"/><path class="cls-2" d="M70.07.66a.68.68,0,0,1-.33.58h-.67a.66.66,0,1,1,1-.57Z"/><path class="cls-2" d="M69.74,1.24a.73.73,0,0,1-.33.08.67.67,0,0,1-.34-.09Z"/><path class="cls-3" d="M66.36,5.86h0C52.51,8.59,53,16.21,53,16.21c0,.58.08,1.16.11,1.74.06.89.11,1.79.16,2.68A28.45,28.45,0,0,1,50,21a22.42,22.42,0,0,1-4.56,0,5,5,0,0,1-2.64-1c.06-1.82.13-3.51.2-5C43.29,7.66,49.39,4.18,56,2.56l.62-.14c.81-.19,1.62-.34,2.44-.47l.57-.1a53.54,53.54,0,0,1,5.49-.54Z"/><path class="cls-4" d="M59.73,1.4a.15.15,0,0,1-.07.11.52.52,0,0,1-.28.07.54.54,0,0,1-.29-.07h0A.12.12,0,0,1,59,1.4c0-.1.15-.17.35-.17S59.73,1.3,59.73,1.4Z"/><path class="cls-4" d="M59.66,1.51v.34l-.57.1V1.51a.54.54,0,0,0,.29.07A.52.52,0,0,0,59.66,1.51Z"/><path class="cls-3" d="M34.48,75.87c-.58.29-1,1.54-1,3,0,1.71.59,3.1,1.3,3.1S36,80.61,36,78.9A6.42,6.42,0,0,0,35.78,77c-.23-.75-.61-1.24-1-1.24A.54.54,0,0,0,34.48,75.87ZM42,75.8h-.05c-.41,0-.78.46-1,1.19a6.26,6.26,0,0,0-.28,1.91c0,1.71.58,3.1,1.29,3.1s1.3-1.39,1.3-3.1S42.69,75.87,42,75.8Zm14.87,2.89c.19,2.88.85,5.22-.9,7.8-.14.2-.27.39-.43.58a20.47,20.47,0,0,1-11.93,7.5S24.47,95.26,24.08,77,16.9,54.75,16.9,54.75a31.06,31.06,0,0,0,3.89-2.19,28.11,28.11,0,0,0,6.31-5.7c6,8.2,7.07,23.54,7.07,23.54,3.52,5,7.47-.5,7.47-.5s0-1.61.07-4.3a2.44,2.44,0,0,0,.08-4.86c0-1.37.05-2.85.08-4.42H42a2.45,2.45,0,1,0,0-4.89h0c0-1.43.06-2.9.09-4.4h.14a2.44,2.44,0,1,0,0-4.88h0c0-1.8.08-3.61.13-5.42a.58.58,0,0,0,.19,0,2.45,2.45,0,1,0,0-4.89h-.08c.06-1.85.1-3.67.15-5.41h.15a2.45,2.45,0,0,0,0-4.89c0-.55,0-1.08.06-1.62a5,5,0,0,0,2.64,1A22.42,22.42,0,0,0,50,21a28.45,28.45,0,0,0,3.3-.36c.11,1.76.22,3.53.33,5.28.18,2.75.34,5.5.52,8.25-.58.25-1,1.32-1,2.6,0,1.46.57,2.64,1.26,2.64h.08l1.08,17.35c.3,4.91.59,9.81.89,14.73Q56.63,75.08,56.86,78.69Z"/><path class="cls-3" d="M56.65,1V2.42L56,2.56V1.1Z"/><path class="cls-3" d="M56.65.4V1L56,1.1V.4S56.41,0,56.65.4Z"/><path class="cls-5" d="M55.62,36.76c0,1.41-.53,2.55-1.19,2.64-.11-1.75-.22-3.49-.32-5.24a.69.69,0,0,1,.24,0C55.05,34.11,55.62,35.3,55.62,36.76Z"/><path class="cls-5" d="M54.43,39.4h-.08c-.69,0-1.26-1.18-1.26-2.64,0-1.28.44-2.35,1-2.6C54.21,35.91,54.32,37.65,54.43,39.4Z"/><path class="cls-5" d="M42.7,21.58a2.45,2.45,0,0,1,0,4.89h-.15C42.59,24.77,42.65,23.13,42.7,21.58Z"/><path class="cls-5" d="M42.47,31.87a2.45,2.45,0,1,1,0,4.89.58.58,0,0,1-.19,0c0-1.63.07-3.26.11-4.86Z"/><path class="cls-5" d="M42.19,42.16a2.44,2.44,0,1,1,0,4.88h-.14c0-1.6.06-3.24.1-4.88Z"/><path class="cls-5" d="M42,51.44a2.45,2.45,0,1,1,0,4.89h-.1c0-1.54.06-3.18.09-4.88Z"/><path class="cls-4" d="M24.08,77C24.47,95.26,43.6,94.57,43.6,94.57a23,23,0,0,1-22.35-8c-2.43-3-1.58-5.24-1.77-8.72-.12-2.07-.3-4.14-.6-6.2-.68-4.62-2-12.74-6.9-15.18a24.57,24.57,0,0,0,4.92-1.73S23.7,58.71,24.08,77Z"/><path class="cls-5" d="M41.79,60.74a2.44,2.44,0,0,1-.08,4.86C41.73,64.23,41.76,62.59,41.79,60.74Z"/><path class="cls-1" d="M42,75.8c.7.07,1.25,1.43,1.25,3.1s-.58,3.1-1.3,3.1-1.29-1.39-1.29-3.1A6.26,6.26,0,0,1,40.93,77Z"/><path class="cls-5" d="M42.7,21.58c-.05,1.55-.11,3.19-.16,4.89a2.45,2.45,0,0,1,.15-4.89Z"/><path class="cls-5" d="M42.39,31.88c0,1.6-.08,3.23-.11,4.86a2.43,2.43,0,0,1,.11-4.86Z"/><path class="cls-5" d="M42.15,42.16c0,1.64-.07,3.28-.1,4.88a2.44,2.44,0,0,1,.1-4.88Z"/><path class="cls-4" d="M42,75.8,40.93,77c.23-.73.6-1.19,1-1.19Z"/><path class="cls-5" d="M42,51.44c0,1.7-.06,3.34-.09,4.88A2.44,2.44,0,0,1,42,51.44Z"/><path class="cls-5" d="M41.79,60.74c0,1.85-.06,3.49-.08,4.86H41.5a2.45,2.45,0,1,1,0-4.89A1.37,1.37,0,0,1,41.79,60.74Z"/><path class="cls-1" d="M35.78,77A6.42,6.42,0,0,1,36,78.9c0,1.71-.58,3.1-1.29,3.1s-1.3-1.39-1.3-3.1c0-1.49.45-2.74,1-3Z"/><path class="cls-3" d="M35.78,77l-1.3-1.17a.54.54,0,0,1,.27-.07C35.17,75.8,35.55,76.29,35.78,77Z"/><path class="cls-4" d="M29.63,35.65c1.87,2.82.73,7.13-2.53,11.21a28.11,28.11,0,0,1-6.31,5.7,31.06,31.06,0,0,1-3.89,2.19A24.57,24.57,0,0,1,12,56.48c-4.55,1-8.46.34-10.19-2.27S.87,47.87,3.47,44.14c.41.21.83.39,1.25.56a17.05,17.05,0,0,1,1.73.94l.36.21c-1,2-1.14,3.83-.24,5.18C8.41,53.79,14,53.31,19,49.94c4-2.65,6.43-6.28,6.4-9.06a8.23,8.23,0,0,0,.45-7.65A6.05,6.05,0,0,1,29.63,35.65Z"/><path class="cls-6" d="M25.89,33.23a8.23,8.23,0,0,1-.45,7.65,3.66,3.66,0,0,0-.59-2c-.06-.08-.11-.16-.17-.23a8.3,8.3,0,0,0-3.42-5.55A12.57,12.57,0,0,1,25.89,33.23Z"/><path class="cls-2" d="M25.44,40.88c0,2.78-2.43,6.41-6.4,9.06C14,53.31,8.41,53.79,6.57,51c-.9-1.35-.74-3.22.24-5.18,2.26,1.3,4.74,2.9,7.45,2.51a15.74,15.74,0,0,0,6.84-3.3c.38-.28.75-.56,1.11-.85l0,0,.62-.49A11.3,11.3,0,0,0,25.44,40.88Z"/><path class="cls-6" d="M24.85,38.84a3.66,3.66,0,0,1,.59,2,11.3,11.3,0,0,1-2.59,2.82l-.62.49a6.31,6.31,0,0,0,2.45-5.58C24.74,38.68,24.79,38.76,24.85,38.84Z"/><path class="cls-7" d="M17.2,42.51A6.64,6.64,0,0,0,20,40.27a2.65,2.65,0,0,0,.16-3.21,5.24,5.24,0,0,1,4.5,1.55,6.31,6.31,0,0,1-2.45,5.58l0,0c-.36.29-.73.57-1.11.85a15.74,15.74,0,0,1-6.84,3.3c-2.71.39-5.19-1.21-7.45-2.51A13.48,13.48,0,0,1,9.17,42.6a11.34,11.34,0,0,0,4.17.69A9.9,9.9,0,0,0,17.2,42.51Z"/><path class="cls-6" d="M22.38,26.84c.67,1.41,2.49,3.7,3.51,6.39a12.57,12.57,0,0,0-4.63-.17h0c-4.07-3.17,1.43-14.83,2.39-15.46l.07,0C23.64,17.7,20.53,23,22.38,26.84Z"/><path class="cls-7" d="M21.26,33.06a8.3,8.3,0,0,1,3.42,5.55,5.24,5.24,0,0,0-4.5-1.55c-.79-1.29-2.22-2.27-1.7-3.42a19.86,19.86,0,0,1,2.77-.58Z"/><path class="cls-7" d="M17.13,22.27c.2-2.32,5.82-4.42,6.51-4.67-1,.63-6.46,12.29-2.39,15.46a19.86,19.86,0,0,0-2.77.58v0c.91-1.94-.66-2.84.82-3a3.9,3.9,0,0,0-1.46.21,3,3,0,0,0-1.92,1.89,7.43,7.43,0,0,1-1.54-3.17c0-.33.09-.57.09-.62l-.12-.9h0a.18.18,0,0,0,.14-.22c-1.16-5.21,1.84-6.26,2-6.31a.19.19,0,0,0,.12-.24l.09,0C17,22.49,17.07,23.06,17.13,22.27Z"/><path class="cls-8" d="M20.18,37.06A2.65,2.65,0,0,1,20,40.27a6.64,6.64,0,0,1-2.82,2.24c1-.7,1.3-3.17,1.07-5.18A11.11,11.11,0,0,1,20.18,37.06Z"/><path class="cls-8" d="M17.84,30.86a3.9,3.9,0,0,1,1.46-.21c-1.48.13.09,1-.82,3v0c-.41.11-.83.24-1.25.38A6.22,6.22,0,0,1,17.84,30.86Z"/><path class="cls-8" d="M18.48,33.64c-.52,1.15.91,2.13,1.7,3.42a11.11,11.11,0,0,0-1.91.27,5.66,5.66,0,0,0-.66-2.23A2.64,2.64,0,0,1,17.23,34C17.65,33.88,18.07,33.75,18.48,33.64Z"/><path class="cls-9" d="M18.27,37.33c.23,2-.1,4.48-1.07,5.18a9.9,9.9,0,0,1-3.86.78l0-1.66a3.14,3.14,0,0,0,3.14-3.14,3.08,3.08,0,0,0-.06-.61A16,16,0,0,1,18.27,37.33Z"/><path class="cls-9" d="M15.6,36.36a3.1,3.1,0,0,0-1.7-1,26.45,26.45,0,0,1,2.47-1.08l.86-.31a2.64,2.64,0,0,0,.38,1.08,5.66,5.66,0,0,1,.66,2.23,16,16,0,0,0-1.89.55A3,3,0,0,0,15.6,36.36Z"/><path class="cls-9" d="M18.7,30.67S17,32.51,17.23,34l-.86.31-.45-1.58C16.14,31.47,17.75,30.74,18.7,30.67Z"/><path class="cls-7" d="M16.71,21.26l-.09,0a.2.2,0,0,0-.24-.12s-3.46,1.19-2.22,6.75a.19.19,0,0,0,.19.15l.12.9a1.25,1.25,0,0,0-.09.62c-.16,1-.52,2.71-1,3,0,0-.75-2.47-2-2.56,0,0,.84,2-.32,2.69,0,0-1.53-2.44-3.1-2.15,0,0,1.53,1.9,0,2.65s-2.6,4-1.6,7.06a2.52,2.52,0,0,0,.15.34,25.43,25.43,0,0,0-3,3.53,5.79,5.79,0,0,1-.54-.31,2.26,2.26,0,0,1-.31-.23,5.26,5.26,0,0,1-1.39-1.68A11.44,11.44,0,0,1,0,37,18.85,18.85,0,0,1,1.56,27.8c1.55-3,2.42-2.51,2.65-4.93s-1.32-5.8-1.32-5.8C7.22,17.25,8,22,8,22c.07-1.57.09-3,.91-4.19,0,.09.24.21.33.23s1.57.46,1.19,1.87c-.33,1.2-1.07,5.51-.31,6.29a.46.46,0,0,0,.34.16l.12,0a.18.18,0,0,0,.14-.22.2.2,0,0,0-.23-.15.07.07,0,0,1-.1,0c-.52-.54-.05-4.26.4-5.93a1.89,1.89,0,0,0-1.44-2.33.62.62,0,0,0-.42.09,4.24,4.24,0,0,1,.77-.83,5.42,5.42,0,0,1,.86-.61c2.48-1.44,1.51-5.16,1.51-5.16C15,13,16.18,18.63,16.71,21.26Z"/><path class="cls-7" d="M16.62,21.28a.19.19,0,0,1-.12.24c-.13.05-3.13,1.1-2,6.31a.18.18,0,0,1-.14.22h0a.19.19,0,0,1-.19-.15c-1.24-5.56,2.19-6.74,2.22-6.75A.2.2,0,0,1,16.62,21.28Z"/><path class="cls-10" d="M12.88,39.6a20.17,20.17,0,0,1,1.87-1c.06.82.36,1.43.72,1.43s.74-.79.74-1.78a2.35,2.35,0,0,0,0-.27l.18-.08a3.08,3.08,0,0,1,.06.61,3.14,3.14,0,0,1-3.14,3.14,3.06,3.06,0,0,1-2.12-.84c.38-.29.78-.58,1.19-.86Z"/><path class="cls-9" d="M11,36.34a3.17,3.17,0,0,0-.71,1.19A29.58,29.58,0,0,0,6.5,40.61a2.52,2.52,0,0,1-.15-.34c-1-3,.07-6.32,1.6-7.06s0-2.65,0-2.65c1.57-.29,3.1,2.15,3.1,2.15,1.16-.71.32-2.69.32-2.69,1.24.09,2,2.56,2,2.56.5-.29.86-2,1-3a7.43,7.43,0,0,0,1.54,3.17l.45,1.58a26.45,26.45,0,0,0-2.47,1.08,3,3,0,0,0-.6,0A3.12,3.12,0,0,0,11,36.34Z"/><path class="cls-10" d="M16.38,37.88,16.2,38c-.05-.84-.34-1.47-.7-1.5l.1-.1A3,3,0,0,1,16.38,37.88Z"/><path class="cls-10" d="M16.21,38.23c0,1-.33,1.78-.74,1.78s-.66-.61-.72-1.43A13.72,13.72,0,0,1,16.2,38,2.35,2.35,0,0,1,16.21,38.23Z"/><path class="cls-1" d="M16.2,38a13.72,13.72,0,0,0-1.45.62c0-.12,0-.23,0-.35a3.64,3.64,0,0,1,.16-1.1l.61-.67C15.86,36.49,16.15,37.12,16.2,38Z"/><path class="cls-10" d="M12.88,39.6l-.51.33c-.41.28-.81.57-1.19.86a3.09,3.09,0,0,1-1-2.3,3.33,3.33,0,0,1,.15-1,2.92,2.92,0,0,1,.32-.21l.1-.07a3.63,3.63,0,0,0-.13,1c0,1,.34,1.78.75,1.78s.73-.79.73-1.78a3.5,3.5,0,0,0-.15-1.07,1.57,1.57,0,0,0-.25-.52q1.11-.68,2.22-1.23a3.1,3.1,0,0,1,1.7,1l-.1.1h0c-.23,0-.45.26-.58.67a3.64,3.64,0,0,0-.16,1.1c0,.12,0,.23,0,.35A20.17,20.17,0,0,0,12.88,39.6Z"/><path class="cls-9" d="M14.47,29c0,.05,0,.29-.09.62A1.25,1.25,0,0,1,14.47,29Z"/><path class="cls-10" d="M13.3,35.36a3,3,0,0,1,.6,0q-1.11.56-2.22,1.23a.43.43,0,0,0-.33-.18.29.29,0,0,0-.14,0h0L11,36.34A3.12,3.12,0,0,1,13.3,35.36Z"/><path class="cls-9" d="M13.3,41.63l0,1.66a11.34,11.34,0,0,1-4.17-.69,19.78,19.78,0,0,1,2-1.81A3.06,3.06,0,0,0,13.3,41.63Z"/><path class="cls-1" d="M11.93,37.16a3.5,3.5,0,0,1,.15,1.07c0,1-.33,1.78-.73,1.78s-.75-.79-.75-1.78a3.63,3.63,0,0,1,.13-1l.76-.49Z"/><path class="cls-1" d="M11.93,37.16l-.44-.4.19-.12A1.57,1.57,0,0,1,11.93,37.16Z"/><path class="cls-1" d="M11.68,36.64l-.19.12-.28-.27a.29.29,0,0,1,.14,0A.43.43,0,0,1,11.68,36.64Z"/><path class="cls-1" d="M11.21,36.49l.28.27-.76.49a1.23,1.23,0,0,1,.46-.76h0Z"/><path class="cls-10" d="M11,36.34l.17.15a1.23,1.23,0,0,0-.46.76l-.1.07a2.92,2.92,0,0,0-.32.21A3.17,3.17,0,0,1,11,36.34Z"/><path class="cls-7" d="M9.35,17.64A1.89,1.89,0,0,1,10.79,20c-.45,1.67-.92,5.39-.4,5.93a.07.07,0,0,0,.1,0,.2.2,0,0,1,.23.15.18.18,0,0,1-.14.22l-.12,0a.46.46,0,0,1-.34-.16c-.76-.78,0-5.09.31-6.29C10.81,18.46,9.31,18,9.24,18s-.36-.14-.33-.23v0l0,0A.62.62,0,0,1,9.35,17.64Z"/><path class="cls-9" d="M10.16,38.49a3.09,3.09,0,0,0,1,2.3,19.78,19.78,0,0,0-2,1.81,5,5,0,0,1-2.67-2,29.58,29.58,0,0,1,3.81-3.08A3.33,3.33,0,0,0,10.16,38.49Z"/><path class="cls-6" d="M8.93,17.73l0,0Z"/><path class="cls-7" d="M6.5,40.61a5,5,0,0,0,2.67,2,13.48,13.48,0,0,0-2.36,3.25l-.36-.21a17.05,17.05,0,0,0-1.73-.94c-.42-.17-.84-.35-1.25-.56A25.43,25.43,0,0,1,6.5,40.61Z"/><path class="cls-11" d="M47.61,21.28a19.62,19.62,0,0,1-2.23-.12,5.17,5.17,0,0,1-2.74-1.05,3.71,3.71,0,0,1-1.3-2.18,13.43,13.43,0,0,1,1.52-9c2.18-4,6.09-6,9-7A27.46,27.46,0,0,1,56,.91l.62-.1C57.35.7,58.08.61,58.7.55l.85-.07a.18.18,0,0,1,.2.17.19.19,0,0,1-.17.2l-.84.08c-.61.06-1.34.14-2.06.25l-.61.11a27.13,27.13,0,0,0-4.11,1c-2.83,1-6.65,2.91-8.77,6.79a13.05,13.05,0,0,0-1.48,8.75,3.39,3.39,0,0,0,1.16,2,4.88,4.88,0,0,0,2.55,1,22.7,22.7,0,0,0,4.53,0l.68-.05a22.74,22.74,0,0,0,2.6-.3,8.43,8.43,0,0,0,1.24-.36.86.86,0,0,0,.61-.67.77.77,0,0,0-.19-.46,2.32,2.32,0,0,0-1.37-.7l-.47-.13a.2.2,0,0,1-.13-.24.2.2,0,0,1,.24-.12l.45.13a2.66,2.66,0,0,1,1.58.83,1.15,1.15,0,0,1,.27.69,1.21,1.21,0,0,1-.85,1,8.22,8.22,0,0,1-1.31.38,21.49,21.49,0,0,1-2.65.3l-.67.06C49.14,21.25,48.35,21.28,47.61,21.28Z"/><path class="cls-12" d="M38.57,81.88a2.57,2.57,0,0,1-1.63-.73.19.19,0,0,1,0-.27.19.19,0,0,1,.26,0,2.14,2.14,0,0,0,1.41.62,1.5,1.5,0,0,0,1.1-.61.2.2,0,0,1,.27,0,.19.19,0,0,1,0,.27,1.9,1.9,0,0,1-1.38.74Z"/><path class="cls-12" d="M35.78,77.23a.18.18,0,0,1-.13,0l-3.17-2.87a.19.19,0,0,1,.26-.28l3.17,2.87a.19.19,0,0,1,0,.27A.2.2,0,0,1,35.78,77.23Z"/><path class="cls-12" d="M40.88,77.23a.18.18,0,0,1-.14-.31l0-.06,2.83-3.11a.18.18,0,0,1,.26,0,.19.19,0,0,1,0,.27L41,77.17A.2.2,0,0,1,40.88,77.23Z"/><path class="cls-12" d="M13.53,40a1.34,1.34,0,0,1-.76-.26,2.24,2.24,0,0,1-.23-.18.19.19,0,0,1,0-.26.18.18,0,0,1,.27,0l.17.13a.79.79,0,0,0,1.16-.12.18.18,0,0,1,.28.24A1.15,1.15,0,0,1,13.53,40Z"/><path class="cls-12" d="M11.49,37a.21.21,0,0,1-.13-.05l-.27-.26a.18.18,0,0,1-.08-.15.19.19,0,0,1,.19-.19h.08l.06.05.28.28a.18.18,0,0,1,0,.26A.2.2,0,0,1,11.49,37Z"/><path class="cls-12" d="M11.19,36.68a.21.21,0,0,1-.13,0l-1.06-1a.19.19,0,0,1,0-.27.2.2,0,0,1,.27,0l1.07,1a.2.2,0,0,1,0,.27A.2.2,0,0,1,11.19,36.68Z"/><path class="cls-12" d="M14.86,37.36a.19.19,0,0,1-.12,0,.2.2,0,0,1,0-.27l0,0,1.62-1.79a.19.19,0,0,1,.27,0,.18.18,0,0,1,0,.26L15,37.29A.18.18,0,0,1,14.86,37.36Z"/></g></g></svg>