<svg xmlns="http://www.w3.org/2000/svg" xmlns:xlink="http://www.w3.org/1999/xlink" viewBox="0 0 222.05 199.77"><defs><style>.cls-1{fill:#2bb673;}.cls-2{clip-path:url(#clip-path);}.cls-3{fill:#009444;}.cls-4{fill:#39b54a;}.cls-5,.cls-8,.cls-9{fill:#a7a9ac;}.cls-6{fill:#808285;}.cls-7{fill:#414042;}.cls-8{stroke:#231f20;stroke-width:3px;}.cls-8,.cls-9{stroke-linecap:round;stroke-miterlimit:10;}.cls-9{stroke:#808285;}</style><clipPath id="clip-path"><path id="_Clipping_Path_" data-name="&lt;Clipping Path&gt;" class="cls-1" d="M222.05,121.77c0,61.32-49.71,71.48-111,71.48S0,183.09,0,121.77a111,111,0,0,1,222.05,0Z"/></clipPath></defs><title>Asset 1</title><g id="Layer_2" data-name="Layer 2"><g id="koala"><path id="_Clipping_Path_2" data-name="&lt;Clipping Path&gt;" class="cls-1" d="M222.05,121.77c0,61.32-49.71,71.48-111,71.48S0,183.09,0,121.77a111,111,0,0,1,222.05,0Z"/><g class="cls-2"><path class="cls-1" d="M150.79,175.48c-2.37.21-5.46-.1-7.61-.08l-9.86,0q-11.35,0-22.69-.13-22.18-.27-44.35-1.14c-11.59-.45-11.57,17.55,0,18q25.13,1,50.27,1.21,12.33.1,24.65,0c7.92,0,17.66,1.68,22.51-6.06C169.12,178.71,157.79,170.69,150.79,175.48Z"/></g><polyline class="cls-3" points="204.66 169.86 204.66 37.28 208.55 37.28 208.55 165.64"/><path class="cls-4" d="M182.52,62.86S177,57,173.84,58.67c0,0,4.1,14,8.62,13.23"/><polyline class="cls-3" points="182.52 183.63 182.52 3.09 188.21 3.09 188.21 181.15"/><polyline class="cls-3" points="28.12 178.06 28.12 15.08 35.48 15.08 35.48 181.92"/><ellipse class="cls-5" cx="110.05" cy="98.02" rx="56.82" ry="39.35"/><path class="cls-5" d="M67.4,73.6S17.8,48.79.08,91.31c0,0,14.17-14.17,28.35,0,0,0-24.81,10.63-24.81,46.07,0,0,24.81-28.35,31.89-21.26a75.77,75.77,0,0,0,3.55,21.26S46.14,109,56.77,109"/><path class="cls-5" d="M152.44,73.6s49.61-24.81,67.33,17.71c0,0-14.18-14.17-28.35,0,0,0,24.8,10.63,24.8,46.07,0,0-24.8-28.35-31.89-21.26a76,76,0,0,1-3.54,21.26S173.7,109,163.07,109"/><path class="cls-6" d="M56.77,101.94s0-14.17,7.09-21.26C63.86,80.68,42.6,77.14,56.77,101.94Z"/><path class="cls-6" d="M163.07,101.94s0-14.17-7.08-21.26C156,80.68,177.25,77.14,163.07,101.94Z"/><path class="cls-6" d="M99.16,126.45a21.57,21.57,0,0,0,5.44,2.08,19.83,19.83,0,0,0,16-2.33c10.63-7.08-7.08-28.34-10.63-28.34-.81,0-1.65.83-2.21,1.34a28.51,28.51,0,0,0-3.22,3.55A51.4,51.4,0,0,0,98,113.34c-1.3,2.91-2.82,6.78-1.71,10A6.22,6.22,0,0,0,99.16,126.45Z"/><ellipse class="cls-7" cx="106.38" cy="121.78" rx="1.77" ry="3.54"/><ellipse class="cls-7" cx="114.29" cy="121.78" rx="1.77" ry="3.54"/><path class="cls-8" d="M88,104.89a8.29,8.29,0,0,0,6.2,0"/><path class="cls-8" d="M132.65,104.89a8.32,8.32,0,0,1-6.21,0"/><path class="cls-5" d="M138.75,132c-14.62,9-57.12.12-57.12.12s-15.47-1-24.94,61.15c3.9,1.08,8.22,2,12.9,2.88a16.36,16.36,0,0,1,2.84.49,270.34,270.34,0,0,0,40.48,3.14,217.85,217.85,0,0,0,55-6.51S153.36,123,138.75,132Z"/><path class="cls-9" d="M80.42,167.44s-8.85,9.88-9.35,28.64"/><path class="cls-9" d="M141.83,167.44s9.92,8.65,11.12,28.64"/><path class="cls-4" d="M35.48,26.54S51.32,15.27,43.55,3.09c0,0-6.24,21-8.07,18"/><path class="cls-4" d="M28.12,42.23S17.81,40.86,17.2,33.55c0,0-.85,16.6,10.92,15.84"/><ellipse class="cls-4" cx="31.73" cy="13.68" rx="4.77" ry="2.66"/><ellipse class="cls-4" cx="185.09" cy="2.32" rx="3.57" ry="2.32"/><path class="cls-4" d="M182.52,8.93s-6.33-6-17.37-2.51c0,0,7.4,11.45,17.37,4.6"/><ellipse class="cls-4" cx="206.72" cy="36.83" rx="2.06" ry="1.75"/><path class="cls-4" d="M208.55,37.28a3.37,3.37,0,0,1,2.88-2.67c2.45-.28,3.49-1.7,3.11-2.26,0,0,1.32,6.89-5.76,6.23"/></g></g></svg>