<svg xmlns="http://www.w3.org/2000/svg" viewBox="0 0 112.4 87.09"><defs><style>.cls-1{fill:#9c63a9;}.cls-2{fill:#6d6e71;}.cls-3{fill:#d7df23;}.cls-4{fill:#f7ec13;}.cls-5{fill:#2e3192;}.cls-6{fill:#3f53a4;}.cls-7{fill:#009444;}.cls-8{fill:#22b24b;}.cls-9{fill:#904399;}.cls-10{fill:#808285;}.cls-11{fill:#d02028;}.cls-12{fill:#9e79b6;}.cls-13{fill:#a7a9ac;}.cls-14{fill:#ed1c24;}.cls-15{fill:#9057a3;}.cls-16{fill:#58595b;}.cls-17,.cls-18{fill:none;stroke:#d1d3d4;stroke-miterlimit:10;}.cls-17{stroke-linecap:round;}</style></defs><title>n64</title><g id="Layer_2" data-name="Layer 2"><g id="n64"><path class="cls-1" d="M112.57,62.83a21.41,21.41,0,0,1-.88,8.5c-1.44,4.21-5.78,8.79-10.66,7.57-5.77-1.46-7.75-9.47-8.29-14.5a122.17,122.17,0,0,1-.28-12.26A9.24,9.24,0,0,0,92,48.71c-1.62-3.94-9-3.67-12.51-3.64-3.83,0-9.83-.22-12.58,3a6.22,6.22,0,0,0-1.32,3.73l-1.33-.07a.66.66,0,0,0,0-.14,7.09,7.09,0,0,0-7.09-7.09V38.91a3.38,3.38,0,0,0,0-6.76V16.93h.47c10.48,0,19-1.54,19-3.44S68.1,10,57.62,10h-.47V4.43c7.64-.13,15.28-.16,22.9.08,1.32,0,2.62.1,3.91.19a2.1,2.1,0,0,0,1,1.39l19.8,11.44a2.17,2.17,0,0,0,2.24,0,28.91,28.91,0,0,1,1.94,3.9,45.81,45.81,0,0,1,3,16.47c.09,5.62.16,11.25.29,16.87C112.28,57.49,112.37,60.08,112.57,62.83ZM100.35,23a2,2,0,1,0-2,2A2,2,0,0,0,100.35,23Zm-4-4a2,2,0,0,0-2-2h0a2,2,0,0,0,0,4h0A2,2,0,0,0,96.36,19Zm0,7.74a2,2,0,0,0-2-2h0a2,2,0,0,0,0,4h0A2,2,0,0,0,96.36,26.74Zm-4-3.75a2,2,0,1,0-2,2A2,2,0,0,0,92.37,23ZM89.8,35.31a3.52,3.52,0,0,0-3.52-3.52V28.74l-2.65-.11c0-.12,0-.24,0-.36a3.52,3.52,0,1,0-3.52,3.52v1.68l2.78.79a3.71,3.71,0,0,0-.16,1.05,3.53,3.53,0,0,0,7,0Z" transform="translate(-0.25 -0.25)"/><path class="cls-2" d="M108,12a2.17,2.17,0,0,1,.79,3l-1,1.78a2.16,2.16,0,0,1-.74.76A25.37,25.37,0,0,0,98.7,8.85C94.15,6,89.16,5.07,84,4.7a2.11,2.11,0,0,1,.23-1.58l1-1.78a2.16,2.16,0,0,1,3-.79Z" transform="translate(-0.25 -0.25)"/><path class="cls-1" d="M107,17.49a2.17,2.17,0,0,1-2.24,0L85,6.09A2.1,2.1,0,0,1,84,4.7C89.16,5.07,94.15,6,98.7,8.85A25.37,25.37,0,0,1,107,17.49Z" transform="translate(-0.25 -0.25)"/><path class="cls-3" d="M98.36,21a2,2,0,0,1,0,4Z" transform="translate(-0.25 -0.25)"/><path class="cls-4" d="M98.36,21v4a2,2,0,1,1,0-4Z" transform="translate(-0.25 -0.25)"/><path class="cls-3" d="M94.37,17a2,2,0,0,1,0,4Z" transform="translate(-0.25 -0.25)"/><path class="cls-3" d="M94.37,24.75a2,2,0,0,1,0,4Z" transform="translate(-0.25 -0.25)"/><path class="cls-4" d="M94.37,24.75v4h0a2,2,0,0,1,0-4Z" transform="translate(-0.25 -0.25)"/><path class="cls-4" d="M94.37,17v4h0a2,2,0,0,1,0-4Z" transform="translate(-0.25 -0.25)"/><path class="cls-3" d="M90.37,21a2,2,0,1,1,0,4Z" transform="translate(-0.25 -0.25)"/><path class="cls-4" d="M90.37,21v4a2,2,0,1,1,0-4Z" transform="translate(-0.25 -0.25)"/><path class="cls-5" d="M86.28,31.79a3.52,3.52,0,0,1,0,7Z" transform="translate(-0.25 -0.25)"/><path class="cls-6" d="M86.28,31.79v7a3.53,3.53,0,0,1-3.53-3.52,3.71,3.71,0,0,1,.16-1.05A3.54,3.54,0,0,1,86.28,31.79Z" transform="translate(-0.25 -0.25)"/><path class="cls-1" d="M86.28,28.74v3.05a3.54,3.54,0,0,0-3.37,2.47l-2.78-.79V31.79a3.52,3.52,0,0,0,3.5-3.16Z" transform="translate(-0.25 -0.25)"/><path class="cls-7" d="M83.65,28.27c0,.12,0,.24,0,.36a3.52,3.52,0,0,1-3.5,3.16v-7A3.52,3.52,0,0,1,83.65,28.27Z" transform="translate(-0.25 -0.25)"/><path class="cls-8" d="M80.13,24.75v7a3.52,3.52,0,1,1,0-7Z" transform="translate(-0.25 -0.25)"/><path class="cls-9" d="M57.62,10c10.48,0,19,1.54,19,3.45s-8.51,3.44-19,3.44h-.47V10Z" transform="translate(-0.25 -0.25)"/><path class="cls-1" d="M67.47,66.53c.41,4.15.92,8.63-.17,12.72a11,11,0,0,1-10.15,8.09V58.74a7.09,7.09,0,0,0,7.08-7l1.33.07a12.35,12.35,0,0,0,0,1.72C66,57.91,67,62.19,67.47,66.53Z" transform="translate(-0.25 -0.25)"/><path class="cls-10" d="M64.24,51.64a.66.66,0,0,1,0,.14,7.09,7.09,0,0,1-7.08,7V57.09a5.45,5.45,0,0,0,0-10.89V44.55A7.09,7.09,0,0,1,64.24,51.64Z" transform="translate(-0.25 -0.25)"/><path class="cls-10" d="M62.59,51.64a5.45,5.45,0,0,1-5.44,5.45V55a3.38,3.38,0,0,0,0-6.75V46.2A5.45,5.45,0,0,1,62.59,51.64Z" transform="translate(-0.25 -0.25)"/><path class="cls-11" d="M57.15,32.15a3.38,3.38,0,0,1,0,6.76Z" transform="translate(-0.25 -0.25)"/><path class="cls-10" d="M57.15,48.27a3.38,3.38,0,0,1,0,6.75V53.33a1.69,1.69,0,0,0,0-3.38Z" transform="translate(-0.25 -0.25)"/><path class="cls-10" d="M57.15,50a1.69,1.69,0,0,1,0,3.38Z" transform="translate(-0.25 -0.25)"/><path class="cls-12" d="M57.15,69.93V87.34a8.94,8.94,0,0,1-4.19-1c-5-2.64-5.55-8.87-5.45-14,.06-3.48.54-6.94.72-10.41.16-3,1.05-6.14.61-9.18l1.26-.18a7.1,7.1,0,0,0,7,6.22h0Z" transform="translate(-0.25 -0.25)"/><path class="cls-13" d="M57.15,57.09v1.65h0a7.1,7.1,0,0,1-7-6.22,6.4,6.4,0,0,1-.06-.88,7.09,7.09,0,0,1,7.1-7.09h0V46.2h0a5.45,5.45,0,0,0,0,10.89Z" transform="translate(-0.25 -0.25)"/><path class="cls-13" d="M57.15,55v2.07h0a5.45,5.45,0,0,1,0-10.89h0v2.07h0a3.38,3.38,0,1,0,0,6.75Z" transform="translate(-0.25 -0.25)"/><path class="cls-13" d="M57.15,53.33V55h0a3.38,3.38,0,1,1,0-6.75h0V50h0a1.69,1.69,0,0,0,0,3.38Z" transform="translate(-0.25 -0.25)"/><path class="cls-13" d="M57.15,50v3.38h0a1.69,1.69,0,0,1,0-3.38Z" transform="translate(-0.25 -0.25)"/><path class="cls-12" d="M57.15,41.73v1.94c0,.53,0,.88,0,.88A7.09,7.09,0,0,0,50,51.64a6.4,6.4,0,0,0,.06.88l-1.26.18c0-.2-.06-.39-.1-.59-1.46-7.09-11.91-7-17.25-6.4-2.76.33-9.14,1.3-9.14,5.17,0,5,.18,10.08-.21,15.07-.53,6.83-6,16.29-14.11,11.77-5.36-3-6.65-8.27-6.63-13.92,0-3,0-6,0-8.93C1.32,49,1.05,43,1.07,37.11a63.52,63.52,0,0,1,.29-8.62c.11-.84,1.41-7.08,2.19-7.08a2.19,2.19,0,0,0,1.22-.36l19-12.68a2.17,2.17,0,0,0,.94-2.15A63.24,63.24,0,0,1,37,4.86c6.71-.14,13.43-.32,20.16-.43V10c-10.27.05-18.52,1.57-18.52,3.45s8.25,3.39,18.52,3.44V31.5c0,.41,0,.65,0,.65a3.38,3.38,0,0,0,0,6.76h0ZM28.8,32.85v-5H23.92V23h-5v4.88H14v5h4.88v4.88h5V32.85Z" transform="translate(-0.25 -0.25)"/><path class="cls-14" d="M57.15,32.15v6.76h0a3.38,3.38,0,0,1,0-6.76Z" transform="translate(-0.25 -0.25)"/><path class="cls-15" d="M57.15,10v6.89c-10.27-.05-18.52-1.57-18.52-3.44S46.88,10.09,57.15,10Z" transform="translate(-0.25 -0.25)"/><polygon class="cls-16" points="28.55 27.59 28.55 32.6 23.67 32.6 23.67 37.48 21.16 37.48 21.16 22.71 23.67 22.71 23.67 27.59 28.55 27.59"/><path class="cls-12" d="M24.74,6.22a2.17,2.17,0,0,1-.94,2.15l-19,12.68a2.19,2.19,0,0,1-1.22.36C6.42,15.23,12.43,8.92,24.74,6.22Z" transform="translate(-0.25 -0.25)"/><path class="cls-2" d="M24.4,5.35a2.17,2.17,0,0,1,.34.87c-12.31,2.7-18.32,9-21.19,15.19a2.2,2.2,0,0,1-1.79-1L.62,18.73a2.18,2.18,0,0,1,.6-3L20.24,3a2.19,2.19,0,0,1,3,.61Z" transform="translate(-0.25 -0.25)"/><polygon class="cls-2" points="21.16 22.71 21.16 37.48 18.66 37.48 18.66 32.6 13.78 32.6 13.78 27.59 18.66 27.59 18.66 22.71 21.16 22.71"/><path class="cls-17" d="M50.1,52.52a6.4,6.4,0,0,1-.06-.88,7.09,7.09,0,0,1,7.1-7.09h0a7.09,7.09,0,0,1,7.09,7.09.66.66,0,0,1,0,.14,7.09,7.09,0,0,1-7.08,7h0A7.1,7.1,0,0,1,50.1,52.52Z" transform="translate(-0.25 -0.25)"/><path class="cls-17" d="M57.15,48.27a3.38,3.38,0,0,1,0,6.75h0a3.38,3.38,0,1,1,0-6.75Z" transform="translate(-0.25 -0.25)"/><path class="cls-17" d="M57.15,46.2a5.45,5.45,0,0,1,0,10.89h0a5.45,5.45,0,0,1,0-10.89Z" transform="translate(-0.25 -0.25)"/><path class="cls-18" d="M57.15,50a1.69,1.69,0,0,1,0,3.38h0a1.69,1.69,0,0,1,0-3.38Z" transform="translate(-0.25 -0.25)"/></g></g></svg>