<svg xmlns="http://www.w3.org/2000/svg" viewBox="0 0 112.4 87.09"><defs><style>.cls-1{fill:#6d6e71;}.cls-2,.cls-4{fill:#a7a9ac;}.cls-3,.cls-9{fill:none;}.cls-3,.cls-4{stroke:#d1d3d4;}.cls-3{stroke-linecap:round;}.cls-3,.cls-4,.cls-9{stroke-miterlimit:10;}.cls-5{fill:#ed1c24;}.cls-6{fill:#009444;}.cls-7{fill:#2e3192;}.cls-8{fill:#d7df23;}.cls-9{stroke:#6d6e71;stroke-width:5px;}.cls-10{fill:#939598;}</style></defs><title>Asset 3</title><g id="Layer_2" data-name="Layer 2"><g id="n64"><rect class="cls-1" x="82.63" y="5.58" width="27.21" height="6.41" rx="2.18" ry="2.18" transform="translate(17.28 -46.94) rotate(30)"/><rect class="cls-1" x="-1.35" y="8.58" width="27.21" height="6.41" rx="2.18" ry="2.18" transform="translate(29 14.8) rotate(146.31)"/><path class="cls-2" d="M1,36.52S-4.47,5.46,36.74,4.6s44.62-.16,44.62-.16,29.75-3.18,30.32,33.17c.09,5.62.17,11.24.29,16.86.06,2.76.15,5.36.35,8.11a21.45,21.45,0,0,1-.88,8.5c-2.15,6.28-9.49,11.09-14.63,4.84-5.78-7-4.34-17.79-4.69-26.22-.2-4.77-9.79-4.91-12.91-4.88-3.83,0-9.82-.23-12.58,3a7.35,7.35,0,0,0-1.28,5.46c.41,4.34,1.43,8.61,1.87,13,.41,4.15.92,8.63-.17,12.72-1.6,6-8.5,10.14-14.34,7-5-2.65-5.55-8.88-5.45-14,.06-3.48.54-6.93.72-10.4.17-3.21,1.17-6.56.51-9.77-1.46-7.1-11.91-7-17.25-6.41-2.76.33-9.14,1.31-9.14,5.18,0,6.57-.57,19-.57,19.07C21.24,76,13,80.38,7.78,77.46S1.13,69.19,1.15,63.55c0-3,0-6,0-8.94s0-6-.05-9S1.52,39.34,1,36.52Z"/><circle class="cls-3" cx="56.89" cy="51.39" r="7.1"/><circle class="cls-3" cx="56.89" cy="51.39" r="3.38"/><circle class="cls-3" cx="56.89" cy="51.39" r="5.44"/><circle class="cls-4" cx="56.89" cy="51.39" r="1.69"/><circle class="cls-5" cx="56.89" cy="35.28" r="3.38"/><circle class="cls-6" cx="79.88" cy="28.01" r="3.52"/><circle class="cls-7" cx="86.03" cy="35.06" r="3.52"/><circle class="cls-8" cx="90.12" cy="22.74" r="2"/><circle class="cls-8" cx="98.11" cy="22.74" r="2"/><circle class="cls-8" cx="94.11" cy="26.49" r="2"/><circle class="cls-8" cx="94.11" cy="18.74" r="2"/><line class="cls-9" x1="20.95" y1="22.56" x2="20.95" y2="37.61"/><line class="cls-9" x1="13.59" y1="30.08" x2="28.73" y2="30.08"/><ellipse class="cls-10" cx="57.37" cy="13.23" rx="18.99" ry="3.45"/></g></g></svg>