<svg xmlns="http://www.w3.org/2000/svg" viewBox="0 0 298.12 181.7"><defs><style>.cls-1{fill:#2bb673;}.cls-2{fill:#808285;}.cls-3{fill:#39b54a;}.cls-4{fill:#8dc63f;}.cls-5{fill:#fff;}.cls-6{fill:#009444;}.cls-7{fill:#fcd3c9;}.cls-8{fill:#8b5e3c;}.cls-9{fill:#006838;}.cls-10{fill:#e6e7e8;}.cls-11{fill:#d1d3d4;}.cls-12{fill:#ed1c24;}.cls-13{fill:#be1e2d;}.cls-14{fill:#bc9e96;}.cls-15{fill:#754c29;}.cls-16{fill:#603913;}</style></defs><title>sleepyMountains</title><g id="Layer_2" data-name="Layer 2"><g id="zzzzzz"><path class="cls-1" d="M247,65.23c57.51,28.67,50.89,102,50.89,102a251.78,251.78,0,0,1-35.8,7.22h0c-50.71,0-74.95-19.27-85.9-42,29.71-5.68,51-16.11,46.53-31.67-4.05-14.16-6.48-30-10.24-44.68l.35.15a8.17,8.17,0,0,0,6.1-.11c1,.18,2,.38,3.09.59,2.23.46,4.39,1,6.49,1.54-1.71,1.44-6.36,7-6.74,24.57l4.64,1.63s3.6-20.9,7.49-19.92a6.91,6.91,0,0,0,3.2,1.8c3.34.86,3.87-1.31,9.29-1.16Zm7.6,35.21a38.44,38.44,0,0,1,4.62-1.61c-4-2.6-7.17-.78-9.22,1.45a11.86,11.86,0,0,1,3.26-6.59c-3,.44-5.29,4-6.69,7-.22-.35-.46-.7-.7-1,.32-.68.57-1.14.57-1.14a6.36,6.36,0,0,0-1.37.13c-.84-1-1.59-1.74-1.69-1.84a2.71,2.71,0,0,1-.19,2.46,13.45,13.45,0,0,0-2.37,1.4,22.89,22.89,0,0,0-4.8-6.12c1.4,1.58.66,5.12.09,7.1a12.68,12.68,0,0,0-4.65-.54c3.7.88,3.94,5.77,3.94,5.77.44,2.13,19.12,2.44,21.62-.69s.82-4.7.82-4.7c-.19,2.19-3.14,3.13-3.14,3.13-1-.66-.61-2.57-.1-4.15Zm-4.78-23.82,2.73-2.84-4.1-.26a.4.4,0,0,0-.41.37.38.38,0,0,0,.35.4l2.46.15-1.95,2a9.26,9.26,0,0,1-1.67-.5.38.38,0,0,0-.32.7,9.35,9.35,0,0,0,1.38.44l-.91.94a1,1,0,0,0-.23,1.07c.3.7,1.48,1,3.69,1h.55a.37.37,0,0,0,.38-.39.38.38,0,0,0-.39-.38c-3.15.08-3.49-.48-3.52-.54s.06-.21.08-.23l1.22-1.28a10.08,10.08,0,0,0,1.71.15,5.43,5.43,0,0,0,.57,0,.38.38,0,0,0,.36-.4.41.41,0,0,0-.41-.37A8.09,8.09,0,0,1,249.82,76.62ZM236.67,113.8a.38.38,0,0,0,.22-.5.37.37,0,0,0-.49-.22,6.79,6.79,0,0,1-2.14.54.61.61,0,0,1-.27,0,.2.2,0,0,1,0-.07l.51-1.12a6.59,6.59,0,0,0,1.55-.43.39.39,0,0,0,.21-.51.38.38,0,0,0-.51-.2,7.56,7.56,0,0,1-.85.27l1.19-2.6-3.09.87a.38.38,0,0,0,.21.74l1.49-.42-.72,1.58a6.19,6.19,0,0,1-1.18,0,.38.38,0,0,0-.42.35.39.39,0,0,0,.35.42h.39a4.54,4.54,0,0,0,.49,0l-.32.69a.84.84,0,0,0,.12.9,1.11,1.11,0,0,0,.86.3A7.4,7.4,0,0,0,236.67,113.8Zm-5.74-14.22a.39.39,0,0,0,.23-.49.4.4,0,0,0-.5-.23c-2.95,1.1-3.46.69-3.5.64s0-.22,0-.25l.74-1.6a9.65,9.65,0,0,0,2.19-.63.37.37,0,0,0,.2-.5.38.38,0,0,0-.5-.21,7.82,7.82,0,0,1-1.5.47l1.65-3.59-4,1.11a.39.39,0,0,0-.27.48.39.39,0,0,0,.48.26l2.37-.66-1.18,2.56a9.82,9.82,0,0,1-1.74.08.36.36,0,0,0-.42.34.38.38,0,0,0,.35.42h.54c.23,0,.53,0,.89,0l-.53,1.17a1,1,0,0,0,.14,1.09,1.38,1.38,0,0,0,1.07.36A10.17,10.17,0,0,0,230.93,99.58Zm-5.49,41.05c3.82-8.95,2.54-20.53-.91-21.42-3.21-.82-8.73,7.56-10.66,15.22-1.64,6.51-1.37,15.18,1.46,16.57a22.61,22.61,0,0,0-1,8.67l3.1-1.64s-.18-5.68,2.53-9A28.44,28.44,0,0,0,225.44,140.63Z"/><path class="cls-2" d="M279.4,33.7a.39.39,0,0,1-.24.5,14.19,14.19,0,0,1-4.28,1,1.88,1.88,0,0,1-1.45-.47,1.25,1.25,0,0,1-.13-1.32l.86-1.79.9-.09L274,33.73s-.14.31,0,.48,1,.64,4.9-.74A.38.38,0,0,1,279.4,33.7Z"/><path class="cls-2" d="M278.3,30.22a.39.39,0,0,1-.22.5,13.05,13.05,0,0,1-3,.8l.42-.86A12.33,12.33,0,0,0,277.8,30,.39.39,0,0,1,278.3,30.22Z"/><path class="cls-2" d="M277.78,25.87l-2.3,4.79c-.33.05-.64.1-.93.13L276.36,27l-3.5.92a.4.4,0,0,1-.47-.28.38.38,0,0,1,.28-.47Z"/><path class="cls-2" d="M275.48,30.66l-.42.86-.9.09.39-.82C274.84,30.76,275.15,30.71,275.48,30.66Z"/><path class="cls-2" d="M275.17,9.48l-3.26,4.2q-.48,0-.93-.06l2.56-3.3-3.61.15a.39.39,0,0,1,0-.77Z"/><path class="cls-2" d="M275.11,17.48a.39.39,0,0,1-.34.43,22.14,22.14,0,0,1-2.78.21c-1.62,0-2.58-.3-2.92-.91a1.22,1.22,0,0,1,.14-1.32l1.22-1.56.9.09-1.51,2s-.2.27-.08.47.82.83,4.94.31A.38.38,0,0,1,275.11,17.48Z"/><path class="cls-2" d="M274.76,13.84a.39.39,0,0,1-.32.45,12.79,12.79,0,0,1-2.09.17c-.36,0-.69,0-1,0l.58-.74a11.9,11.9,0,0,0,2.41-.16A.39.39,0,0,1,274.76,13.84Z"/><path class="cls-2" d="M274.55,30.79l-.39.82c-.46,0-.86.05-1.19.05-.56,0-.92,0-1,0a.38.38,0,0,1-.35-.42.4.4,0,0,1,.43-.35A13.12,13.12,0,0,0,274.55,30.79Z"/><path class="cls-2" d="M271.91,13.68l-.58.74-.9-.09.55-.71Q271.43,13.67,271.91,13.68Z"/><path class="cls-2" d="M271,13.62l-.55.71a12.7,12.7,0,0,1-2.11-.44.39.39,0,0,1-.25-.49.39.39,0,0,1,.49-.25A12.4,12.4,0,0,0,271,13.62Z"/><path class="cls-2" d="M265.85,27.48l-3.26,4.2q-.49,0-.93-.06l2.57-3.3-3.62.15a.38.38,0,0,1-.4-.36.39.39,0,0,1,.37-.4Z"/><path class="cls-2" d="M265.79,35.48a.39.39,0,0,1-.34.43,22.14,22.14,0,0,1-2.78.21c-1.62,0-2.58-.3-2.92-.9a1.2,1.2,0,0,1,.15-1.32l1.21-1.57c.29,0,.59.07.91.09l-1.51,1.95s-.2.27-.09.47.83.84,4.94.31A.38.38,0,0,1,265.79,35.48Z"/><path class="cls-2" d="M265.44,31.85a.38.38,0,0,1-.31.44,11.88,11.88,0,0,1-2.1.17c-.35,0-.69,0-1,0l.57-.74a11.23,11.23,0,0,0,2.41-.15A.38.38,0,0,1,265.44,31.85Z"/><path class="cls-2" d="M262.59,31.68l-.57.74c-.32,0-.62-.05-.91-.09l.55-.71Q262.09,31.67,262.59,31.68Z"/><path class="cls-2" d="M261.66,31.62l-.55.71a13.32,13.32,0,0,1-2.11-.44.39.39,0,0,1,.24-.74A12,12,0,0,0,261.66,31.62Z"/><path class="cls-3" d="M259.22,98.83a38.44,38.44,0,0,0-4.62,1.61,19.7,19.7,0,0,1,.92-2.3c-2.63.25-5.39,4.7-5.39,4.7a8.29,8.29,0,0,1-.13-2.56C252.05,98.05,255.2,96.23,259.22,98.83Z"/><path class="cls-4" d="M247.33,104.35a1.5,1.5,0,0,0,.11-.22A1.45,1.45,0,0,0,247.33,104.35Zm10.51-2.89s1.69,1.57-.82,4.7-21.18,2.82-21.62.69c0,0-.24-4.89-3.94-5.77a12.68,12.68,0,0,1,4.65.54,2.93,2.93,0,0,1,1.8,1.59,20.12,20.12,0,0,1,2.91-2.57,6.36,6.36,0,0,1,.54,1.63,17.09,17.09,0,0,0,1.83-3,8.46,8.46,0,0,1,1.88-.62c.26.31.53.65.8,1-.8,1.69-2.05,4.71-.88,5a31.69,31.69,0,0,1,1.58-4c.75,1.23,1.24,2.5.88,3.45a16.4,16.4,0,0,1,2.55-3.83,8.29,8.29,0,0,0,.13,2.56s2.76-4.45,5.39-4.7a19.7,19.7,0,0,0-.92,2.3h0c-.51,1.58-.87,3.49.1,4.15C254.7,104.59,257.65,103.65,257.84,101.46Z"/><path class="cls-5" d="M253.24,49.41c.72,4.26-1.71,9.42-4.53,9.64-3,.22-5.35-5.2-5.46-5.47-1.94-4.59-1.31-11.19,1.51-12.19S252.42,44.56,253.24,49.41Z"/><path class="cls-2" d="M252.55,73.78l-2.73,2.84a6.54,6.54,0,0,1-.92-.15l1.95-2-2.46-.15a.38.38,0,0,1-.35-.4.4.4,0,0,1,.41-.37Z"/><path class="cls-3" d="M253.26,93.69a11.86,11.86,0,0,0-3.26,6.59,16.4,16.4,0,0,0-2.55,3.83c.36-1-.13-2.22-.88-3.45C248,97.7,250.27,94.13,253.26,93.69Z"/><path class="cls-2" d="M251.8,77a.38.38,0,0,1-.36.4,5.43,5.43,0,0,1-.57,0,10.08,10.08,0,0,1-1.71-.15l.66-.69a8.09,8.09,0,0,0,1.57,0A.41.41,0,0,1,251.8,77Z"/><path class="cls-2" d="M251.77,79.74a.37.37,0,0,1-.38.39h-.55c-2.21,0-3.39-.32-3.69-1a1,1,0,0,1,.23-1.07l.91-.94c.26.07.55.14.87.2l-1.22,1.28s-.12.15-.08.23.37.62,3.52.54A.38.38,0,0,1,251.77,79.74Z"/><path class="cls-2" d="M249.82,76.62l-.66.69c-.32-.06-.61-.13-.87-.2l.61-.64A6.54,6.54,0,0,0,249.82,76.62Z"/><path class="cls-2" d="M248.9,76.47l-.61.64a9.35,9.35,0,0,1-1.38-.44.38.38,0,0,1,.32-.7A9.26,9.26,0,0,0,248.9,76.47Z"/><path class="cls-1" d="M247.44,104.13a1.5,1.5,0,0,1-.11.22A1.45,1.45,0,0,1,247.44,104.13Z"/><path class="cls-3" d="M245.07,98.62a6.36,6.36,0,0,1,1.37-.13s-.25.46-.57,1.14C245.6,99.27,245.33,98.93,245.07,98.62Z"/><path class="cls-3" d="M245.87,99.63c.24.33.48.68.7,1a31.69,31.69,0,0,0-1.58,4C243.82,104.34,245.07,101.32,245.87,99.63Z"/><path class="cls-3" d="M245.07,98.62a8.46,8.46,0,0,0-1.88.62,2.71,2.71,0,0,0,.19-2.46C243.48,96.88,244.23,97.62,245.07,98.62Z"/><path class="cls-3" d="M243.19,99.24a17.09,17.09,0,0,1-1.83,3,6.36,6.36,0,0,0-.54-1.63A13.45,13.45,0,0,1,243.19,99.24Z"/><path class="cls-5" d="M239.89,56.14c.09,1.56-.59,3.6-1.74,3.83-1.33.27-2.8-1.92-3.38-3.48-.75-2.06-.68-5,.47-5.46C236.58,50.49,239.7,53.14,239.89,56.14Z"/><path class="cls-3" d="M240.82,100.64a20.12,20.12,0,0,0-2.91,2.57,2.93,2.93,0,0,0-1.8-1.59c.57-2,1.31-5.52-.09-7.1A22.89,22.89,0,0,1,240.82,100.64Z"/><path class="cls-2" d="M236.89,113.3a.38.38,0,0,1-.22.5,7.4,7.4,0,0,1-2.39.59,1.11,1.11,0,0,1-.86-.3.84.84,0,0,1-.12-.9l.32-.69a5.25,5.25,0,0,0,.89-.11l-.51,1.12a.2.2,0,0,0,0,.07.61.61,0,0,0,.27,0,6.79,6.79,0,0,0,2.14-.54A.37.37,0,0,1,236.89,113.3Z"/><path class="cls-2" d="M236.27,111.45a.39.39,0,0,1-.21.51,6.59,6.59,0,0,1-1.55.43l.4-.87a7.56,7.56,0,0,0,.85-.27A.38.38,0,0,1,236.27,111.45Z"/><path class="cls-2" d="M236.1,108.92l-1.19,2.6a6.06,6.06,0,0,1-.92.17l.72-1.58-1.49.42a.38.38,0,0,1-.21-.74Z"/><path class="cls-2" d="M234.91,111.52l-.4.87a5.25,5.25,0,0,1-.89.11l.37-.81A6.06,6.06,0,0,0,234.91,111.52Z"/><path class="cls-2" d="M234,111.69l-.37.81a4.54,4.54,0,0,1-.49,0h-.39a.39.39,0,0,1-.35-.42.38.38,0,0,1,.42-.35A6.19,6.19,0,0,0,234,111.69Z"/><path class="cls-5" d="M231.76,37.79c1.38,1.85-1.06,7.1-5.12,9.06-3.85,1.86-9.21.78-9.87-1.4s3.33-5.06,5.47-6.27C225.26,37.47,230.38,36,231.76,37.79Z"/><path class="cls-6" d="M262.09,174.44c-44.11,5.62-83.1-1.21-110.3-10.26a138.44,138.44,0,0,0-15.9-27.08,304.6,304.6,0,0,0,40.3-4.64C187.14,155.17,211.38,174.41,262.09,174.44Z"/><path class="cls-2" d="M231.16,99.09a.39.39,0,0,1-.23.49,10.17,10.17,0,0,1-3.26.8,1.38,1.38,0,0,1-1.07-.36,1,1,0,0,1-.14-1.09l.53-1.17h0l.9-.11-.74,1.6s-.06.18,0,.25.55.46,3.5-.64A.4.4,0,0,1,231.16,99.09Z"/><path class="cls-2" d="M230.29,96.52a.37.37,0,0,1-.2.5,9.65,9.65,0,0,1-2.19.63l.39-.87a7.82,7.82,0,0,0,1.5-.47A.38.38,0,0,1,230.29,96.52Z"/><path class="cls-2" d="M229.94,93.19l-1.65,3.59a8.48,8.48,0,0,1-.92.16l1.18-2.56-2.37.66a.39.39,0,0,1-.48-.26.39.39,0,0,1,.27-.48Z"/><path class="cls-7" d="M229.79,58.64c-.42-.13-.84-.24-1.28-.36a3.84,3.84,0,0,1,.63-.44C229.37,58.1,229.59,58.37,229.79,58.64Z"/><path class="cls-2" d="M228.29,96.78l-.39.87-.9.11.37-.82A8.48,8.48,0,0,0,228.29,96.78Z"/><path class="cls-2" d="M227.37,96.94l-.37.82h0c-.36,0-.66,0-.89,0h-.54a.38.38,0,0,1-.35-.42.36.36,0,0,1,.42-.34A9.82,9.82,0,0,0,227.37,96.94Z"/><path class="cls-1" d="M222.72,100.79c4.45,15.56-16.82,26-46.53,31.67-15.64-32.42-4.18-71.9-4-72.64A83.24,83.24,0,0,1,210.56,55a10.49,10.49,0,0,0,1.92,1.13C216.24,70.77,218.67,86.63,222.72,100.79Zm-21.63-1.17a3.55,3.55,0,0,1,2.32-.32,7,7,0,0,0-1.82-.72c.54-1.06.95-1.8.95-1.8-.57-.11-1.22.62-1.86,1.71-2.41.06-3.22,2.83-3.46,5.16a6.71,6.71,0,0,1,.1,1.89,12.24,12.24,0,0,1-.16,1.25,17.94,17.94,0,0,1,0-2,20,20,0,0,1-.28-2.31,4.49,4.49,0,0,0-.44-.71c-1.72-2.27-5.2-2-5.2-2l-.83,1.14a6.13,6.13,0,0,0-.29.75,11.58,11.58,0,0,0,0,5.09.1.1,0,0,1,0,0l-.15,0a7.68,7.68,0,0,1-2.23-2.41,27.38,27.38,0,0,1,.64-2.75c.2-.74.37-1.26.37-1.26-.55-.18-1.22,1.29-1.78,2.91-.95-1.45-1.73-2.79-1.73-2.79a10.34,10.34,0,0,0-.88,2.92c-1.22-1.88-2.73-3.79-3-4.08a18.51,18.51,0,0,1-.51,4.19c-1.64-1.55-3.5-3.06-4.06-3.53a1,1,0,0,1,.19.22c.81,1.17.92,4.24.93,4.77-.18-.77-2.85-2.35-3-2.45a6.16,6.16,0,0,1,1.59,3.06c.06.27.11.55.15.82a11.69,11.69,0,0,1,0,3.27c8,2.4,25.08-2.79,23-3.42C198.37,105.88,199.81,102.28,201.09,99.62Z"/><path class="cls-8" d="M215.33,151l4.62-2c-1.57,1.57-3.13,2.47-4.35,2.09Z"/><path class="cls-1" d="M142.16,55.71l2.41-2.11-3.45-.52a.39.39,0,0,0-.44.33.38.38,0,0,0,.32.43l1.8.27-1.55,1.37A7.37,7.37,0,0,1,140,55a.39.39,0,0,0-.38.68,10,10,0,0,0,1,.42l-.69.6a.86.86,0,0,0-.28.93c.22.66,1.27,1,3.4,1.16h0a.38.38,0,0,0,.38-.36.39.39,0,0,0-.36-.41c-2.54-.16-2.73-.63-2.73-.64a.22.22,0,0,1,.06-.1l1.05-.92a8,8,0,0,0,1.8.27h0a.38.38,0,0,0,.39-.38.39.39,0,0,0-.37-.4A6.31,6.31,0,0,1,142.16,55.71Z"/><path class="cls-3" d="M203.41,99.3a3.55,3.55,0,0,0-2.32.32c.17-.37.34-.72.5-1A7,7,0,0,1,203.41,99.3Z"/><path class="cls-4" d="M200.68,98.49c.64-1.09,1.29-1.82,1.86-1.71,0,0-.41.74-.95,1.8A3.74,3.74,0,0,0,200.68,98.49Z"/><path class="cls-4" d="M185.84,107a.1.1,0,0,0,0-.07A.25.25,0,0,0,185.84,107Zm15.75-8.37c-.16.32-.33.67-.5,1-1.28,2.66-2.72,6.26-1.46,6.66,2,.63-15,5.82-23,3.42a11.69,11.69,0,0,0,0-3.27c0-.27-.09-.55-.15-.82,1.53.88,3.14,1.92,3.45,2.58l-.11.49c.19-.11.21-.28.11-.49.19-.88.58-2.81.93-4.65,1.51,1.45,2.85,2.93,2.85,3.65.07-.51.31-2.19.62-3.76.9,1.39,1.63,2.75,1.56,3.42.13-.53.54-2.09,1-3.55.25.36.5.74.77,1.1-.23,1.27-.27,2.38.22,2.51l2-.1.15,0a.1.1,0,0,0,0,0h0l1.9-.1,3.23-.17a10.16,10.16,0,0,0-.09-1.17,24.2,24.2,0,0,0,1.31-3.54,4.49,4.49,0,0,1,.44.71,20,20,0,0,0,.28,2.31,17.94,17.94,0,0,0,0,2,12.24,12.24,0,0,0,.16-1.25c.1.27.21.42.34.42a45.32,45.32,0,0,1,3-7.47A3.74,3.74,0,0,1,201.59,98.58Z"/><path class="cls-3" d="M200.68,98.49a45.32,45.32,0,0,0-3,7.47c-.13,0-.24-.15-.34-.42a6.71,6.71,0,0,0-.1-1.89C197.46,101.32,198.27,98.55,200.68,98.49Z"/><path class="cls-4" d="M196.41,101.82a24.2,24.2,0,0,1-1.31,3.54,10.4,10.4,0,0,0-.61-2.45c.08-.82.2-1.51.2-1.51a8.52,8.52,0,0,0-.57.72,4.3,4.3,0,0,0-2.91-2.3S194.69,99.55,196.41,101.82Z"/><path class="cls-3" d="M195.19,106.53l-3.23.17-1.9.1h0a11.58,11.58,0,0,1,0-5.09,6.13,6.13,0,0,1,.29-.75s.57,4.18,2.53,4.87a6.53,6.53,0,0,1,1.21-3.71,8.08,8.08,0,0,1,.37.79c-.15,1.39-.22,3.2.45,2.8l.16-.35A10.16,10.16,0,0,1,195.19,106.53Z"/><path class="cls-1" d="M195.1,105.36l-.16.35c-.67.4-.6-1.41-.45-2.8A10.4,10.4,0,0,1,195.1,105.36Z"/><path class="cls-3" d="M194.69,101.4s-.12.69-.2,1.51a8.08,8.08,0,0,0-.37-.79A8.52,8.52,0,0,1,194.69,101.4Z"/><path class="cls-1" d="M194.12,102.12a6.53,6.53,0,0,0-1.21,3.71c-2-.69-2.53-4.87-2.53-4.87l.83-1.14A4.3,4.3,0,0,1,194.12,102.12Z"/><path class="cls-3" d="M189.92,106.81l-2,.1c-.49-.13-.45-1.24-.22-2.51A7.68,7.68,0,0,0,189.92,106.81Z"/><path class="cls-4" d="M186.92,103.3c.56-1.62,1.23-3.09,1.78-2.91,0,0-.17.52-.37,1.26a27.38,27.38,0,0,0-.64,2.75C187.42,104,187.17,103.66,186.92,103.3Z"/><path class="cls-3" d="M186.92,103.3c-.51,1.46-.92,3-1,3.55.07-.67-.66-2-1.56-3.42a10.34,10.34,0,0,1,.88-2.92S186,101.85,186.92,103.3Z"/><path class="cls-1" d="M185.84,107a.25.25,0,0,1,0-.07A.1.1,0,0,1,185.84,107Z"/><path class="cls-3" d="M184.31,103.43c-.31,1.57-.55,3.25-.62,3.76,0-.72-1.34-2.2-2.85-3.65a18.51,18.51,0,0,0,.51-4.19C181.58,99.64,183.09,101.55,184.31,103.43Z"/><path class="cls-3" d="M182.76,46.64a2.37,2.37,0,0,1,1.07,1.7A6.12,6.12,0,0,1,182.76,46.64Z"/><path class="cls-3" d="M181.55,39.92a24.85,24.85,0,0,1-.11,6.15,6.83,6.83,0,0,0-1.72-.22c.87,1.41-2.05,3-2.05,3-.93-.2-1.06-1.26-.79-2.63C179.25,44.3,181.51,42,181.55,39.92Z"/><path class="cls-3" d="M180.84,103.54c-.35,1.84-.74,3.77-.93,4.65-.31-.66-1.92-1.7-3.45-2.58a6.16,6.16,0,0,0-1.59-3.06c.18.1,2.85,1.68,3,2.45,0-.53-.12-3.6-.93-4.77a1,1,0,0,0-.19-.22C177.34,100.48,179.2,102,180.84,103.54Z"/><path class="cls-1" d="M179.91,108.19c.1.21.08.38-.11.49Z"/><path class="cls-3" d="M173,48.93l0,0c-1,.61-1.6,1-1.6,1-.48,0-.75-.54-.89-1.36a16.74,16.74,0,0,1,0-3.85A9.78,9.78,0,0,1,173,48.4,3.77,3.77,0,0,0,173,48.93Z"/><path class="cls-1" d="M173,48.4a1.39,1.39,0,0,1,0,.53A3.77,3.77,0,0,1,173,48.4Z"/><path class="cls-6" d="M172.21,59.82c-.2.74-11.66,40.22,4,72.64a304.6,304.6,0,0,1-40.3,4.64,103,103,0,0,0-18.42-19,125.23,125.23,0,0,1,11.78-22.31A110.93,110.93,0,0,1,140,82.19c0,.41.05.83.09,1.24L149.72,75a10.23,10.23,0,0,0,.64-2.5A81.77,81.77,0,0,1,172.21,59.82Z"/><path class="cls-1" d="M155.59,174.22c.83,3.18-19,6.3-45,7.22-16.56-1.7-28.17-6.8-36.18-13.7.66-5.86-1.11-13.77-6.08-16.33a7.47,7.47,0,0,0-6-.53A58,58,0,0,1,58.23,132a205.59,205.59,0,0,0,32.88,4.75,19.47,19.47,0,0,1,.59,4.85c-.45-1-2.44-2.17-3.5-2.76,1,1,.85,3.82.85,3.82a26.14,26.14,0,0,0,7.69,1.94,85.29,85.29,0,0,0,13.38.59c-.49-.08.16-4.06.56-3.62s.66-1.16.86-2.11h.18a9.22,9.22,0,0,0,.16,2.69c1.15,4.43,16,14.1,39.91,22.07A78,78,0,0,1,155.59,174.22Z"/><path class="cls-2" d="M150.32,47.06a.38.38,0,0,1-.23.49,8.49,8.49,0,0,1-2.63.63,1.24,1.24,0,0,1-1-.32.94.94,0,0,1-.12-1l.4-.84a5.07,5.07,0,0,0,.9-.09l-.59,1.26s0,.1,0,.11.36.37,2.75-.5A.38.38,0,0,1,150.32,47.06Z"/><path class="cls-6" d="M150.36,72.45a10.23,10.23,0,0,1-.64,2.5L140,83.43c0-.41-.07-.83-.09-1.24A94.66,94.66,0,0,1,150.36,72.45Z"/><path class="cls-2" d="M149.65,45a.4.4,0,0,1-.21.5,8.71,8.71,0,0,1-1.75.48l.4-.87a6.58,6.58,0,0,0,1-.32A.39.39,0,0,1,149.65,45Z"/><path class="cls-2" d="M148.09,45.09l-.4.87a5.07,5.07,0,0,1-.9.09l.38-.8A5.56,5.56,0,0,0,148.09,45.09Z"/><path class="cls-2" d="M147.17,45.25l-.38.8-.54,0c-.3,0-.49,0-.51,0a.38.38,0,0,1-.35-.42.39.39,0,0,1,.42-.35A5.79,5.79,0,0,0,147.17,45.25Z"/><path class="cls-1" d="M135.89,137.1a138.44,138.44,0,0,1,15.9,27.08c-23.94-8-38.76-17.64-39.91-22.07a9.22,9.22,0,0,1-.16-2.69c0-.56.09-1.18.16-1.85C119.8,137.67,127.88,137.51,135.89,137.1Z"/><path class="cls-2" d="M144.57,53.6l-2.41,2.11c-.33-.07-.64-.15-.91-.23l1.55-1.37-1.8-.27a.38.38,0,0,1-.32-.43.39.39,0,0,1,.44-.33Z"/><path class="cls-2" d="M143.26,55.82a.39.39,0,0,1,.37.4.38.38,0,0,1-.39.38h0a8,8,0,0,1-1.8-.27l.72-.62A6.31,6.31,0,0,0,143.26,55.82Z"/><path class="cls-2" d="M143.06,58a.39.39,0,0,1,.36.41.38.38,0,0,1-.38.36h0c-2.13-.14-3.18-.5-3.4-1.16a.86.86,0,0,1,.28-.93l.69-.6c.25.09.54.18.86.26l-1.05.92a.22.22,0,0,0-.06.1S140.52,57.83,143.06,58Z"/><path class="cls-2" d="M142.16,55.71l-.72.62c-.32-.08-.61-.17-.86-.26l.67-.59C141.52,55.56,141.83,55.64,142.16,55.71Z"/><path class="cls-2" d="M141.25,55.48l-.67.59a10,10,0,0,1-1-.42A.39.39,0,0,1,140,55,7.37,7.37,0,0,0,141.25,55.48Z"/><path class="cls-1" d="M117.47,118.12a103,103,0,0,1,18.42,19c-8,.41-16.09.57-24,.47A82.06,82.06,0,0,1,117.47,118.12Z"/><path class="cls-4" d="M116.77,55.45a3.92,3.92,0,0,0,.66-3C117,54,116.77,55.45,116.77,55.45Z"/><path class="cls-3" d="M117.43,52.43a3.92,3.92,0,0,1-.66,3S117,54,117.43,52.43Z"/><path class="cls-1" d="M117.47,118.12a82.06,82.06,0,0,0-5.59,19.45c-1.68,0-3.36,0-5-.1a15.14,15.14,0,0,0,.21-2.22c0-1.37,2-3.5,2-3.5-2.61,1.37-2.69,2-3.9,4.78a6.74,6.74,0,0,1-.45.89l-1.74-.06c-.09-1.34-.18-2.35-.18-2.35s-1.06-1.6-.23-.16c.23.43-.1,1.35-.69,2.47l-.88,0a9.3,9.3,0,0,0-1.58-2.47,4.1,4.1,0,0,1-.54,2.37c-1,0-2-.1-3-.16-1.39-.08-2.78-.17-4.16-.27-.41-.45-.8-.86-1.13-1.21a6.1,6.1,0,0,1,.46,1.16A205.59,205.59,0,0,1,58.23,132a79,79,0,0,1,.61-14.88,6.15,6.15,0,0,0,5.77.4c1.93-.85,1.63-2.06,4.06-4a15.88,15.88,0,0,1,6.3-3c.23-.06.45-.1.65-.14,0,0,6.53,2.17,6,8.48l5.07-.37S88,110,82.29,107.67A10.5,10.5,0,0,1,84,105.73a11.62,11.62,0,0,1,2.47-1.81l.29-.15A71.92,71.92,0,0,1,117.47,118.12Z"/><path class="cls-1" d="M111.88,137.57c-.07.67-.13,1.29-.16,1.85h-.18c-.39.92-1.38,1.22-2.43,1.55s-1.67,1.62-2,2.29c-.86-1.63.84-4.4.84-4.4-.38-.07-1,.36-1.66,1a13.19,13.19,0,0,0,.55-2.37C108.52,137.52,110.2,137.55,111.88,137.57Z"/><path class="cls-4" d="M111.54,139.41c-.2,1-.58,2.42-.86,2.11s-1.05,3.54-.56,3.62a85.29,85.29,0,0,1-13.38-.59l.05-.43a6,6,0,0,0,.68-.27,65.26,65.26,0,0,0,3.9-5.55,4.34,4.34,0,0,1-.06,2.34c-.92,2.89,0,.36,0,.36a10.76,10.76,0,0,0,1.82-1.48c.07,1.9.06,3.79-.25,4.3a37.76,37.76,0,0,1,3.42-4,3.06,3.06,0,0,1-1.33,1.89s1-.09,2,1.92c0,0,.06-.16.17-.4.32-.67,1-2,2-2.29S111.15,140.33,111.54,139.41Z"/><path class="cls-3" d="M109.11,131.75s-2,2.13-2,3.5a15.14,15.14,0,0,1-.21,2.22l-2.09-.05a6.74,6.74,0,0,0,.45-.89C106.42,133.72,106.5,133.12,109.11,131.75Z"/><path class="cls-3" d="M106.3,139.84c.67-.63,1.28-1.06,1.66-1,0,0-1.7,2.77-.84,4.4-.11.24-.17.4-.17.4-1-2-2-1.92-2-1.92A3.06,3.06,0,0,0,106.3,139.84Z"/><path class="cls-3" d="M106.85,137.47a13.19,13.19,0,0,1-.55,2.37,37.76,37.76,0,0,0-3.42,4c.31-.51.32-2.4.25-4.3a10,10,0,0,0,1.63-2.1Z"/><path class="cls-1" d="M103,137.36l1.74.06a10,10,0,0,1-1.63,2.1C103.11,138.77,103.06,138,103,137.36Z"/><path class="cls-3" d="M103,137.36c0,.66.09,1.41.11,2.16a10.76,10.76,0,0,1-1.82,1.48s-.92,2.53,0-.36a4.34,4.34,0,0,0,.06-2.34c.2-.34.38-.66.55-1Z"/><path class="cls-3" d="M102.84,135s.09,1,.18,2.35l-1.1,0c.59-1.12.92-2,.69-2.47C101.78,133.41,102.84,135,102.84,135Z"/><path class="cls-1" d="M101,137.28l.88,0c-.17.32-.35.64-.55,1A7.61,7.61,0,0,0,101,137.28Z"/><path class="cls-3" d="M101,137.28a7.61,7.61,0,0,1,.33,1,65.26,65.26,0,0,1-3.9,5.55,6,6,0,0,1-.68.27,2.65,2.65,0,0,1,.42-.27c.5-.28.19-2.26-.26-4a12.08,12.08,0,0,0,2-2.66Z"/><path class="cls-3" d="M101,137.28l-2.12-.1a4.1,4.1,0,0,0,.54-2.37A9.3,9.3,0,0,1,101,137.28Z"/><path class="cls-6" d="M110.61,181.44c-11.22.38-23.6.37-35.95-.24l2-1.18s-.31-8.77-2.57-10.17a18.53,18.53,0,0,0,.36-2.11C82.44,174.64,94.05,179.74,110.61,181.44Z"/><path class="cls-4" d="M95,141.72a19.24,19.24,0,0,0,2-1.88c.45,1.75.76,3.73.26,4a2.65,2.65,0,0,0-.42.27l-.05.43a26.14,26.14,0,0,1-7.69-1.94s.17-2.79-.85-3.82c1.06.59,3,1.8,3.5,2.76v.69a.66.66,0,0,0,0-.69,19.47,19.47,0,0,0-.59-4.85c.23,0,.45,0,.67.05a22.44,22.44,0,0,1,3,3.9C95.07,141.14,95.15,141.53,95,141.72Z"/><path class="cls-1" d="M98.92,137.18a12.08,12.08,0,0,1-2,2.66,8.5,8.5,0,0,0-1-2.76V137C96.93,137.08,97.92,137.14,98.92,137.18Z"/><path class="cls-3" d="M95.94,137.08a8.5,8.5,0,0,1,1,2.76,19.24,19.24,0,0,1-2,1.88c.19-.19.11-.58-.14-1.07a4.89,4.89,0,0,0,1.11-2.78,1.14,1.14,0,0,0,0-.27C95.87,137.24,95.89,137.08,95.94,137.08Z"/><path class="cls-1" d="M95.94,137v.06s-.07.16,0,.52a1.14,1.14,0,0,1,0,.27,4.89,4.89,0,0,1-1.11,2.78,22.44,22.44,0,0,0-3-3.9C93.16,136.85,94.55,136.94,95.94,137Z"/><path class="cls-1" d="M91.7,141.55a.66.66,0,0,1,0,.69Z"/><path class="cls-3" d="M91.55,51.56a2,2,0,0,1-.08,2S91.54,52.74,91.55,51.56Z"/><path class="cls-4" d="M91.78,136.75c-.22,0-.44,0-.67-.05a6.1,6.1,0,0,0-.46-1.16C91,135.89,91.37,136.3,91.78,136.75Z"/><path class="cls-5" d="M82.23,96.63c.31,2.24-.64,4.12-2.11,4.68a3.21,3.21,0,0,1-1.36.17,1.63,1.63,0,0,1-.82-.31c-1.06-.83-1.06-3.26.57-5.85A15.48,15.48,0,0,0,82.23,96.63Z"/><path class="cls-5" d="M82,108.05a4.51,4.51,0,0,1-1.11,1.23c-1.45,1.09-2.32.48-4.8.86-.48-3.81.83-6.54,2.12-6.73h.14C79.56,103.4,81.17,105.27,82,108.05Z"/><path class="cls-8" d="M74.66,181.2l-1.13,0c0-.24,0,.23,0,0Z"/><path class="cls-6" d="M43.73,138.11c-.12.32-.26.65-.41,1a26.67,26.67,0,0,1-1.92,3.33c-1.58-1.58-.16-4.8-.16-4.8-.4-.27-1.2,1-2,2.58a42.59,42.59,0,0,0-3.4-5c.67,1.07.64,5.47.58,7.75a25.35,25.35,0,0,0-3-3.24,2.54,2.54,0,0,1,.32,1.8,7.89,7.89,0,0,0-1.43-.64c.88.83,0,4.28,0,4.28l4.79.55,5.87.68,10.52-1.46c-1.77-1,2.09-6.21,2.09-6.21-1.34-.55-3.51,1.9-4.82,3.63-.71-1.7,1.07-3.83,1.07-3.83a3.33,3.33,0,0,0-2.58.84,24.75,24.75,0,0,0-3.47-4.59c.5,1.07.8,5,.93,7.41a44.47,44.47,0,0,0-2.7-6.57,3.78,3.78,0,0,1-.27,2.55Zm27.63,36.21a14.33,14.33,0,0,1,2.17,6.83c-31-1.62-61.69-7-73.53-18.82,0,0,9.22-26,30.57-43.74a.38.38,0,0,0,.5.16l1.93-1-.6,2.38a8.31,8.31,0,0,1-1.52.34.38.38,0,0,0-.34.42.39.39,0,0,0,.38.35h0a10.44,10.44,0,0,0,1.22-.24l-.27,1.07a.94.94,0,0,0,.31,1,1,1,0,0,0,.66.2,7.29,7.29,0,0,0,3.17-1.3.32.32,0,0,0,.17-.21c3.7,4.21,11.54,7.61,22,10.16a58,58,0,0,0,4.1,18.93,3.63,3.63,0,0,0-.73.38c-4.45,2.94-3.94,14.38,2.24,20.05C64.38,171.81,68.58,175.68,71.36,174.32ZM31.44,135.21a.38.38,0,0,0,0-.55.4.4,0,0,0-.54,0c-2.27,2.2-2.9,2-3,2s-.1-.19-.1-.22l0-1.78a10.7,10.7,0,0,0,1.76-1.45.39.39,0,0,0,0-.55.37.37,0,0,0-.54,0,9.49,9.49,0,0,1-1.2,1l.07-4-3.2,2.61a.37.37,0,0,0-.05.54.38.38,0,0,0,.54.06l1.91-1.56-.05,2.83a10.35,10.35,0,0,1-1.58.77.37.37,0,0,0-.24.48.39.39,0,0,0,.37.26.27.27,0,0,0,.12,0,10.37,10.37,0,0,0,1.32-.59l0,1.29a1,1,0,0,0,.56,1,.93.93,0,0,0,.39.08C28.79,137.44,29.9,136.71,31.44,135.21Z"/><path class="cls-5" d="M66.71,106.89c.54.53-.27,2.39-1.31,3.56-1.28,1.44-3.41,2.38-4,1.81s.27-2.26,1.16-3.34C63.87,107.35,66.12,106.32,66.71,106.89Z"/><path class="cls-1" d="M64.75,97.55l-.24.17A1.21,1.21,0,0,1,64.75,97.55Z"/><path class="cls-6" d="M61.3,103.69a13.86,13.86,0,0,1-1.84,3.13c-1.66,2.17-2.68,2.47-3,4.2a6,6,0,0,0,2.17,5.87,2,2,0,0,0,.25.18A79,79,0,0,0,58.23,132c-10.47-2.55-18.31-5.95-22-10.16a.38.38,0,0,0,0-.31.36.36,0,0,0-.37-.19,9.87,9.87,0,0,1-.94-1.41h0a.39.39,0,0,0,.11-.53.38.38,0,0,0-.47-.15,7.18,7.18,0,0,1-.58-2l.21-.82-.28.14a4.61,4.61,0,0,1,0-.53A66.77,66.77,0,0,1,61.3,103.69Z"/><path class="cls-4" d="M50.75,142.3c1.31-1.73,3.48-4.18,4.82-3.63,0,0-3.86,5.22-2.09,6.21L43,146.34l-5.87-.68.11-.92c.18-.45,1.1-2.7,2-4.55.79,1.42,1.34,2.81,1.15,3.63.07-.1.48-.64,1-1.41a2.86,2.86,0,0,0,1.56.75,15.82,15.82,0,0,0,.36-4.08c.15-.32.29-.65.41-1,1.21,1.54,2.86,3.95,2.38,5a10.76,10.76,0,0,1,.6-1c.07,1.19.1,2,.1,2a2.94,2.94,0,0,0-.09-2,12.12,12.12,0,0,1,2.52-2.85c.8,1.44,1.27,2.93.74,4C50.18,143.07,50.44,142.71,50.75,142.3Zm-1.12,1.57a2,2,0,0,0,.32-.47C49.77,143.65,49.67,143.82,49.63,143.87Z"/><path class="cls-3" d="M49.24,139.31a3.33,3.33,0,0,1,2.58-.84S50,140.6,50.75,142.3c-.31.41-.57.77-.77,1C50.51,142.24,50,140.75,49.24,139.31Z"/><path class="cls-1" d="M50,143.4a2,2,0,0,1-.32.47C49.67,143.82,49.77,143.65,50,143.4Z"/><path class="cls-3" d="M45.77,134.72a24.75,24.75,0,0,1,3.47,4.59,12.12,12.12,0,0,0-2.52,2.85l0,0C46.57,139.68,46.27,135.79,45.77,134.72Z"/><path class="cls-1" d="M46.72,142.16a2.94,2.94,0,0,1,.09,2s0-.84-.1-2a.06.06,0,0,0,0,0Z"/><path class="cls-3" d="M46.7,142.13a.06.06,0,0,1,0,0,10.76,10.76,0,0,0-.6,1c.48-1.08-1.17-3.49-2.38-5h0a3.78,3.78,0,0,0,.27-2.55A44.47,44.47,0,0,1,46.7,142.13Z"/><path class="cls-3" d="M43.32,139.08a15.82,15.82,0,0,1-.36,4.08,2.86,2.86,0,0,1-1.56-.75A26.67,26.67,0,0,0,43.32,139.08Z"/><path class="cls-3" d="M39.25,140.19c.79-1.56,1.59-2.85,2-2.58,0,0-1.42,3.22.16,4.8-.52.77-.93,1.31-1,1.41C40.59,143,40,141.61,39.25,140.19Z"/><path class="cls-3" d="M39.25,140.19c-1,1.85-1.87,4.1-2,4.55a2.85,2.85,0,0,0-.77-1.83c.06-2.28.09-6.68-.58-7.75A42.59,42.59,0,0,1,39.25,140.19Z"/><path class="cls-4" d="M36.43,142.91a2.85,2.85,0,0,1,.77,1.83l-.11.92-4.79-.55s.89-3.45,0-4.28a7.89,7.89,0,0,1,1.43.64,5.4,5.4,0,0,1,2.64,2.83S36.41,143.75,36.43,142.91Z"/><path class="cls-3" d="M36.43,142.91c0,.84,0,1.39,0,1.39a5.4,5.4,0,0,0-2.64-2.83,2.54,2.54,0,0,0-.32-1.8A25.35,25.35,0,0,1,36.43,142.91Z"/><path class="cls-2" d="M36.18,121.48a.38.38,0,0,1,0,.31c-.14-.16-.28-.33-.41-.5A.36.36,0,0,1,36.18,121.48Z"/><path class="cls-2" d="M36.22,121.79a.32.32,0,0,1-.17.21,7.29,7.29,0,0,1-3.17,1.3,1,1,0,0,1-.66-.2.94.94,0,0,1-.31-1l.27-1.07q.41-.1.87-.27l-.39,1.53a.28.28,0,0,0,0,.18s.51.33,3-1.15a.27.27,0,0,1,.15,0C35.94,121.46,36.08,121.63,36.22,121.79Z"/><path class="cls-6" d="M35.81,121.29a.27.27,0,0,0-.15,0c-2.47,1.48-2.95,1.16-3,1.15a.28.28,0,0,1,0-.18l.39-1.53a9,9,0,0,0,1.82-.9A9.87,9.87,0,0,0,35.81,121.29Z"/><path class="cls-9" d="M35,119.34a.39.39,0,0,1-.11.53h0a7.33,7.33,0,0,1-.34-.69A.38.38,0,0,1,35,119.34Z"/><path class="cls-2" d="M34.53,119.19a7.33,7.33,0,0,0,.34.69,9,9,0,0,1-1.82.9l.23-.93a6.77,6.77,0,0,0,1.18-.63Z"/><path class="cls-6" d="M34.53,119.19l-.07,0a6.77,6.77,0,0,1-1.18.63L34,117.2A7.18,7.18,0,0,0,34.53,119.19Z"/><path class="cls-2" d="M34.16,116.38l-.21.82a5.05,5.05,0,0,1-.07-.68Z"/><path class="cls-2" d="M34,117.2l-.67,2.65c-.31.13-.6.24-.88.33l.6-2.38-1.93,1a.38.38,0,0,1-.5-.16q.69-.59,1.41-1.14l1.9-.93A5.05,5.05,0,0,0,34,117.2Z"/><path class="cls-1" d="M33.86,116a4.61,4.61,0,0,0,0,.53l-1.9.93C32.59,117,33.22,116.47,33.86,116Z"/><path class="cls-2" d="M33.28,119.85l-.23.93q-.46.16-.87.27l.22-.87C32.68,120.09,33,120,33.28,119.85Z"/><path class="cls-2" d="M32.4,120.18l-.22.87a10.44,10.44,0,0,1-1.22.24h0a.39.39,0,0,1-.38-.35.38.38,0,0,1,.34-.42A8.31,8.31,0,0,0,32.4,120.18Z"/><path class="cls-2" d="M30.74,118.06l1.24-.61q-.72.55-1.41,1.14s0,0,0,0A.38.38,0,0,1,30.74,118.06Z"/><path class="cls-2" d="M31.45,134.66a.38.38,0,0,1,0,.55c-1.54,1.5-2.65,2.23-3.41,2.23a.93.93,0,0,1-.39-.08,1,1,0,0,1-.56-1l0-1.29.78-.47,0,1.78s0,.19.1.22.69.2,3-2A.4.4,0,0,1,31.45,134.66Z"/><path class="cls-2" d="M29.63,132.65a.39.39,0,0,1,0,.55,10.7,10.7,0,0,1-1.76,1.45v-.94a9.49,9.49,0,0,0,1.2-1A.37.37,0,0,1,29.63,132.65Z"/><path class="cls-2" d="M28,129.74l-.07,4q-.41.28-.78.51l.05-2.83L25.25,133a.38.38,0,0,1-.54-.06.37.37,0,0,1,.05-.54Z"/><path class="cls-2" d="M27.89,133.71v.94l-.78.47v-.9Q27.49,134,27.89,133.71Z"/><path class="cls-2" d="M27.11,134.22v.9a10.37,10.37,0,0,1-1.32.59.27.27,0,0,1-.12,0,.39.39,0,0,1-.37-.26.37.37,0,0,1,.24-.48A10.35,10.35,0,0,0,27.11,134.22Z"/><path class="cls-2" d="M23.31,114a.39.39,0,0,1-.12.53,7.78,7.78,0,0,1-3.53,1.56,1.22,1.22,0,0,1-.66-.18,1,1,0,0,1-.36-1l.28-1.28c.26-.08.54-.18.85-.31l-.38,1.75s0,.2.06.26.64.34,3.33-1.4A.39.39,0,0,1,23.31,114Z"/><path class="cls-2" d="M21.9,111.68a.39.39,0,0,1-.09.54,9.88,9.88,0,0,1-2,1.08l.2-.92a8.92,8.92,0,0,0,1.39-.79A.39.39,0,0,1,21.9,111.68Z"/><path class="cls-2" d="M20.82,108.47,20,112.38c-.3.14-.58.25-.86.35l.61-2.8-2.21,1.18a.39.39,0,0,1-.36-.69Z"/><path class="cls-2" d="M20,112.38l-.2.92c-.31.13-.59.23-.85.31l.19-.88C19.39,112.63,19.67,112.52,20,112.38Z"/><path class="cls-2" d="M19.11,112.73l-.19.88a9.54,9.54,0,0,1-1.43.33h0a.38.38,0,0,1-.05-.76A11,11,0,0,0,19.11,112.73Z"/><g id="_Group_" data-name="&lt;Group&gt;"><path class="cls-1" d="M206.54,39.88a10.09,10.09,0,0,0-1.26,3.95A12.64,12.64,0,0,0,210.56,55a83.24,83.24,0,0,0-38.35,4.84,81.77,81.77,0,0,0-21.85,12.63,6.61,6.61,0,0,0-1.78-5.79A5.14,5.14,0,0,0,144,65.32c-3.25,1-4.65,7.79-4,16.87a110.93,110.93,0,0,0-10.7,13.62C95.5,89.49,87.35,73.5,87.47,59.34c7.32,3.13,36.76-1.86,33.4-4.14-3.66-2.48-.69-7.2-.69-7.2-1.11-.89-2.12,2-2.75,4.42a18.72,18.72,0,0,0-2.94-6.86c1.47,3.55-.39,8.52-.39,8.52-.27-.2-.54-.41-.78-.62.74-3-.92-8.28-1.35-9.57.42,1.62-.44,3.28-1.76,4.76a9.54,9.54,0,0,1-.38-3.44A9.61,9.61,0,0,1,106,51.29c-2.29-6,1.3-14.94,1.3-14.94-5.33.06-9.23,13.2-9.23,13.2a3.8,3.8,0,0,1-1.61-.91c1.13-3.62,2.74-7.34,2.84-7.57a8.82,8.82,0,0,0-4.52,6.06c-1.35-1.31-2.81-2.92-3.9-4.19a53.76,53.76,0,0,1,4.49-9.15,40.71,40.71,0,0,0,12.54.14s9.94,5.92,21.36,6.31c8.51.27,17.84-2.52,24.5-13.14a22.75,22.75,0,0,0,2.62,0l-.24.44a10.66,10.66,0,0,1-2.22-.08.39.39,0,1,0-.13.76,11.47,11.47,0,0,0,1.69.11h.22l-.84,1.53a1.17,1.17,0,0,0,0,1.26,1.9,1.9,0,0,0,1.58.53,14.64,14.64,0,0,0,3.7-.68.39.39,0,0,0,.27-.48.39.39,0,0,0-.48-.26c-3.71,1.06-4.37.53-4.46.41s0-.4,0-.4l1.08-2a12.31,12.31,0,0,0,2.79-.54.39.39,0,0,0,.23-.5.37.37,0,0,0-.48-.24,11.59,11.59,0,0,1-2.08.47l.22-.4C163,26.75,173.52,24.3,171.42,11c0-.28-.1-.54-.17-.8l.51-.1a.38.38,0,0,0,.31-.45.38.38,0,0,0-.46-.3l-.61.1a8,8,0,0,0-.91-1.74C188.13,14.19,199.6,25.93,206.54,39.88ZM188.26,51.69c-5.93-10.91-.55-14.94-.55-14.94-6.12,4-5.84,7.79-5,9.89a4.4,4.4,0,0,0-1.32-.57,24.85,24.85,0,0,0,.11-6.15c0,2-2.3,4.38-4.67,6.3.59-3.08,3.15-7.72,3.15-7.72-6.44,3.93-7.05,8.4-7.06,9.9a9.78,9.78,0,0,0-2.47-3.66c.25-3.19.92-6.64.92-6.64a11,11,0,0,0-2.58,5c-2.16-2.08-4.68-4.16-6.29-5.43,1.3,1.64,2.1,4.43,2.58,6.91a5.68,5.68,0,0,0-5.49-.13l-.37.17A10.7,10.7,0,0,0,157,46.15a5,5,0,0,1,3.85.46h0a13.94,13.94,0,0,1,1.51,7.93C171.66,59,188.26,51.69,188.26,51.69Zm-38.17-4.14a.38.38,0,0,0,.23-.49.38.38,0,0,0-.49-.23c-2.39.87-2.75.51-2.75.5s0-.07,0-.11l.59-1.26a8.71,8.71,0,0,0,1.75-.48.39.39,0,1,0-.3-.71,6.58,6.58,0,0,1-1,.32l1.36-2.89-3.37.91a.4.4,0,0,0-.27.47.39.39,0,0,0,.47.28l1.76-.48-.87,1.87a5.79,5.79,0,0,1-1.36,0,.39.39,0,0,0-.42.35.38.38,0,0,0,.35.42s.21,0,.51,0l.54,0-.4.84a.94.94,0,0,0,.12,1,1.24,1.24,0,0,0,1,.32A8.49,8.49,0,0,0,150.09,47.55Z"/><path class="cls-4" d="M168.87,49.81c0-.16-.13-.53-.22-1.07l1.88-.15c.14.82.41,1.34.89,1.36,0,0,.64-.37,1.6-1a46.18,46.18,0,0,0,3.86-2.75c-.27,1.37-.14,2.43.79,2.63,0,0,2.92-1.59,2.05-3a6.83,6.83,0,0,1,1.72.22,4.4,4.4,0,0,1,1.32.57,6.12,6.12,0,0,0,1.07,1.7,2.37,2.37,0,0,0-1.07-1.7c-.89-2.1-1.17-5.86,5-9.89,0,0-5.38,4,.55,14.94,0,0-16.6,7.28-25.93,2.85a13.94,13.94,0,0,0-1.51-7.93h0a9.72,9.72,0,0,0-1.54-2l.37-.17c2.26,1.34,5.85,3.69,6.17,5.3a43.81,43.81,0,0,0-.68-5.17C166.48,45.38,167.79,47,168.87,49.81Z"/><path class="cls-3" d="M180,38.5s-2.56,4.64-3.15,7.72A46.18,46.18,0,0,1,173,49l0,0a1.39,1.39,0,0,0,0-.53C173,46.9,173.59,42.43,180,38.5Z"/><path class="cls-2" d="M172.07,9.66a.38.38,0,0,1-.31.45l-.51.1a7.32,7.32,0,0,0-.25-.75l.61-.1A.38.38,0,0,1,172.07,9.66Z"/><path class="cls-2" d="M171.8,6.17a.4.4,0,0,1-.29.47,11,11,0,0,1-2,.29c-.17-.19-.34-.37-.52-.55l.15-.21a11.62,11.62,0,0,0,2.25-.28A.39.39,0,0,1,171.8,6.17Z"/><path class="cls-2" d="M171.68,2.33l-2.59,3.84h-.37l-.35-.3,1.75-2.59-3.21.34a.37.37,0,0,1-.43-.34.39.39,0,0,1,.35-.42Z"/><path class="cls-10" d="M171.42,11c2.1,13.29-8.4,15.74-14.14,16.11l2.14-3.86-4.8.95a.39.39,0,0,0,.16.76l3.16-.63-1.57,2.81a22.75,22.75,0,0,1-2.62,0c-6.66,10.62-16,13.41-24.5,13.14h0c-18.58-8.75-11.37-30.84-8.84-37.16l.72-.07C139,1.4,153.61,2.74,165.6,6.27a.38.38,0,0,0,.29.37,11.88,11.88,0,0,0,1.77.27l-1.11,1.64a1.15,1.15,0,0,0-.06,1.25c.3.46,1,.7,2.08.7a16,16,0,0,0,2.68-.29C171.32,10.47,171.37,10.73,171.42,11Z"/><path class="cls-2" d="M171,9.46a7.32,7.32,0,0,1,.25.75,16,16,0,0,1-2.68.29c-1.1,0-1.78-.24-2.08-.7a1.15,1.15,0,0,1,.06-1.25l1.11-1.64h0c.24.07.5.15.74.24L167.18,9s-.15.24,0,.4S167.76,10,171,9.46Z"/><path class="cls-3" d="M171.42,38.1s-.67,3.45-.92,6.64c-.51-.55-1.07-1.11-1.66-1.68A11,11,0,0,1,171.42,38.1Z"/><path class="cls-4" d="M170.53,48.59l-1.88.15a14.7,14.7,0,0,1,.19-5.68c.59.57,1.15,1.13,1.66,1.68A16.74,16.74,0,0,0,170.53,48.59Z"/><path class="cls-10" d="M170.09,7.72A8,8,0,0,1,171,9.46c-3.24.57-3.79,0-3.86-.07s0-.4,0-.4l1.24-1.84C169,7.33,169.54,7.52,170.09,7.72Z"/><path class="cls-10" d="M169.46,6.93a7.79,7.79,0,0,1,.63.79c-.55-.2-1.1-.39-1.67-.57l.14-.21h.19Z"/><path class="cls-2" d="M168.94,6.38c.18.18.35.36.52.55l-.71,0h-.19Z"/><path class="cls-2" d="M169.09,6.17l-.15.21-.22-.21Z"/><path class="cls-2" d="M168.94,6.38l-.38.56c-.31,0-.61,0-.88,0h0l.5-.75h.55Z"/><path class="cls-2" d="M168.72,6.17h-.55l.2-.29Z"/><path class="cls-3" d="M168.65,48.74c.09.54.19.91.22,1.07-1.08-2.82-2.39-4.43-3.74-5.27-.48-2.48-1.28-5.27-2.58-6.91,1.61,1.27,4.13,3.35,6.29,5.43A14.7,14.7,0,0,0,168.65,48.74Z"/><path class="cls-2" d="M168.56,6.94l-.14.21c-.24-.09-.5-.17-.74-.24C168,6.93,168.25,6.94,168.56,6.94Z"/><path class="cls-10" d="M168.37,5.87l-.2.29a11.48,11.48,0,0,1-2.09-.27.39.39,0,0,0-.47.28.34.34,0,0,0,0,.1C153.61,2.74,139,1.4,121.13,3l-.72.07c.44-1.1.73-1.71.73-1.71C140.15-1,160.67-.68,168.37,5.87Z"/><path class="cls-2" d="M168.17,6.16l-.5.75h0c-.68-.24-1.36-.44-2.06-.64a.34.34,0,0,1,0-.1.39.39,0,0,1,.47-.28A11.48,11.48,0,0,0,168.17,6.16Z"/><path class="cls-2" d="M165.6,6.27c.7.2,1.38.4,2.06.64a11.88,11.88,0,0,1-1.77-.27A.38.38,0,0,1,165.6,6.27Z"/><path class="cls-3" d="M165.13,44.54a43.81,43.81,0,0,1,.68,5.17c-.32-1.61-3.91-4-6.17-5.3A5.68,5.68,0,0,1,165.13,44.54Z"/><path class="cls-2" d="M160.44,30.53a.39.39,0,0,1-.27.48,14.64,14.64,0,0,1-3.7.68,1.9,1.9,0,0,1-1.58-.53,1.17,1.17,0,0,1,0-1.26l.84-1.53c.28,0,.59,0,.91,0l-1.08,2s-.13.26,0,.4.75.65,4.46-.41A.39.39,0,0,1,160.44,30.53Z"/><path class="cls-3" d="M159.27,44.58a9.72,9.72,0,0,1,1.54,2,5,5,0,0,0-3.85-.46A10.7,10.7,0,0,1,159.27,44.58Z"/><path class="cls-2" d="M159.62,27.29a.39.39,0,0,1-.23.5,12.31,12.31,0,0,1-2.79.54l.46-.81a11.59,11.59,0,0,0,2.08-.47A.37.37,0,0,1,159.62,27.29Z"/><path class="cls-2" d="M159.42,23.26l-2.14,3.86-.91,0,1.57-2.81-3.16.63a.39.39,0,0,1-.16-.76Z"/><path class="cls-2" d="M157.28,27.12l-.22.4c-.32,0-.63.06-.93.07l.24-.44Z"/><path class="cls-2" d="M157.06,27.52l-.46.81c-.32,0-.63,0-.91,0l.44-.78C156.43,27.58,156.74,27.55,157.06,27.52Z"/><path class="cls-2" d="M156.13,27.59l-.44.78h-.22a11.47,11.47,0,0,1-1.69-.11.39.39,0,1,1,.13-.76A10.66,10.66,0,0,0,156.13,27.59Z"/><path class="cls-2" d="M149.45,42.2l-1.36,2.89a5.56,5.56,0,0,1-.92.16l.87-1.87-1.76.48a.39.39,0,0,1-.47-.28.4.4,0,0,1,.27-.47Z"/><path class="cls-11" d="M129.25,40.23h0c-11.42-.39-21.36-6.31-21.36-6.31a40.71,40.71,0,0,1-12.54-.14C81,31,82.24,18.34,82.78,15.27h0a84.09,84.09,0,0,1,31-11.34c2.14-.35,4.35-.64,6.62-.85C117.88,9.39,110.67,31.48,129.25,40.23Z"/><path class="cls-6" d="M82.92,44.11c6.19,6.07,3.15,14.19,3.15,14.19a3,3,0,0,0,1.4,1c-.12,14.16,8,30.15,41.78,36.47a125.23,125.23,0,0,0-11.78,22.31,71.92,71.92,0,0,0-30.68-14.35c1.93-.93,2.8-.49,3.47-1.3,1.08-1.28.53-4.29-1.15-5.51-1.39-1-2.41,0-5.36-.14a13.71,13.71,0,0,1-1.52-.19,15.48,15.48,0,0,1-3.72-1.31c-1.65-.76-3-1.4-4.7-.82a5.14,5.14,0,0,0-2.1,1.38c-3.49,0-5.62.74-7,1.67a1.21,1.21,0,0,0-.24.17h0a6.74,6.74,0,0,0-.77.68c-1.56,1.59-1.55,3.14-2.44,5.28A66.77,66.77,0,0,0,33.86,116a8.78,8.78,0,0,1,.75-3.31s1.23-66.91,46.6-96.42c.52-.34,1-.67,1.57-1C82.24,18.34,81,31,95.35,33.79a53.76,53.76,0,0,0-4.49,9.15c-.44-.5-.82-.95-1.12-1.3a7.93,7.93,0,0,1,.89,1.9c-.57,1.53-1.12,3.18-1.6,4.94A42.88,42.88,0,0,0,82.92,44.11Z"/><path class="cls-4" d="M120.87,55.2c3.36,2.28-26.08,7.27-33.4,4.14A43.65,43.65,0,0,1,89,48.48a10,10,0,0,1,2.52,3.08c0,1.18-.08,2-.08,2a2,2,0,0,0,.08-2,26.33,26.33,0,0,0-.92-8l.23-.6c1.09,1.27,2.55,2.88,3.9,4.19a21.1,21.1,0,0,0,1.68,1.51c-1,3.2-1.62,6.32-.44,6.81,0,0-.07-4.22,1.79-4.53s2.74-4.16,2.74-4.16.8,6.82,3,6.89a27.48,27.48,0,0,0,6.65-5,10.13,10.13,0,0,0,3.11,4.81c.24.21.51.42.78.62,0,0,1.86-5,.39-8.52a18.72,18.72,0,0,1,2.94,6.86c.63-2.44,1.64-5.31,2.75-4.42C120.18,48,117.21,52.72,120.87,55.2Z"/><path class="cls-11" d="M121.14,1.36s-.29.61-.73,1.71c-2.27.21-4.48.5-6.62.85l-.25-1.45C116,2.05,118.56,1.68,121.14,1.36Z"/><path class="cls-11" d="M113.54,2.47l.25,1.45a84.09,84.09,0,0,0-31,11.34c.07-.43.13-.67.13-.67C81.6,10.46,96,5.42,113.54,2.47Z"/><path class="cls-3" d="M112,43.89c.43,1.29,2.09,6.62,1.35,9.57a10.13,10.13,0,0,1-3.11-4.81C111.53,47.17,112.39,45.51,112,43.89Z"/><path class="cls-3" d="M109.83,45.21a9.54,9.54,0,0,0,.38,3.44,27.48,27.48,0,0,1-6.65,5c-2.23-.07-3-6.89-3-6.89s-.87,3.85-2.74,4.16S96,55.45,96,55.45c-1.18-.49-.57-3.61.44-6.81a3.8,3.8,0,0,0,1.61.91s3.9-13.14,9.23-13.2c0,0-3.59,8.93-1.3,14.94A9.61,9.61,0,0,0,109.83,45.21Z"/><path class="cls-3" d="M99.28,41.07c-.1.23-1.71,4-2.84,7.57a21.1,21.1,0,0,1-1.68-1.51A8.82,8.82,0,0,1,99.28,41.07Z"/><path class="cls-1" d="M90.63,43.54a26.33,26.33,0,0,1,.92,8A10,10,0,0,0,89,48.48C89.51,46.72,90.06,45.07,90.63,43.54Z"/><path class="cls-4" d="M90.86,42.94l-.23.6a7.93,7.93,0,0,0-.89-1.9C90,42,90.42,42.44,90.86,42.94Z"/><path class="cls-4" d="M89,48.48a43.65,43.65,0,0,0-1.56,10.86,3,3,0,0,1-1.4-1s3-8.12-3.15-14.19A42.88,42.88,0,0,1,89,48.48Z"/></g><g id="_Group_2" data-name="&lt;Group&gt;"><path class="cls-12" d="M263.69,54.51c4,2.28,6.62,5.73,6,8.48-.79,3.73-7.19,5.12-11,5.11-5.19,0-6.21-2.55-11.7-2.87-1.66-.82-3.37-1.62-5.13-2.36a21.53,21.53,0,0,1-3.26-3.11c.87-.59,1.35-2.28,1.28-3.62-.19-3-3.31-5.65-4.65-5.11a1.7,1.7,0,0,0-.83,1.28c-3.21-9.58.11-19.54.22-19.88h0c2.53-1.06,4-2.55,7.46-2.65,7.21-.19,12.68,5,14,6.28C263.6,43.1,263.7,52.66,263.69,54.51Zm-15,4.54c2.82-.22,5.25-5.38,4.53-9.64-.82-4.85-5.76-9-8.48-8s-3.45,7.6-1.51,12.19C243.36,53.85,245.72,59.27,248.71,59.05Z"/><path class="cls-12" d="M247,65.23l-.61,0q-.51,0-1,0a24.06,24.06,0,0,1-3.56-2.33C243.63,63.61,245.34,64.41,247,65.23Z"/><path class="cls-13" d="M241.87,62.87a24.06,24.06,0,0,0,3.56,2.33c-4.54.11-5.2,2-8.33,1.16a6.91,6.91,0,0,1-3.2-1.8c-1.69-1.64-2.61-4-4.11-5.92A98.86,98.86,0,0,1,241.87,62.87Z"/><path class="cls-13" d="M238.61,59.76a21.53,21.53,0,0,0,3.26,3.11,98.86,98.86,0,0,0-12.08-4.23c-.2-.27-.42-.54-.65-.8a8.31,8.31,0,0,0-3.31-2.23c-2.75-1-4.8-.16-6.9.54q-3.41-.61-6.69-1a81.57,81.57,0,0,0-5.7-15.28c2.26-4,7-6.43,10.35-7.2,4.73-1.06,6.61,1.1,12.77.82a13.85,13.85,0,0,0,5-1.07c-.11.34-3.43,10.3-.22,19.88a8.13,8.13,0,0,0,.36,4.18c.58,1.56,2,3.75,3.38,3.48A1.07,1.07,0,0,0,238.61,59.76Zm-12-12.91c4.06-2,6.5-7.21,5.12-9.06s-6.5-.32-9.52,1.39c-2.14,1.21-6.11,4.15-5.47,6.27S222.79,48.71,226.64,46.85Z"/><path class="cls-11" d="M238.61,59.76a1.07,1.07,0,0,1-.46.21c-1.33.27-2.8-1.92-3.38-3.48a8.13,8.13,0,0,1-.36-4.18A22.13,22.13,0,0,0,238.61,59.76Z"/><path class="cls-13" d="M218.93,56.15a8.17,8.17,0,0,1-6.1.11l-.35-.15c-.08-.32-.15-.63-.24-1Q215.53,55.54,218.93,56.15Z"/><path class="cls-13" d="M212.24,55.16c.09.32.16.63.24,1A10.49,10.49,0,0,1,210.56,55Z"/><path class="cls-13" d="M212.24,55.16,210.56,55a12.64,12.64,0,0,1-5.28-11.15,10.09,10.09,0,0,1,1.26-3.95A81.57,81.57,0,0,1,212.24,55.16Z"/></g><g id="_Group_3" data-name="&lt;Group&gt;"><path class="cls-11" d="M64.22,107.49A5.68,5.68,0,0,0,65.78,110c-.13.16-.25.32-.38.47-1.28,1.44-3.41,2.38-4,1.81s.27-2.26,1.16-3.34A6.94,6.94,0,0,1,64.22,107.49Z"/><path class="cls-13" d="M68.67,113.42c-2.43,2-2.13,3.2-4.06,4a6.15,6.15,0,0,1-5.77-.4,77.43,77.43,0,0,1,3-13.49c.63-.12,1.26-.22,1.9-.31a12.37,12.37,0,0,0,.46,4.22,6.94,6.94,0,0,0-1.64,1.43c-.89,1.08-1.69,2.82-1.16,3.34s2.7-.37,4-1.81c.13-.15.25-.31.38-.47,1.43,1.3,3.8,1.83,7.57.87A14.85,14.85,0,0,0,68.67,113.42Z"/><path class="cls-12" d="M86.5,103.92A11.62,11.62,0,0,0,84,105.73a10.5,10.5,0,0,0-1.74,1.94l-.26.38c-.86-2.78-2.47-4.65-3.65-4.65l.14-.72a66.44,66.44,0,0,1,8.27,1.09Z"/><path class="cls-12" d="M80.12,101.31c1.47-.56,2.42-2.44,2.11-4.68a13.71,13.71,0,0,0,1.52.19c3,.17,4-.86,5.36.14,1.68,1.22,2.23,4.23,1.15,5.51-.67.81-1.54.37-3.47,1.3a66.44,66.44,0,0,0-8.27-1.09l.24-1.2A3.21,3.21,0,0,0,80.12,101.31Z"/><path class="cls-12" d="M77.94,101.17a1.63,1.63,0,0,0,.82.31l-.24,1.2c-1-.06-2-.12-3-.14a65.2,65.2,0,0,0-11.76.73,24.77,24.77,0,0,1,1-5.72c1.34-.93,3.47-1.72,7-1.67a5.14,5.14,0,0,1,2.1-1.38c1.71-.58,3,.06,4.7.82C76.88,97.91,76.88,100.34,77.94,101.17Z"/><path class="cls-12" d="M75.52,102.54c1,0,2,.08,3,.14l-.14.72h-.14c-1.29.19-2.6,2.92-2.12,6.73l-.5.09c-.2,0-.42.08-.65.14a14.24,14.24,0,0,0-1.6.47h0c-3.77,1-6.14.43-7.57-.87.85-1.15,1.4-2.63.93-3.09s-1.44-.07-2.49.6a12.37,12.37,0,0,1-.46-4.22A65.2,65.2,0,0,1,75.52,102.54Z"/><path class="cls-13" d="M61.86,103.58c1-3.11,2-5.2,2.65-5.85h0l.24-.17a24.77,24.77,0,0,0-1,5.72C63.12,103.36,62.49,103.46,61.86,103.58Z"/><path class="cls-13" d="M63.74,98.41a6.74,6.74,0,0,1,.77-.68c-.63.65-1.63,2.74-2.65,5.85l-.56.11C62.19,101.55,62.18,100,63.74,98.41Z"/><path class="cls-13" d="M61.86,103.58a77.43,77.43,0,0,0-3,13.49,2,2,0,0,1-.25-.18A6,6,0,0,1,56.42,111c.36-1.73,1.38-2,3-4.2a13.86,13.86,0,0,0,1.84-3.13Z"/></g><g id="_Group_4" data-name="&lt;Group&gt;"><path class="cls-14" d="M233.9,64.56c-3.28-.83-6.36,13.92-7.23,18.55h0c-5.55-.53-3.07-14.81-2.82-16.17a.13.13,0,0,0,0-.06c1.58-5.44,3.65-7.74,4.66-8.6.44.12.86.23,1.28.36C231.29,60.59,232.21,62.92,233.9,64.56Z"/><path class="cls-7" d="M226.66,83.11c-.16.86-.25,1.37-.25,1.37l-4.64-1.63a62.38,62.38,0,0,1,2.07-15.91C223.59,68.3,221.11,82.58,226.66,83.11Z"/></g><g id="_Group_5" data-name="&lt;Group&gt;"><path class="cls-7" d="M82.29,107.67c4.91,2,4.66,8.34,4.48,10.17-2.71.87-5.14-2.17-6-3.48l-.12-.19a2.37,2.37,0,0,0-.22-.33l0,0a10.4,10.4,0,0,0-4.74-3.56l.5-.09c2.48-.38,3.35.23,4.8-.86A4.51,4.51,0,0,0,82,108.05Z"/><path class="cls-14" d="M86.77,117.84c0,.32-.06.5-.06.5l-5.07.37a7.48,7.48,0,0,0-.91-4.35C81.63,115.67,84.06,118.71,86.77,117.84Z"/></g><path class="cls-6" d="M149,66.4a6.15,6.15,0,0,1,2.07,5.48c-2.66,2.13-5.52,4.66-8.09,7.18-2.5-.24-3.07-2.22-3.07-4.06v-.08c.06-.73.13-1.44.23-2.11a1.75,1.75,0,0,1,0-.24c.1-.46.16-.73.11-.7.63-3.59,1.87-6,3.7-6.55A5.85,5.85,0,0,1,149,66.4Z"/><path class="cls-9" d="M143,79.06c-1.08,1.07-2.1,2.11-3,3.13a50.92,50.92,0,0,1,0-7.19C139.92,76.84,140.49,78.82,143,79.06Z"/><path class="cls-9" d="M140.29,71.87c.05,0,0,.24-.11.7,0-.23.07-.46.1-.69Z"/><path class="cls-6" d="M224.53,119.21c3.45.89,4.73,12.47.91,21.42a29.84,29.84,0,0,1-2.86,5.15c-8.5,2.13-6.44-17.59-6.44-17.59C218.64,122.87,222.2,118.61,224.53,119.21Z"/><path class="cls-9" d="M216.14,128.19s-2.06,19.72,6.44,17.59A21.27,21.27,0,0,1,220,149h0l-4.62,2c-2.83-1.39-3.1-10.06-1.46-16.57A34.62,34.62,0,0,1,216.14,128.19Z"/><path class="cls-6" d="M68.35,151.41c5,2.56,6.74,10.47,6.08,16.33a44.24,44.24,0,0,1-12.1-16.86A7.47,7.47,0,0,1,68.35,151.41Z"/><path class="cls-6" d="M74.43,167.74a18.18,18.18,0,0,1-.33,2c-10.45-.07-14.95-14-15-14.55h0a6.59,6.59,0,0,1,2.48-3.87,3.63,3.63,0,0,1,.73-.38A44.24,44.24,0,0,0,74.43,167.74Z"/><path class="cls-9" d="M74.1,169.7c0,.06,0,.1,0,.15-.52,2.19-1.44,3.85-2.71,4.47-2.78,1.36-7-2.51-7.52-3-4.53-4.16-6-11.43-4.73-16.16C59.15,155.74,63.65,169.63,74.1,169.7Z"/><path class="cls-6" d="M59.12,155.13h0Z"/><path class="cls-8" d="M76.64,180l-.78.46L72,174v0a7.54,7.54,0,0,0,2.12-4.09C76.33,171.25,76.64,180,76.64,180Z"/><path class="cls-8" d="M72,174l3.9,6.52C74.06,180.87,72.07,174.36,72,174Z"/><path class="cls-15" d="M75.86,180.48l-1.2.72-1.13,0a14.33,14.33,0,0,0-2.17-6.83,2.69,2.69,0,0,0,.59-.38v0C72.07,174.36,74.06,180.87,75.86,180.48Z"/><path class="cls-8" d="M220,149h0c-2.71,3.35-2.53,9-2.53,9l-.49.26h0l-.45.24c-2.43.88-1.21-7-1.14-7.52v0l.27.1C216.82,151.48,218.38,150.58,220,149Z"/><path class="cls-16" d="M216.46,158.54l-2.13,1.13a22.78,22.78,0,0,1,1-8.65C215.25,151.54,214,159.42,216.46,158.54Z"/><path class="cls-8" d="M215.33,151v0Z"/></g></g></svg>