<svg xmlns="http://www.w3.org/2000/svg" viewBox="0 0 386.92 229.37"><defs><style>.cls-1{fill:#2bb673;}.cls-2{fill:#8dc63f;}.cls-3{fill:#39b54a;}.cls-4{fill:#ed1c24;}.cls-5{fill:#fcd3c9;}.cls-6{fill:#fff;}.cls-7{fill:#8b5e3c;}.cls-8{fill:#006838;}.cls-9{fill:#009444;}.cls-10{fill:none;stroke:#808285;stroke-linecap:round;stroke-miterlimit:10;}</style></defs><title>sleepyMountains</title><g id="Layer_2" data-name="Layer 2"><g id="zzzzzz"><path class="cls-1" d="M288.4,67.24c109.36,22.69,98.47,143.39,98.47,143.39-76,21.13-145,10.89-189.62-3.95a180,180,0,0,0-20.64-35.15c62.06-3.25,120.87-18.51,112.7-47.12-5.37-18.78-8.54-39.85-13.6-59.22C279.83,65.66,284.05,66.34,288.4,67.24Z" transform="translate(-0.25 -0.25)"/><path class="cls-1" d="M289.31,124.41c8.17,28.61-50.64,43.87-112.7,47.12a133.33,133.33,0,0,0-23.9-24.63c14.75-36.5,52.47-89.73,123-81.71C280.77,84.56,283.94,105.63,289.31,124.41Z" transform="translate(-0.25 -0.25)"/><path class="cls-1" d="M170,4.62C244-12.26,264.51,22.31,275.71,65.19c-70.53-8-108.25,45.21-123,81.71-14.6-11.4-32.64-19.65-54.44-20.22-22-.57-39.91,6.93-54.07,17.46a11.21,11.21,0,0,1,1-4.3S62.42,29.12,170,4.62Z" transform="translate(-0.25 -0.25)"/><path class="cls-1" d="M202.18,219.71C204.9,230.15,36.1,240.13.25,204.28c0,0,13.19-37.24,44-60.14-.29,17.73,47.65,27.37,101.26,28a17.54,17.54,0,0,0,0,5.88c1.49,5.75,20.72,18.31,51.79,28.65A100.21,100.21,0,0,1,202.18,219.71Z" transform="translate(-0.25 -0.25)"/><path class="cls-1" d="M197.25,206.68c-31.07-10.34-50.3-22.9-51.79-28.65a17.54,17.54,0,0,1,0-5.88c10.28.13,20.76-.08,31.15-.62A180,180,0,0,1,197.25,206.68Z" transform="translate(-0.25 -0.25)"/><path class="cls-1" d="M152.71,146.9a133.33,133.33,0,0,1,23.9,24.63c-10.39.54-20.87.75-31.15.62C146.17,166.27,148.51,157.26,152.71,146.9Z" transform="translate(-0.25 -0.25)"/><path class="cls-1" d="M152.71,146.9c-4.2,10.36-6.54,19.37-7.25,25.25-53.61-.64-101.55-10.28-101.26-28,14.16-10.53,32-18,54.07-17.46C120.07,127.25,138.11,135.5,152.71,146.9Z" transform="translate(-0.25 -0.25)"/><path class="cls-2" d="M65.08,179.71c-.23.32-.37.55-.42.61A2.38,2.38,0,0,0,65.08,179.71Zm-16.55,1.74c.24-.58,1.43-3.5,2.66-5.91,1,1.85,1.74,3.65,1.49,4.71.1-.12.62-.82,1.3-1.83a3.73,3.73,0,0,0,2,1,20.08,20.08,0,0,0,.47-5.29c.2-.42.38-.85.54-1.26,1.56,2,3.71,5.12,3.08,6.52.13-.24.4-.69.78-1.26.09,1.55.13,2.64.13,2.64.32-.43.21-1.42-.12-2.65a16,16,0,0,1,3.28-3.7c1,1.87,1.64,3.81,1,5.24.26-.36.6-.83,1-1.36,1.7-2.24,4.51-5.42,6.25-4.71,0,0-5,6.77-2.71,8.06L56,183.53l-13.83-1.6s1.15-4.48,0-5.56a10.58,10.58,0,0,1,1.86.83,7,7,0,0,1,3.42,3.68s0-.71.07-1.8A3.65,3.65,0,0,1,48.53,181.45Z" transform="translate(-0.25 -0.25)"/><path class="cls-3" d="M64.16,174.4a4.33,4.33,0,0,1,3.35-1.09s-2.32,2.77-1.39,5c-.4.53-.74,1-1,1.36C65.8,178.21,65.19,176.27,64.16,174.4Z" transform="translate(-0.25 -0.25)"/><path class="cls-3" d="M64.16,174.4a16,16,0,0,0-3.28,3.7l0,0c-.17-3.18-.56-8.23-1.21-9.61A31.87,31.87,0,0,1,64.16,174.4Z" transform="translate(-0.25 -0.25)"/><path class="cls-3" d="M60.86,178.06a.11.11,0,0,1,0,.05c-.38.57-.65,1-.78,1.26.63-1.4-1.52-4.53-3.08-6.52,0,0,0,0,0,0a5,5,0,0,0,.35-3.3A58.4,58.4,0,0,1,60.86,178.06Z" transform="translate(-0.25 -0.25)"/><path class="cls-3" d="M56.47,174.11A20.08,20.08,0,0,1,56,179.4a3.73,3.73,0,0,1-2-1A34.61,34.61,0,0,0,56.47,174.11Z" transform="translate(-0.25 -0.25)"/><path class="cls-3" d="M51.19,175.54c1-2,2.06-3.69,2.58-3.35,0,0-1.84,4.19.21,6.23-.68,1-1.2,1.71-1.3,1.83C52.93,179.19,52.21,177.39,51.19,175.54Z" transform="translate(-0.25 -0.25)"/><path class="cls-3" d="M51.19,175.54c-1.23,2.41-2.42,5.33-2.66,5.91a3.65,3.65,0,0,0-1-2.37c.08-3,.12-8.67-.75-10.07A56,56,0,0,1,51.19,175.54Z" transform="translate(-0.25 -0.25)"/><path class="cls-3" d="M47.53,179.08c0,1.09-.07,1.8-.07,1.8A7,7,0,0,0,44,177.2a3.3,3.3,0,0,0-.41-2.33A33.61,33.61,0,0,1,47.53,179.08Z" transform="translate(-0.25 -0.25)"/><path class="cls-2" d="M139.28,179.52c.41-.88,1.35-2.59,2.58-3s2.65-.81,3.15-2c-.26,1.23-.75,3.14-1.11,2.74-.52-.57-1.36,4.6-.73,4.7a110.81,110.81,0,0,1-17.37-.77l.07-.55a8.05,8.05,0,0,0,.88-.35,84.29,84.29,0,0,0,5.06-7.21,5.63,5.63,0,0,1-.07,3c-1.2,3.75,0,.47,0,.47a14.33,14.33,0,0,0,2.36-1.93c.09,2.47.08,4.93-.32,5.59a47.83,47.83,0,0,1,4.43-5.17,3.88,3.88,0,0,1-1.72,2.45s1.3-.11,2.56,2.5C139.05,180,139.13,179.83,139.28,179.52Z" transform="translate(-0.25 -0.25)"/><path class="cls-3" d="M141.86,164.59s-2.66,2.77-2.66,4.54a21.61,21.61,0,0,1-1,6,47.83,47.83,0,0,0-4.43,5.17c.4-.66.41-3.12.32-5.59a12.48,12.48,0,0,0,2.7-3.87C138.37,167.15,138.47,166.37,141.86,164.59Z" transform="translate(-0.25 -0.25)"/><path class="cls-3" d="M138.21,175.09c.87-.82,1.67-1.38,2.16-1.29,0,0-2.21,3.6-1.09,5.72-.15.31-.23.52-.23.52-1.26-2.61-2.56-2.5-2.56-2.5A3.88,3.88,0,0,0,138.21,175.09Z" transform="translate(-0.25 -0.25)"/><path class="cls-3" d="M134.1,174.67a14.33,14.33,0,0,1-2.36,1.93s-1.2,3.28,0-.47a5.63,5.63,0,0,0,.07-3c1.18-2,2-3.77,1.61-4.47-1.07-1.88.3.2.3.2S134,171.75,134.1,174.67Z" transform="translate(-0.25 -0.25)"/><path class="cls-3" d="M126.08,175.09c1.71-1.82,3.55-4.35,3.26-6.53a11.28,11.28,0,0,1,2.47,4.53,84.29,84.29,0,0,1-5.06,7.21,8.05,8.05,0,0,1-.88.35,2.4,2.4,0,0,1,.54-.35C127.07,179.93,126.66,177.36,126.08,175.09Z" transform="translate(-0.25 -0.25)"/><path class="cls-2" d="M125.87,180.65l-.07.55c-3.88-.51-7.56-1.3-10-2.52,0,0,.22-3.61-1.1-5,1.38.76,4,2.33,4.55,3.58,0,.56,0,.9,0,.9a.88.88,0,0,0,0-.9c0-1.76-.19-5.66-1.37-7.8,1.67,1.73,4.46,4.78,5.41,6.63.33.65.43,1.15.18,1.4a26.51,26.51,0,0,0,2.59-2.45c.58,2.27,1,4.84.33,5.21A2.4,2.4,0,0,0,125.87,180.65Z" transform="translate(-0.25 -0.25)"/><path class="cls-3" d="M124.73,172.18c-.19-1.81.69.36,1.35,2.91a26.51,26.51,0,0,1-2.59,2.45c.25-.25.15-.75-.18-1.4a6.19,6.19,0,0,0,1.44-3.61A2,2,0,0,0,124.73,172.18Z" transform="translate(-0.25 -0.25)"/><path class="cls-3" d="M264.25,122.48a4.63,4.63,0,0,0-3,.41l.65-1.35A9.35,9.35,0,0,1,264.25,122.48Z" transform="translate(-0.25 -0.25)"/><path class="cls-2" d="M260.71,121.43c.82-1.42,1.67-2.37,2.41-2.23,0,0-.53,1-1.24,2.34A4.44,4.44,0,0,0,260.71,121.43Z" transform="translate(-0.25 -0.25)"/><path class="cls-2" d="M241.43,132.48a.33.33,0,0,0,0-.17C241.45,132.39,241.44,132.45,241.43,132.48Zm-12-.75c-.05-.35-.11-.71-.19-1.07,2,1.15,4.07,2.49,4.48,3.35l-.14.64a.44.44,0,0,0,.14-.64c.24-1.14.75-3.65,1.2-6,2,1.88,3.7,3.8,3.7,4.74.09-.67.4-2.85.81-4.88,1.16,1.8,2.12,3.57,2,4.44.17-.69.7-2.72,1.37-4.62.32.48.65,1,1,1.44-.29,1.64-.35,3.08.29,3.25l2.61-.13a.67.67,0,0,0,.19.05.15.15,0,0,0,0-.06h0l2.47-.13,4.19-.22a12.87,12.87,0,0,0-.12-1.52,31.05,31.05,0,0,0,1.7-4.6,5.37,5.37,0,0,1,.57.93,26,26,0,0,0,.37,3c-.05,1.47,0,2.53,0,2.53a12.5,12.5,0,0,0,.21-1.61c.13.34.28.54.45.54a58,58,0,0,1,3.92-9.69,4.44,4.44,0,0,1,1.17.11l-.65,1.35c-1.65,3.45-3.53,8.13-1.89,8.64,2.63.82-19.48,7.56-29.92,4.44A15.2,15.2,0,0,0,229.46,131.73Z" transform="translate(-0.25 -0.25)"/><path class="cls-3" d="M260.71,121.43a58,58,0,0,0-3.92,9.69c-.17,0-.32-.2-.45-.54a8.4,8.4,0,0,0-.13-2.46C256.53,125.1,257.58,121.5,260.71,121.43Z" transform="translate(-0.25 -0.25)"/><path class="cls-2" d="M255.16,125.74a31.05,31.05,0,0,1-1.7,4.6,13.36,13.36,0,0,0-.79-3.18c.11-1.07.26-2,.26-2a10.12,10.12,0,0,0-.74.94,5.54,5.54,0,0,0-3.78-3S252.93,122.8,255.16,125.74Z" transform="translate(-0.25 -0.25)"/><path class="cls-3" d="M253.58,131.86l-4.19.22-2.47.13h0a15.1,15.1,0,0,1,.05-6.61,6.73,6.73,0,0,1,.38-1s.74,5.42,3.28,6.32a8.46,8.46,0,0,1,1.57-4.81,9.48,9.48,0,0,1,.48,1c-.2,1.81-.29,4.15.58,3.63l.21-.45A12.87,12.87,0,0,1,253.58,131.86Z" transform="translate(-0.25 -0.25)"/><path class="cls-3" d="M252.93,125.2s-.15.89-.26,2a9.48,9.48,0,0,0-.48-1A10.12,10.12,0,0,1,252.93,125.2Z" transform="translate(-0.25 -0.25)"/><path class="cls-3" d="M246.74,132.22l-2.61.13c-.64-.17-.58-1.61-.29-3.25C244.92,130.62,246,132,246.74,132.22Z" transform="translate(-0.25 -0.25)"/><path class="cls-2" d="M242.85,127.66c.72-2.09,1.59-4,2.31-3.77,0,0-.22.67-.48,1.63a35.14,35.14,0,0,0-.84,3.58C243.5,128.63,243.17,128.14,242.85,127.66Z" transform="translate(-0.25 -0.25)"/><path class="cls-3" d="M242.85,127.66c-.67,1.9-1.2,3.93-1.37,4.62.1-.87-.86-2.64-2-4.44a13.6,13.6,0,0,1,1.14-3.79S241.61,125.78,242.85,127.66Z" transform="translate(-0.25 -0.25)"/><path class="cls-3" d="M239.46,127.84c-.41,2-.72,4.21-.81,4.88,0-.94-1.74-2.86-3.7-4.74.47-2.6.85-5,.67-5.44C235.91,122.91,237.88,125.4,239.46,127.84Z" transform="translate(-0.25 -0.25)"/><path class="cls-3" d="M231.14,129.87c0-.68-.16-4.67-1.21-6.19a1.72,1.72,0,0,0-.25-.28c.73.6,3.14,2.56,5.27,4.58-.45,2.38-1,4.89-1.2,6-.41-.86-2.49-2.2-4.48-3.35a8.14,8.14,0,0,0-2.06-4C227.44,126.82,230.91,128.87,231.14,129.87Z" transform="translate(-0.25 -0.25)"/><path class="cls-2" d="M321.23,129.07a1.66,1.66,0,0,0,.16-.33C321.3,128.91,321.25,129,321.23,129.07Zm9.45-5.11c-.66,2-1.13,4.52.14,5.38,0,0,3.82-1.22,4.07-4.06,0,0,2.19,2-1.06,6.1s-27.49,3.66-28.06.89c0,0-.32-6.34-5.12-7.48a16.31,16.31,0,0,1,6,.7,3.76,3.76,0,0,1,2.33,2.06,25.65,25.65,0,0,1,3.78-3.34,8.36,8.36,0,0,1,.7,2.12,21.81,21.81,0,0,0,2.37-3.93,11.36,11.36,0,0,1,2.45-.81c.34.41.69.85,1,1.31-1,2.2-2.65,6.12-1.14,6.53a42.66,42.66,0,0,1,2.05-5.19c1,1.59,1.61,3.24,1.14,4.48a21.36,21.36,0,0,1,3.32-5,10.75,10.75,0,0,0,.16,3.32s3.58-5.78,7-6.1a25.44,25.44,0,0,0-1.19,3Z" transform="translate(-0.25 -0.25)"/><path class="cls-3" d="M324.72,123.75c2.66-2.9,6.74-5.26,12-1.89a48.43,48.43,0,0,0-6,2.1,25.44,25.44,0,0,1,1.19-3c-3.42.32-7,6.1-7,6.1A10.75,10.75,0,0,1,324.72,123.75Z" transform="translate(-0.25 -0.25)"/><path class="cls-3" d="M329,115.19a15.35,15.35,0,0,0-4.23,8.56,21.36,21.36,0,0,0-3.32,5c.47-1.24-.16-2.89-1.14-4.48C322.08,120.4,325.06,115.76,329,115.19Z" transform="translate(-0.25 -0.25)"/><path class="cls-3" d="M318.32,121.59a8.17,8.17,0,0,1,1.77-.17s-.32.6-.74,1.48C319,122.44,318.66,122,318.32,121.59Z" transform="translate(-0.25 -0.25)"/><path class="cls-3" d="M319.35,122.9c.32.43.63.89.91,1.34a42.66,42.66,0,0,0-2.05,5.19C316.7,129,318.31,125.1,319.35,122.9Z" transform="translate(-0.25 -0.25)"/><path class="cls-3" d="M315.87,122.4c.53-1.23.79-2.46.25-3.19a32,32,0,0,1,2.2,2.38A11.36,11.36,0,0,0,315.87,122.4Z" transform="translate(-0.25 -0.25)"/><path class="cls-3" d="M315.87,122.4a21.81,21.81,0,0,1-2.37,3.93,8.36,8.36,0,0,0-.7-2.12A17.47,17.47,0,0,1,315.87,122.4Z" transform="translate(-0.25 -0.25)"/><path class="cls-3" d="M306.57,116.27c1.26,1.18,4.69,4.57,6.23,7.94a25.65,25.65,0,0,0-3.78,3.34,3.76,3.76,0,0,0-2.33-2.06C307.43,122.92,308.39,118.32,306.57,116.27Z" transform="translate(-0.25 -0.25)"/><path class="cls-2" d="M152.66,61.63c.81-3.16,2.12-6.89,3.57-5.73,0,0-3.86,6.12.89,9.34s-41,10.62-45.16,4c0,0,3.94-10.54-4.1-18.43,0,0,9.4,5.46,11.21,9.69,0,1.53-.11,2.54-.11,2.54a2.52,2.52,0,0,0,.11-2.54c.06-3.46-.18-9.61-2.35-12.88,1.36,1.62,4.07,4.74,6.51,7.13a29,29,0,0,0,2.18,1.95c-1.3,4.16-2.1,8.21-.57,8.84,0,0-.08-5.47,2.33-5.88s3.55-5.39,3.55-5.39,1,8.85,3.94,8.94a35.78,35.78,0,0,0,8.63-6.49,13.07,13.07,0,0,0,4,6.24q.48.42,1,.81s2.41-6.45.5-11.06C150.32,55,152.28,58.59,152.66,61.63Zm0,0c-.54,2.09-.86,3.92-.86,3.92A5.1,5.1,0,0,0,152.66,61.64Z" transform="translate(-0.25 -0.25)"/><path class="cls-3" d="M152.66,61.64a5.1,5.1,0,0,1-.86,3.92S152.12,63.73,152.66,61.64Z" transform="translate(-0.25 -0.25)"/><path class="cls-3" d="M145.57,50.56c.56,1.67,2.72,8.59,1.75,12.42a13.07,13.07,0,0,1-4-6.24C145,54.82,146.12,52.66,145.57,50.56Z" transform="translate(-0.25 -0.25)"/><path class="cls-3" d="M142.79,52.28a12.39,12.39,0,0,0,.5,4.46,35.78,35.78,0,0,1-8.63,6.49c-2.9-.09-3.94-8.94-3.94-8.94s-1.13,5-3.55,5.39-2.33,5.88-2.33,5.88c-1.53-.63-.73-4.68.57-8.84a5.1,5.1,0,0,0,2.09,1.19s5.07-17.06,12-17.14c0,0-4.67,11.59-1.69,19.4C137.8,60.17,141.5,58,142.79,52.28Z" transform="translate(-0.25 -0.25)"/><path class="cls-3" d="M129.11,46.89s-2.18,5-3.7,9.83a29,29,0,0,1-2.18-1.95A11.48,11.48,0,0,1,129.11,46.89Z" transform="translate(-0.25 -0.25)"/><path class="cls-3" d="M119.07,60.52a2.52,2.52,0,0,1-.11,2.54S119.05,62.05,119.07,60.52Z" transform="translate(-0.25 -0.25)"/><path class="cls-2" d="M235.74,53.39a5.88,5.88,0,0,1,1.71.74,7.78,7.78,0,0,0,1.39,2.21,3.08,3.08,0,0,0-1.39-2.21c-1.16-2.72-1.52-7.61,6.42-12.83,0,0-7,5.23.71,19.39,0,0-21.54,9.44-33.65,3.69a18.05,18.05,0,0,0-2-10.29h0a12.54,12.54,0,0,0-2-2.63l.48-.22c2.93,1.74,7.59,4.79,8,6.88a59.11,59.11,0,0,0-.88-6.71c1.76,1.1,3.47,3.2,4.87,6.89a19.17,19.17,0,0,1-.06-8.82c.76.74,1.49,1.47,2.15,2.18-.27,3.49-.16,6.72,1.2,6.77,0,0,.83-.48,2.08-1.28a57.78,57.78,0,0,0,5-3.57c-.34,1.78-.17,3.16,1,3.42,0,0,3.79-2.06,2.66-3.9A9.19,9.19,0,0,1,235.74,53.39Z" transform="translate(-0.25 -0.25)"/><path class="cls-3" d="M237.45,54.13a3.08,3.08,0,0,1,1.39,2.21A7.78,7.78,0,0,1,237.45,54.13Z" transform="translate(-0.25 -0.25)"/><path class="cls-3" d="M235.87,45.41a32.36,32.36,0,0,1-.13,8,9.19,9.19,0,0,0-2.24-.29c1.13,1.84-2.66,3.9-2.66,3.9-1.2-.26-1.37-1.64-1-3.42C232.89,51.09,235.83,48,235.87,45.41Z" transform="translate(-0.25 -0.25)"/><path class="cls-3" d="M233.91,43.56s-3.33,6-4.1,10a57.78,57.78,0,0,1-5,3.57l0,0a1.83,1.83,0,0,0,0-.69C224.75,54.47,225.54,48.67,233.91,43.56Z" transform="translate(-0.25 -0.25)"/><path class="cls-3" d="M224.78,57.1l0,0c-1.25.8-2.08,1.28-2.08,1.28-1.36,0-1.47-3.28-1.2-6.77,1.69,1.83,2.95,3.52,3.21,4.75A4.67,4.67,0,0,0,224.78,57.1Z" transform="translate(-0.25 -0.25)"/><path class="cls-3" d="M222.73,43s-.87,4.49-1.2,8.62c-.66-.71-1.39-1.44-2.15-2.18A14.41,14.41,0,0,1,222.73,43Z" transform="translate(-0.25 -0.25)"/><path class="cls-3" d="M219.38,49.48a19.17,19.17,0,0,0,.06,8.82c-1.4-3.69-3.11-5.79-4.87-6.89-.63-3.23-1.67-6.85-3.35-9C213.31,44.09,216.58,46.78,219.38,49.48Z" transform="translate(-0.25 -0.25)"/><path class="cls-3" d="M214.57,51.41a59.11,59.11,0,0,1,.88,6.71c-.42-2.09-5.08-5.14-8-6.88A7.37,7.37,0,0,1,214.57,51.41Z" transform="translate(-0.25 -0.25)"/><path class="cls-3" d="M207,51.46a12.54,12.54,0,0,1,2,2.63,6.47,6.47,0,0,0-5-.59A13.66,13.66,0,0,1,207,51.46Z" transform="translate(-0.25 -0.25)"/><path class="cls-4" d="M115.9,119.44c2.18,1.58,2.9,5.49,1.5,7.15-.92,1.1-2.12.42-4.89,1.88a15.08,15.08,0,0,0-3.2,2.35,14.17,14.17,0,0,0-2.26,2.52l-.34.49c-1.11-3.61-3.2-6-4.73-6l.49-2.49a4,4,0,0,0,1.76-.23c1.91-.72,3.15-3.16,2.74-6.07a16.59,16.59,0,0,0,2,.24C112.77,119.48,114.1,118.14,115.9,119.44Z" transform="translate(-0.25 -0.25)"/><path class="cls-5" d="M99,136.54c3.22-.49,4.35.3,6.23-1.11a5.76,5.76,0,0,0,1.44-1.6l.34-.49c7.47,3,5.74,13.85,5.74,13.85l-6.58.47c.66-8.18-7.81-11-7.81-11Z" transform="translate(-0.25 -0.25)"/><path class="cls-6" d="M107,119c.41,2.91-.83,5.35-2.74,6.07a4,4,0,0,1-1.76.23,2.09,2.09,0,0,1-1.06-.41c-1.38-1.07-1.38-4.23.73-7.59A20.71,20.71,0,0,0,107,119Z" transform="translate(-0.25 -0.25)"/><path class="cls-6" d="M106.71,133.83a5.76,5.76,0,0,1-1.44,1.6c-1.88,1.41-3,.62-6.23,1.11-.62-4.94,1.08-8.49,2.75-8.73H102C103.51,127.8,105.6,130.22,106.71,133.83Z" transform="translate(-0.25 -0.25)"/><path class="cls-4" d="M102.47,125.31,102,127.8h-.19c-1.67.24-3.37,3.79-2.75,8.73l-.64.12-.85.18a20.7,20.7,0,0,0-8.18,4c-3.15,2.58-2.76,4.16-5.27,5.26a7.92,7.92,0,0,1-7.81-.75,7.78,7.78,0,0,1-2.82-7.62c.47-2.25,1.79-2.64,4-5.46,3.92-5.12,2.67-8,5.55-10.91,1.55-1.59,4.45-3.37,10.35-3.29a6.87,6.87,0,0,1,2.73-1.79c2.22-.75,4,.08,6.09,1.07-2.11,3.36-2.11,6.52-.73,7.59A2.09,2.09,0,0,0,102.47,125.31ZM85.13,136.94c1.35-1.51,2.4-3.93,1.7-4.61s-3.68.59-5.36,2.63c-1.16,1.4-2.19,3.66-1.51,4.33S83.47,138.81,85.13,136.94Z" transform="translate(-0.25 -0.25)"/><path class="cls-6" d="M86.83,132.33c.7.68-.35,3.1-1.7,4.61-1.66,1.87-4.43,3.09-5.17,2.35s.35-2.93,1.51-4.33C83.15,132.92,86.06,131.58,86.83,132.33Z" transform="translate(-0.25 -0.25)"/><path class="cls-4" d="M342.48,64.35c5.25,3,8.6,7.43,7.84,11C349.29,80.19,341,82,336,82c-7,0-8.14-3.55-16-3.76-7-.2-7.72,2.62-12.06,1.5a9,9,0,0,1-4.15-2.33c-2.5-2.43-3.7-6-6.18-8.72a10.62,10.62,0,0,0-4.3-2.9c-6.68-2.41-10.2,3.53-16.87.84-5.69-2.29-10.53-9.15-9.8-16.13.88-8.38,9.39-13.18,15.07-14.47,6.14-1.38,8.58,1.43,16.58,1.06,8.54-.4,9.32-4.64,16.13-4.83,9.35-.25,16.46,6.46,18.24,8.14C342.36,49.53,342.5,61.94,342.48,64.35ZM323,70.23c3.66-.28,6.82-7,5.88-12.51-1.06-6.29-7.48-11.65-11-10.4-3.67,1.3-4.48,9.86-2,15.82C316.1,63.49,319.16,70.52,323,70.23Zm-13.71,1.2c1.5-.3,2.38-2.94,2.26-5-.24-3.89-4.29-7.34-6-6.63-1.5.61-1.59,4.41-.61,7.08C305.7,68.94,307.61,71.78,309.33,71.43Zm-14.93-17c5.27-2.54,8.43-9.35,6.64-11.76s-8.44-.41-12.36,1.81c-2.77,1.57-7.92,5.38-7.09,8.14S289.4,56.82,294.4,54.4Z" transform="translate(-0.25 -0.25)"/><path class="cls-6" d="M328.92,57.72c.94,5.54-2.22,12.23-5.88,12.51-3.88.29-6.94-6.74-7.08-7.09-2.52-6-1.71-14.52,2-15.82C321.44,46.07,327.86,51.43,328.92,57.72Z" transform="translate(-0.25 -0.25)"/><path class="cls-6" d="M311.59,66.46c.12,2-.76,4.67-2.26,5-1.72.35-3.63-2.49-4.38-4.52-1-2.67-.89-6.47.61-7.08C307.3,59.12,311.35,62.57,311.59,66.46Z" transform="translate(-0.25 -0.25)"/><path class="cls-5" d="M303.82,77.39c-5.05-1.28-9.72,25.85-9.72,25.85l-6-2.12c.61-28,9.57-32.45,9.57-32.45C300.12,71.37,301.32,75,303.82,77.39Z" transform="translate(-0.25 -0.25)"/><path class="cls-6" d="M301,42.64c1.79,2.41-1.37,9.22-6.64,11.76-5,2.42-12,1-12.81-1.81s4.32-6.57,7.09-8.14C292.6,42.23,299.25,40.26,301,42.64Z" transform="translate(-0.25 -0.25)"/><path class="cls-7" d="M99.72,227.24l-4,2.38a18.68,18.68,0,0,0-2.85-9.78c1.64-.8,2.84-3,3.51-5.8C99.31,215.85,99.72,227.24,99.72,227.24Z" transform="translate(-0.25 -0.25)"/><path class="cls-8" d="M89,190.1c7.27,3.75,9.25,16.29,7.42,23.94-.67,2.84-1.87,5-3.51,5.8-3.61,1.76-9.07-3.26-9.77-3.91-8-7.36-8.68-22.2-2.9-26C82.83,188.18,86.57,188.86,89,190.1Z" transform="translate(-0.25 -0.25)"/><path class="cls-9" d="M280.07,189.71c-4-1.24-4.44-12.93-2.24-21.64,2.51-9.95,9.66-20.82,13.83-19.75,4.47,1.15,6.14,16.18,1.19,27.79C290,182.9,283.78,190.86,280.07,189.71Z" transform="translate(-0.25 -0.25)"/><path class="cls-7" d="M279.73,189.57s-2,6.05-1.31,11.25l4-2.12s-.22-7.37,3.3-11.72" transform="translate(-0.25 -0.25)"/><path class="cls-9" d="M182,101.87c-1.07-12.58.72-22.12,5.13-23.5,1.91-.59,4.4.31,6,1.74,2.51,2.32,3.13,6.54,1.49,10.76" transform="translate(-0.25 -0.25)"/><path class="cls-10" d="M198.57,9.69l5.24-.57-5.24,7.74s-1.93,2.84,6.26,1.25" transform="translate(-0.25 -0.25)"/><path class="cls-10" d="M197.09,13.86a16.46,16.46,0,0,0,7.06,0" transform="translate(-0.25 -0.25)"/><path class="cls-10" d="M201.41,27.33l5.16-1L202,34.47s-1.68,3,6.35.71" transform="translate(-0.25 -0.25)"/><path class="cls-10" d="M200.29,31.61a16.51,16.51,0,0,0,7-.61" transform="translate(-0.25 -0.25)"/><path class="cls-10" d="M350.56,6.69l5.77-.25-6.28,8.09s-2.32,3,6.76,1.82" transform="translate(-0.25 -0.25)"/><path class="cls-10" d="M348.65,11.14a18.14,18.14,0,0,0,7.71.51" transform="translate(-0.25 -0.25)"/><path class="cls-10" d="M338.47,30.05l5.77-.24L338,37.89s-2.32,3,6.75,1.82" transform="translate(-0.25 -0.25)"/><path class="cls-10" d="M336.56,34.51a18,18,0,0,0,7.71.5" transform="translate(-0.25 -0.25)"/><path class="cls-10" d="M354.27,29.38l5.58-1.45-4.43,9.22s-1.65,3.4,7,.36" transform="translate(-0.25 -0.25)"/><path class="cls-10" d="M353.33,34.14A18.14,18.14,0,0,0,361,33" transform="translate(-0.25 -0.25)"/><path class="cls-10" d="M322.67,89.52l4.26.26-5.24,5.46s-1.94,2,4.83,1.86" transform="translate(-0.25 -0.25)"/><path class="cls-10" d="M320.92,92.64a13.17,13.17,0,0,0,5.63,1" transform="translate(-0.25 -0.25)"/><path class="cls-10" d="M293.67,116.47l4.11-1.15-3.16,6.88s-1.17,2.54,5.17.17" transform="translate(-0.25 -0.25)"/><path class="cls-10" d="M293,120a13.34,13.34,0,0,0,5.64-.94" transform="translate(-0.25 -0.25)"/><path class="cls-10" d="M302.81,136.57l3-.83-2.28,5s-.84,1.83,3.74.12" transform="translate(-0.25 -0.25)"/><path class="cls-10" d="M302.36,139.12a9.67,9.67,0,0,0,4.07-.68" transform="translate(-0.25 -0.25)"/><path class="cls-10" d="M183.33,63l3.41.51-4.6,4s-1.7,1.49,3.75,1.84" transform="translate(-0.25 -0.25)"/><path class="cls-10" d="M181.7,65.38a10.72,10.72,0,0,0,4.47,1.17" transform="translate(-0.25 -0.25)"/><path class="cls-10" d="M190,50l3.33-.9-2.6,5.54s-1,2,4.17.17" transform="translate(-0.25 -0.25)"/><path class="cls-10" d="M189.45,52.88a10.83,10.83,0,0,0,4.56-.72" transform="translate(-0.25 -0.25)"/><path class="cls-10" d="M22.74,137.36l3.82-2-1.63,7.5s-.6,2.76,5.15-1" transform="translate(-0.25 -0.25)"/><path class="cls-10" d="M22.89,141a13.47,13.47,0,0,0,5.37-2.15" transform="translate(-0.25 -0.25)"/><path class="cls-10" d="M40.37,147.27l3.46-1.7-1.67,6.64s-.63,2.45,4.63-.7" transform="translate(-0.25 -0.25)"/><path class="cls-10" d="M40.39,150.51a12,12,0,0,0,4.86-1.76" transform="translate(-0.25 -0.25)"/><path class="cls-10" d="M32.71,165.76,36,163l-.14,7.61s0,2.8,4.83-1.93" transform="translate(-0.25 -0.25)"/><path class="cls-10" d="M33.55,169.26a13.48,13.48,0,0,0,4.81-3.14" transform="translate(-0.25 -0.25)"/></g></g></svg>