<svg xmlns="http://www.w3.org/2000/svg" xmlns:xlink="http://www.w3.org/1999/xlink" viewBox="0 0 164.17 148.02"><defs><style>.cls-1{fill:#2bb673;}.cls-2{clip-path:url(#clip-path);}.cls-3{fill:#39b54a;}.cls-4{fill:#a7a9ac;}.cls-5{fill:#009444;}.cls-6{fill:#808285;}.cls-7{fill:#231f20;}.cls-8{fill:#414042;}.cls-9{fill:#939598;}.cls-10{fill:#6d6e71;}</style><clipPath id="clip-path"><path class="cls-1" d="M164.17,90.93c0,44.88-36.38,52.32-81.26,52.32S1.64,135.81,1.64,90.93a81.27,81.27,0,0,1,162.53,0Z"/></clipPath></defs><title>THEkoala</title><g id="Layer_2" data-name="Layer 2"><g id="koala"><path class="cls-1" d="M164.17,90.93c0,44.88-36.38,52.32-81.26,52.32S1.64,135.81,1.64,90.93a81.27,81.27,0,0,1,162.53,0Z"/><g class="cls-2"><path class="cls-1" d="M112,130.25c-1.73.15-4-.08-5.57-.06l-7.22,0q-8.3,0-16.6-.1-16.23-.19-32.47-.83c-8.47-.33-8.46,12.84,0,13.17q18.41.72,36.8.89,9,.08,18,0c5.79,0,12.92,1.23,16.47-4.44C125.43,132.61,117.14,126.74,112,130.25Z"/></g><path class="cls-3" d="M160.19,38.24c5.69,8.92-5.9,17.17-5.9,17.17v-4C155.63,53.62,160.19,38.24,160.19,38.24Z"/><path class="cls-3" d="M158.71,25.79c.12,1.09.15,4.66-4.25,4.25l-.13-.75a1.19,1.19,0,0,0,.13-.53c0-.05,0-.1,0-.16a2.34,2.34,0,0,1,2-1.46C157.84,27,158.61,26.27,158.71,25.79Z"/><path class="cls-3" d="M158.68,25.5a.32.32,0,0,1,0,.29A2.08,2.08,0,0,0,158.68,25.5Z"/><path class="cls-4" d="M159.91,102.35s-2.36-2.69-5.62-5.9v-16C157.42,85.65,159.91,92.76,159.91,102.35Z"/><path class="cls-4" d="M162.5,68.64a17.87,17.87,0,0,0-8.21-4.35V56.82A31,31,0,0,1,162.5,68.64Z"/><path class="cls-3" d="M154.45,28.6c0,.06,0,.11,0,.16a1.19,1.19,0,0,1-.13.53l0-.2A2.63,2.63,0,0,1,154.45,28.6Z"/><path class="cls-3" d="M154.29,106.28a9.45,9.45,0,0,1,0,8Z"/><path class="cls-3" d="M154.29,29.09l0,.2,0,.07Z"/><path class="cls-3" d="M154.45,28.6a2.63,2.63,0,0,0-.16.49h-2.8a1.2,1.2,0,0,1-.05-.33A1.41,1.41,0,0,1,153,27.49,1.45,1.45,0,0,1,154.45,28.6Z"/><path class="cls-5" d="M154.29,114.29V123l-2.85,3.09v-7.41A17.46,17.46,0,0,0,154.29,114.29Z"/><path class="cls-5" d="M154.29,106.28v8a17.46,17.46,0,0,1-2.85,4.43v-7c1.19-3.33,2.17-6.63,2.17-6.63A9.41,9.41,0,0,1,154.29,106.28Z"/><path class="cls-5" d="M154.29,96.45v9.83a9.41,9.41,0,0,0-.68-1.23s-1,3.3-2.17,6.63V93.76C152.44,94.66,153.4,95.57,154.29,96.45Z"/><path class="cls-4" d="M154.29,80.5v16c-.89-.88-1.85-1.79-2.85-2.69V76.49A33.28,33.28,0,0,1,154.29,80.5Z"/><path class="cls-5" d="M154.29,64.29V80.5a33.28,33.28,0,0,0-2.85-4V64A12.61,12.61,0,0,1,154.29,64.29Z"/><path class="cls-4" d="M154.29,56.82v7.47a12.61,12.61,0,0,0-2.85-.25V54.7A24.45,24.45,0,0,1,154.29,56.82Z"/><path class="cls-5" d="M152,38a2.31,2.31,0,0,1,0,.29,1.39,1.39,0,0,1-.62.77v-10h.05A1.48,1.48,0,0,0,153,30a1.55,1.55,0,0,0,1.34-.68V56.82a24.45,24.45,0,0,0-2.85-2.12V41.27a4.57,4.57,0,0,0,.62-3A.35.35,0,0,0,152,38Z"/><path class="cls-3" d="M154.29,29.09v.27A1.55,1.55,0,0,1,153,30a1.48,1.48,0,0,1-1.46-.95Z"/><path class="cls-3" d="M152.06,38.28a4.57,4.57,0,0,1-.62,3V39.05A1.39,1.39,0,0,0,152.06,38.28Z"/><path class="cls-3" d="M152,38a.35.35,0,0,1,0,.29A2.31,2.31,0,0,0,152,38Z"/><path class="cls-3" d="M151.44,111.68v7a24.46,24.46,0,0,1-3.73,3.5v-4C148.42,119.4,150.07,115.53,151.44,111.68Z"/><path class="cls-4" d="M151.44,76.49V93.76c-1.26-1.15-2.57-2.29-3.89-3.33V72.51A33.66,33.66,0,0,1,151.44,76.49Z"/><path class="cls-4" d="M151.44,54.7V64a11.87,11.87,0,0,0-3.89.74V52.66A24.52,24.52,0,0,1,151.44,54.7Z"/><path class="cls-3" d="M151.44,39.05v2.22c-.58.84-1.66,1.45-3.63,1.27l-.17-1a2.46,2.46,0,0,1,2.1-1.95A3.64,3.64,0,0,0,151.44,39.05Z"/><path class="cls-3" d="M147.64,28.76a1,1,0,0,1-.09.43v-.1H144.7v.09a1.16,1.16,0,0,1-.08-.42,1.53,1.53,0,0,1,3,0Z"/><path class="cls-5" d="M147.55,118.21v11.26l-2.85,2V112.52c.3,0,.61,0,.93,0v-5.24s-.36-.05-.93-.18V88.38c.94.61,1.89,1.31,2.85,2.05Z"/><path class="cls-4" d="M147.55,72.51V90.43c-1-.74-1.91-1.44-2.85-2.05v-18A30.1,30.1,0,0,1,147.55,72.51Z"/><path class="cls-5" d="M147.55,64.78v7.73a30.1,30.1,0,0,0-2.85-2.17V66.22A13.64,13.64,0,0,1,147.55,64.78Z"/><path class="cls-4" d="M147.55,52.66V64.78a13.64,13.64,0,0,0-2.85,1.44V51.65A25.46,25.46,0,0,1,147.55,52.66Z"/><path class="cls-5" d="M147.55,41.58V52.66a25.46,25.46,0,0,0-2.85-1V29.18a1.62,1.62,0,0,0,2.85,0Z"/><path class="cls-3" d="M147.55,29.09v.1a1.62,1.62,0,0,1-2.85,0v-.09Z"/><path class="cls-3" d="M145.63,107.26v5.24c-.32,0-.63,0-.93,0v-5.44C145.27,107.21,145.63,107.26,145.63,107.26Z"/><path class="cls-3" d="M144.7,107.08v5.44a6.24,6.24,0,0,1-5.3-3.28v-4.75A11.79,11.79,0,0,0,144.7,107.08Z"/><path class="cls-4" d="M144.7,70.34v18A13.91,13.91,0,0,0,139.4,86V50.61a31.43,31.43,0,0,1,5.3,1V66.22a18.28,18.28,0,0,0-2.95,2.42A19.89,19.89,0,0,1,144.7,70.34Z"/><path class="cls-3" d="M143.83,18.57c.11,1.08.15,4.66-4.26,4.25l-.17-.95a2.47,2.47,0,0,1,2.11-2C143,19.75,143.73,19.05,143.83,18.57Z"/><path class="cls-3" d="M143.79,18.28a.36.36,0,0,1,0,.29C143.81,18.42,143.8,18.32,143.79,18.28Z"/><path class="cls-3" d="M139.94,18.26a1.34,1.34,0,0,1-.54,1v-1h-4.16v1a1.36,1.36,0,0,1-.53-1c0-.94,1.17-1.7,2.61-1.7S139.94,17.32,139.94,18.26Z"/><path class="cls-5" d="M139.4,109.24V134.4l-4.16,1.82V97.74a56.07,56.07,0,0,0,1.33-10.94A3.17,3.17,0,0,1,139.4,86v18.48a5.51,5.51,0,0,1-1.76-3.58S137.39,105.8,139.4,109.24Z"/><path class="cls-3" d="M139.4,104.49v4.75c-2-3.44-1.76-8.33-1.76-8.33A5.51,5.51,0,0,0,139.4,104.49Z"/><path class="cls-4" d="M139.4,50.61V86a3.17,3.17,0,0,0-2.83.79,56.07,56.07,0,0,1-1.33,10.94V50.41A38.74,38.74,0,0,1,139.4,50.61Z"/><path class="cls-5" d="M139.4,21.87V50.61a38.74,38.74,0,0,0-4.16-.2V19.28a3.56,3.56,0,0,0,4.16,0Z"/><path class="cls-3" d="M139.4,18.26v1a3.56,3.56,0,0,1-4.16,0v-1Z"/><path class="cls-4" d="M135.24,50.41V97.74a45.59,45.59,0,0,1-1.27,4.61s-.54-2.16-1.54-5.09a9.22,9.22,0,0,0-1.45-6.6s-.18.6-.48,1.55c-1.56-3.63-3.61-7.29-6-9.22V79.81a20.46,20.46,0,0,0,0-11.12V67.8a8.29,8.29,0,0,0,0-2.78l0-13.23a51.41,51.41,0,0,1,6.78-1.16c1.11,2.17,2.52,4,4,3.8l0-4Z"/><path class="cls-3" d="M135.24,47.82l0,2.59c-1.36,0-2.7.09-4,.22a38.79,38.79,0,0,1-2.33-5.88C131.2,43.51,135.24,47.82,135.24,47.82Z"/><path class="cls-4" d="M135.22,50.41l0,4c-1.46.24-2.87-1.63-4-3.8C132.52,50.5,133.86,50.42,135.22,50.41Z"/><path class="cls-3" d="M135.17,37.73v1.53c-4.66,3.2-8.56.94-10.76-1.11V35.39C131.27,34,135.17,37.73,135.17,37.73Z"/><path class="cls-4" d="M131,90.66a9.22,9.22,0,0,1,1.45,6.6c-.52-1.54-1.16-3.29-1.93-5.05C130.8,91.26,131,90.66,131,90.66Z"/><path class="cls-3" d="M131,8.69c5.69,8.92-5.9,17.17-5.9,17.17v-4C126.41,24.07,131,8.69,131,8.69Z"/><path class="cls-3" d="M130.5,92.21c.77,1.76,1.41,3.51,1.93,5.05-1,6-7.35,10.57-7.35,10.57v-4C126.15,105.6,129.3,96.05,130.5,92.21Z"/><path class="cls-3" d="M128.75,26.48a.38.38,0,0,1,0,.28C128.77,26.62,128.75,26.52,128.75,26.48Z"/><path class="cls-3" d="M128.75,118.35a.35.35,0,0,1,0,.27C128.77,118.48,128.75,118.39,128.75,118.35Z"/><path class="cls-3" d="M128.78,26.76c.11,1.08.16,4.68-4.26,4.27l-.13-.74v-.36a2.42,2.42,0,0,1,2.07-1.8C127.92,28,128.69,27.25,128.78,26.76Z"/><path class="cls-3" d="M128.78,118.63c.11,1.07.16,4.66-4.23,4.27v-1.5a2.36,2.36,0,0,1,1.92-1.41C127.92,119.82,128.69,119.11,128.78,118.63Z"/><path class="cls-4" d="M124.46,68.69a20.46,20.46,0,0,1,0,11.12Z"/><path class="cls-5" d="M124.55,122.9l0,16.61-.79.17c-.75-3.24-2-8.33-3.58-13.88V88.05a25.28,25.28,0,0,0,3.38-5.68,7.24,7.24,0,0,1,.9.62l0,24.84,0,13.57a3,3,0,0,0-.19.54l.17,1Z"/><path class="cls-3" d="M124.54,121.4v1.5h0l-.17-1A3,3,0,0,1,124.54,121.4Z"/><path class="cls-4" d="M124.48,79.81V83a7.24,7.24,0,0,0-.9-.62A21.6,21.6,0,0,0,124.48,79.81Z"/><path class="cls-4" d="M124.46,68.69l0,11.12a21.6,21.6,0,0,1-.9,2.56,5,5,0,0,0-2.57-.76l-.81-2.71V69.83a33.38,33.38,0,0,1,.81,6.59,27.72,27.72,0,0,0,3.35-8.06Z"/><path class="cls-6" d="M124.45,65a8.29,8.29,0,0,1,0,2.78Z"/><path class="cls-4" d="M124.46,67.8v.89l-.1-.33C124.4,68.17,124.43,68,124.46,67.8Z"/><path class="cls-6" d="M124.45,65V67.8c0,.18-.06.37-.1.56a23.37,23.37,0,0,0-3.71-7.24A4.9,4.9,0,0,1,124.45,65Z"/><path class="cls-4" d="M124.43,51.79l0,13.23a4.9,4.9,0,0,0-3.8-3.9l-.45-.6V53C121.48,52.56,122.9,52.15,124.43,51.79Z"/><path class="cls-3" d="M124.89,9.87a1.38,1.38,0,0,1-.53,1v-1H120.2v1a1.36,1.36,0,0,1-.54-1c0-.94,1.17-1.7,2.61-1.7S124.89,8.93,124.89,9.87Z"/><path class="cls-5" d="M124.41,38.15l0,13.64c-1.53.36-3,.77-4.23,1.18V10.89a3.21,3.21,0,0,0,2.07.67,3.25,3.25,0,0,0,2.09-.67l0,19a1.31,1.31,0,0,0,0,.14l0,.22v5.1c-.62.13-1.27.29-1.94.5A12.94,12.94,0,0,0,124.41,38.15Z"/><path class="cls-3" d="M124.4,35.39v2.76a12.94,12.94,0,0,1-2-2.26C123.13,35.68,123.78,35.52,124.4,35.39Z"/><path class="cls-3" d="M124.39,30.29l0-.22a1.31,1.31,0,0,1,0-.14Z"/><path class="cls-3" d="M124.36,9.87v1a3.25,3.25,0,0,1-2.09.67,3.21,3.21,0,0,1-2.07-.67v-1Z"/><path class="cls-4" d="M123.78,139.68c.51,2.23.79,3.57.79,3.57-3.28.82-6.93,1.63-10.94,2.33a.25.25,0,0,0,.23-.27,41.11,41.11,0,0,0-1.77-9.85l2.44-1.06v-25a144.34,144.34,0,0,1,5.67,16.4v14.64Z"/><path class="cls-4" d="M123.78,139.68l-3.58.76V125.8C121.79,131.35,123,136.44,123.78,139.68Z"/><path class="cls-6" d="M124.36,68.36A27.72,27.72,0,0,1,121,76.42a33.38,33.38,0,0,0-.81-6.59V61l.45.12A23.37,23.37,0,0,1,124.36,68.36Z"/><path class="cls-4" d="M121,81.61a5,5,0,0,1,2.57.76,25.28,25.28,0,0,1-3.38,5.68V78.9Z"/><path class="cls-4" d="M120.65,61.12,120.2,61v-.48Z"/><path class="cls-4" d="M120.2,78.9v9.15a32,32,0,0,1-5.67,5.53V60l.33,1.12Z"/><path class="cls-4" d="M120.2,69.83V78.9l-5.34-17.75,1-.29C118.22,63.26,119.5,66.76,120.2,69.83Z"/><path class="cls-6" d="M120.2,61v8.83c-.7-3.07-2-6.57-4.38-9A12.58,12.58,0,0,1,120.2,61Z"/><path class="cls-4" d="M120.2,60.52V61a12.58,12.58,0,0,0-4.38-.14l-1,.29L114.53,60v-5l.07,0A32.38,32.38,0,0,1,120.2,60.52Z"/><path class="cls-4" d="M120.2,53v7.55A32.38,32.38,0,0,0,114.6,55,59.34,59.34,0,0,1,120.2,53Z"/><path class="cls-3" d="M118.92,24.19a.35.35,0,0,1,0,.27C118.94,24.32,118.93,24.22,118.92,24.19Z"/><path class="cls-3" d="M118.92,40.29a.35.35,0,0,1,0,.27C118.94,40.42,118.93,40.32,118.92,40.29Z"/><path class="cls-3" d="M118.92,97.33a.35.35,0,0,1,0,.27C118.94,97.46,118.93,97.36,118.92,97.33Z"/><path class="cls-3" d="M119,24.47c0,.15,0,.36,0,.6,0,1.43-.51,4-4.29,3.66l-.17-.95a2.46,2.46,0,0,1,2.11-2C118.09,25.66,118.86,25,119,24.47Z"/><path class="cls-3" d="M119,40.57c0,.15,0,.36,0,.6,0,1.43-.51,4-4.29,3.66l-.17-.95a2.46,2.46,0,0,1,2.11-2C118.09,41.76,118.86,41.05,119,40.57Z"/><path class="cls-3" d="M119,97.61c0,.15,0,.36,0,.6,0,1.43-.51,4-4.29,3.66l-.17-1a2.46,2.46,0,0,1,2.11-2C118.09,98.8,118.86,98.09,119,97.61Z"/><path class="cls-3" d="M115.07,3.5a1.38,1.38,0,0,1-.54,1V4.06h-4.16v.47a1.38,1.38,0,0,1-.54-1c0-.93,1.18-1.7,2.62-1.7S115.07,2.57,115.07,3.5Z"/><path class="cls-4" d="M114.6,55l-.07,0V55A.18.18,0,0,1,114.6,55Z"/><path class="cls-4" d="M114.53,109.4v25l-2.44,1.06a33.1,33.1,0,0,0-1.72-4.38V101.63A43,43,0,0,1,114.53,109.4Z"/><path class="cls-5" d="M114.53,100.92v8.48a43,43,0,0,0-4.16-7.77V96.35a37.57,37.57,0,0,0,4.16-2.77Z"/><path class="cls-4" d="M114.53,60V93.58a37.57,37.57,0,0,1-4.16,2.77V52.21A37.63,37.63,0,0,1,114.53,55v.09c-.84.36-1.31.6-1.31.6Z"/><path class="cls-4" d="M114.53,55.08v5l-1.31-4.35S113.69,55.44,114.53,55.08Z"/><path class="cls-5" d="M114.53,43.88V55a37.63,37.63,0,0,0-4.16-2.78V4.53a3.56,3.56,0,0,0,4.16,0V43.88Z"/><path class="cls-3" d="M114.53,4.06v.47a3.56,3.56,0,0,1-4.16,0V4.06Z"/><path class="cls-6" d="M113.86,145.31a.25.25,0,0,1-.23.27h0a.27.27,0,0,1-.27-.25l-.06-.83.32.82a41.33,41.33,0,0,0-1.73-9.77l.23-.1A41.11,41.11,0,0,1,113.86,145.31Z"/><path class="cls-6" d="M113.59,145.33l-.32-.82a39.46,39.46,0,0,0-1.66-8.83l.25-.12A41.33,41.33,0,0,1,113.59,145.33Z"/><path class="cls-4" d="M113.27,144.51,105.7,125a25.21,25.21,0,0,1,4.67,7.37v3.87l1.24-.54A39.46,39.46,0,0,1,113.27,144.51Z"/><path class="cls-6" d="M112.09,135.46l-.23.1a35.11,35.11,0,0,0-1.49-3.9v-.58A33.1,33.1,0,0,1,112.09,135.46Z"/><path class="cls-6" d="M111.86,135.56l-.25.12c-.39-1.21-.8-2.32-1.24-3.33v-.69A35.11,35.11,0,0,1,111.86,135.56Z"/><path class="cls-4" d="M111.61,135.68l-1.24.54v-3.87C110.81,133.36,111.22,134.47,111.61,135.68Z"/><path class="cls-6" d="M110.37,131.66v.69A25.21,25.21,0,0,0,105.7,125l-.24-.61A22.59,22.59,0,0,1,110.37,131.66Z"/><path class="cls-6" d="M105.46,124.37l.24.61c-.26-.27-.41-.4-.42-.41a.27.27,0,0,1,0-.38.27.27,0,0,1,.37,0,23.31,23.31,0,0,1,4.74,6.92v.58A22.59,22.59,0,0,0,105.46,124.37Z"/><path class="cls-4" d="M110.37,52.21V96.35c-1.15.67-2.34,1.3-3.59,1.88a3.52,3.52,0,0,0-3.58.18,14.3,14.3,0,0,1-1.61.83V48.29A46.48,46.48,0,0,1,110.37,52.21Z"/><path class="cls-3" d="M110.37,16.22v5.24c-8.62.56-8-11.59-8-11.59C102.82,15.22,110.37,16.22,110.37,16.22Z"/><path class="cls-3" d="M106,26.48a.38.38,0,0,1,0,.28C106,26.62,106,26.52,106,26.48Z"/><path class="cls-3" d="M106,26.76c.1,1.08.15,4.68-4.26,4.27l-.13-.68a.86.86,0,0,0,0-.28.78.78,0,0,0,0-.22,2.42,2.42,0,0,1,2-1.72C105.15,28,105.92,27.25,106,26.76Z"/><path class="cls-4" d="M103.2,98.41a3.52,3.52,0,0,1,3.58-.18,50.93,50.93,0,0,1-5.19,2v-1A14.3,14.3,0,0,0,103.2,98.41Z"/><path class="cls-3" d="M101.64,29.85a.78.78,0,0,1,0,.22.86.86,0,0,1,0,.28l0-.28A1.33,1.33,0,0,1,101.64,29.85Z"/><path class="cls-3" d="M101.59,30.07l0,.28a.57.57,0,0,1,0,.14Z"/><path class="cls-3" d="M101.64,29.85a1.33,1.33,0,0,0,0,.22H98.74v.43a1,1,0,0,1-.09-.42,1.41,1.41,0,0,1,1.51-1.27A1.44,1.44,0,0,1,101.64,29.85Z"/><path class="cls-4" d="M101.59,99.24v1c-.94.31-1.89.59-2.85.85v-.93A18.67,18.67,0,0,0,101.59,99.24Z"/><path class="cls-4" d="M101.59,48.29V99.24a18.67,18.67,0,0,1-2.85,1V79.43l.33-.13a.8.8,0,0,0-.33-1.52V47.44C99.7,47.69,100.65,48,101.59,48.29Z"/><path class="cls-5" d="M101.59,30.49v17.8c-.94-.31-1.89-.6-2.85-.85V30.49a1.61,1.61,0,0,0,2.85,0Z"/><path class="cls-3" d="M101.59,30.07v.42a1.61,1.61,0,0,1-2.85,0v-.43h2.85Z"/><path class="cls-3" d="M99.9,3.21c.12,1.09.15,4.66-4.25,4.25l-.17-1a2.46,2.46,0,0,1,2.11-1.95C99,4.39,99.8,3.69,99.9,3.21Z"/><path class="cls-3" d="M99.9,17.58c.12,1.09.15,4.66-4.25,4.26l-.17-1a2.46,2.46,0,0,1,2.11-1.95C99,18.76,99.8,18.06,99.9,17.58Z"/><path class="cls-3" d="M99.87,2.92a.32.32,0,0,1,0,.29A2.08,2.08,0,0,0,99.87,2.92Z"/><path class="cls-3" d="M99.87,17.29a.32.32,0,0,1,0,.29A2.31,2.31,0,0,0,99.87,17.29Z"/><path class="cls-7" d="M99.46,78.25a.79.79,0,0,1-.39,1l-.33.13V77.78A.8.8,0,0,1,99.46,78.25Z"/><path class="cls-4" d="M98.74,100.2v.93c-1.07.29-2.16.55-3.26.77v-1.06A28.5,28.5,0,0,0,98.74,100.2Z"/><path class="cls-4" d="M98.74,79.43V100.2a28.5,28.5,0,0,1-3.26.64V79.77a7.53,7.53,0,0,0,3.26-.34Z"/><path class="cls-7" d="M98.74,78.58v.85a7.53,7.53,0,0,1-3.26.34V79A6.19,6.19,0,0,0,98.74,78.58Z"/><path class="cls-7" d="M98.74,77.78v.8H95.48v-.43a5.54,5.54,0,0,0,2.93-.29A.8.8,0,0,1,98.74,77.78Z"/><path class="cls-4" d="M98.74,47.44V77.78a.8.8,0,0,0-.33.08,5.54,5.54,0,0,1-2.93.29V46.66C96.58,46.89,97.67,47.15,98.74,47.44Z"/><path class="cls-3" d="M98.74,34.71v5.23a6.88,6.88,0,0,1-3.26-.51V33.78A14.51,14.51,0,0,0,98.74,34.71Z"/><path class="cls-7" d="M95.48,78.58h3.26a6.19,6.19,0,0,1-3.26.37Z"/><path class="cls-3" d="M96,3.5a1.4,1.4,0,0,1-.53,1V4.06H91.31v.47a1.4,1.4,0,0,1-.53-1c0-.93,1.18-1.7,2.62-1.7S96,2.57,96,3.5Z"/><path class="cls-4" d="M95.48,100.84v1.06c-1.36.28-2.75.52-4.17.7v-1.35C92.76,101.17,94.15,101,95.48,100.84Z"/><path class="cls-4" d="M95.48,79.77v21.07c-1.33.2-2.72.33-4.17.41V92.84c1.68-2.21,1.2-5.27,0-8.14V46q2.13.27,4.17.69V78.15a4.69,4.69,0,0,1-1-.3.8.8,0,1,0-.64,1.46A6.44,6.44,0,0,0,95.48,79.77Z"/><path class="cls-7" d="M95.48,79v.82a6.44,6.44,0,0,1-1.61-.46.8.8,0,1,1,.64-1.46,4.69,4.69,0,0,0,1,.3v.43H94.2A4.87,4.87,0,0,0,95.48,79Z"/><path class="cls-7" d="M95.48,78.58V79a4.87,4.87,0,0,1-1.28-.37Z"/><path class="cls-5" d="M95.48,39.43v7.23q-2-.42-4.17-.69V33.67C91.91,36,93.1,38.39,95.48,39.43Z"/><path class="cls-3" d="M95.48,33.78v5.65c-2.38-1-3.57-3.45-4.17-5.76V30.34A7.9,7.9,0,0,0,95.48,33.78Z"/><path class="cls-5" d="M95.48,20.88v12.9a7.9,7.9,0,0,1-4.17-3.44V4.53a3.32,3.32,0,0,0,2.09.67,3.27,3.27,0,0,0,2.08-.67V20.88Z"/><path class="cls-3" d="M95.48,4.06v.47a3.27,3.27,0,0,1-2.08.67,3.32,3.32,0,0,1-2.09-.67V4.06Z"/><path class="cls-6" d="M91.31,84.7c1.2,2.87,1.68,5.93,0,8.14Z"/><path class="cls-4" d="M91.31,101.25v1.35c-1.5.19-3,.33-4.59.41v-1.66C88.28,101.37,89.82,101.34,91.31,101.25Z"/><path class="cls-4" d="M91.31,92.84v8.41c-1.49.09-3,.12-4.59.1V95.69a12.56,12.56,0,0,0,3.16-1.51A5.44,5.44,0,0,0,91.31,92.84Z"/><path class="cls-6" d="M91.31,84.7v8.14a5.44,5.44,0,0,1-1.43,1.34,12.56,12.56,0,0,1-3.16,1.51V77.31q.52.63,1,1.29A29.4,29.4,0,0,1,91.31,84.7Z"/><path class="cls-4" d="M91.31,46V84.7a29.4,29.4,0,0,0-3.57-6.1q-.49-.66-1-1.29h0V45.56C88.28,45.63,89.81,45.77,91.31,46Z"/><path class="cls-3" d="M91.31,30.34v3.33a19.8,19.8,0,0,1-.56-5.32A5.19,5.19,0,0,0,91.31,30.34Z"/><path class="cls-3" d="M86.81,29.26a1.17,1.17,0,0,1-.09.42v-.42H83.87v.42a1,1,0,0,1-.08-.42,1.53,1.53,0,0,1,3,0Z"/><path class="cls-4" d="M86.72,101.35V103c-.94,0-1.89.07-2.85.08v-1.81C84.82,101.32,85.78,101.35,86.72,101.35Z"/><path class="cls-4" d="M86.72,95.69v5.66c-.94,0-1.9,0-2.85-.07v-5A14.45,14.45,0,0,0,86.72,95.69Z"/><path class="cls-6" d="M86.72,90.94v4.75a14.45,14.45,0,0,1-2.85.6V90.94H84c0,1.44.58,2.6,1.3,2.6s1.29-1.16,1.29-2.6Z"/><path class="cls-6" d="M86.72,77.31V90.94h-.13c0-1.43-.57-2.59-1.29-2.59S84,89.51,84,90.94h-.13V74.4a13.64,13.64,0,0,1,1.46,1.35c.48.5.94,1,1.39,1.56Z"/><path class="cls-4" d="M86.72,45.56V77.31c-.45-.54-.91-1.06-1.39-1.56a13.64,13.64,0,0,0-1.46-1.35h0V45.48C84.83,45.49,85.78,45.51,86.72,45.56Z"/><path class="cls-5" d="M86.72,29.68V45.56c-.94-.05-1.89-.07-2.85-.08V29.68a1.61,1.61,0,0,0,2.85,0Z"/><path class="cls-3" d="M86.72,29.26v.42a1.61,1.61,0,0,1-2.85,0v-.42Z"/><path class="cls-3" d="M86.17,0C91,7.63,83.26,14.77,80.91,16.67V13.23C82.68,11.76,86.17,0,86.17,0Z"/><path class="cls-8" d="M85.3,88.35c.72,0,1.29,1.16,1.29,2.59s-.57,2.6-1.29,2.6S84,92.38,84,90.94,84.58,88.35,85.3,88.35Z"/><path class="cls-6" d="M83.87,74.39h0V96.29a16.25,16.25,0,0,1-3,.06V74l.36-.17A2.6,2.6,0,0,1,83.87,74.39Z"/><path class="cls-4" d="M83.87,101.28v1.81h-.22c-.92,0-1.84,0-2.74-.07v-1.9C81.89,101.19,82.88,101.25,83.87,101.28Z"/><path class="cls-4" d="M83.87,96.29v5c-1,0-2-.09-3-.16V96.35A16.25,16.25,0,0,0,83.87,96.29Z"/><path class="cls-4" d="M83.87,45.48V74.39a2.6,2.6,0,0,0-2.6-.57l-.36.17V45.54c.9,0,1.82-.06,2.74-.06Z"/><path class="cls-3" d="M81.7,9.08a1.55,1.55,0,0,1-.79,1.24V9.08H75.52v1.24a1.56,1.56,0,0,1-.8-1.24c0-1.07,1.57-1.94,3.49-1.94S81.7,8,81.7,9.08Z"/><path class="cls-4" d="M80.91,101.12V103c-1.83-.08-3.63-.24-5.39-.49v-1.88C77.25,100.84,79.07,101,80.91,101.12Z"/><path class="cls-4" d="M80.91,96.35v4.77c-1.84-.12-3.66-.28-5.39-.47V95.23a16.51,16.51,0,0,0,4.08,1C80,96.29,80.47,96.33,80.91,96.35Z"/><path class="cls-6" d="M80.91,74V96.35c-.44,0-.88-.06-1.31-.12a16.51,16.51,0,0,1-4.08-1V80.56h0c.47-.82,1-1.6,1.52-2.36C78.07,76.74,79.25,74.83,80.91,74Zm-.1,17c0-1.43-.58-2.59-1.3-2.59s-1.3,1.16-1.3,2.59.59,2.6,1.3,2.6S80.81,92.38,80.81,90.94Z"/><path class="cls-4" d="M80.91,45.54V74c-1.66.84-2.84,2.75-3.87,4.21-.54.76-1.05,1.54-1.52,2.36V46C77.28,45.79,79.08,45.62,80.91,45.54Z"/><path class="cls-5" d="M80.91,16.67V45.54c-1.83.08-3.63.25-5.39.49V10.32a5,5,0,0,0,2.69.71,5,5,0,0,0,2.7-.71v2.91c-.26.21-.48.21-.65-.07v4S80.51,17,80.91,16.67Z"/><path class="cls-3" d="M80.91,13.23v3.44c-.4.32-.65.5-.65.5v-4C80.43,13.44,80.65,13.44,80.91,13.23Z"/><path class="cls-3" d="M80.91,9.08v1.24a5,5,0,0,1-2.7.71,5,5,0,0,1-2.69-.71V9.08Z"/><path class="cls-8" d="M79.51,88.35c.72,0,1.3,1.16,1.3,2.59s-.58,2.6-1.3,2.6-1.3-1.16-1.3-2.6S78.8,88.35,79.51,88.35Z"/><path class="cls-4" d="M75.52,100.65v1.88c-1-.14-2.06-.31-3.07-.5v-1.74Z"/><path class="cls-4" d="M75.52,95.23v5.42l-3.07-.36v-7.5a5.05,5.05,0,0,0,1.67,1.71A8.82,8.82,0,0,0,75.52,95.23Z"/><path class="cls-6" d="M75.52,80.56V95.23a8.82,8.82,0,0,1-1.4-.73,5.05,5.05,0,0,1-1.67-1.71V87.07c.28-.82.61-1.6.92-2.31A44.89,44.89,0,0,1,75.52,80.56Z"/><path class="cls-4" d="M75.52,46V80.56h0a44.89,44.89,0,0,0-2.15,4.2c-.31.71-.64,1.49-.92,2.31V46.54C73.46,46.34,74.48,46.17,75.52,46Z"/><path class="cls-3" d="M73,3.5a1.4,1.4,0,0,1-.53,1V4.06H68.29v.47a1.36,1.36,0,0,1-.53-1c0-.93,1.16-1.7,2.61-1.7S73,2.57,73,3.5Z"/><path class="cls-4" d="M72.45,100.29V102c-1.42-.27-2.81-.6-4.16-1V99.7C69.55,99.89,71,100.09,72.45,100.29Z"/><path class="cls-4" d="M72.45,92.79v7.5c-1.5-.2-2.9-.4-4.16-.59V79.82h.07a6.16,6.16,0,0,0,2.52-.51.79.79,0,0,0,.48-.73h1.09v8.49a7.8,7.8,0,0,0-.33,5A4,4,0,0,0,72.45,92.79Z"/><path class="cls-6" d="M72.45,87.07v5.72a4,4,0,0,1-.33-.72A7.8,7.8,0,0,1,72.45,87.07Z"/><path class="cls-4" d="M72.45,46.54v32H71.36a.74.74,0,0,0-.07-.32.8.8,0,0,0-1.05-.41,4.59,4.59,0,0,1-1.95.38V47.51C69.64,47.14,71,46.81,72.45,46.54Z"/><path class="cls-5" d="M72.45,4.53v42c-1.42.27-2.81.6-4.16,1V32.16h.22V26.91l-.22,0V4.53a3.56,3.56,0,0,0,4.16,0Z"/><path class="cls-3" d="M72.45,4.06v.47a3.56,3.56,0,0,1-4.16,0V4.06Z"/><path class="cls-7" d="M71.29,78.26a.74.74,0,0,1,.07.32.79.79,0,0,1-.48.73,6.16,6.16,0,0,1-2.52.51h-.07V79a5.56,5.56,0,0,0,2.27-.45H68.29v-.35a4.59,4.59,0,0,0,1.95-.38A.8.8,0,0,1,71.29,78.26Z"/><path class="cls-7" d="M68.29,78.58h2.27a5.56,5.56,0,0,1-2.27.45Z"/><path class="cls-3" d="M68.51,26.91v5.24h-.22V26.87Z"/><path class="cls-4" d="M68.29,99.7v1.35a50.51,50.51,0,0,1-6-2h0L62,98.61C63,98.82,65.29,99.24,68.29,99.7Z"/><path class="cls-4" d="M68.29,79.82V99.7c-3-.46-5.27-.88-6.29-1.09a.18.18,0,0,1-.06-.09V50.73c.64-.94,1.05-1.45,1.05-1.45h0a53.1,53.1,0,0,1,5.3-1.77V78.23a5.66,5.66,0,0,1-2-.38.8.8,0,0,0-1,.4.79.79,0,0,0,.4,1A6.69,6.69,0,0,0,68.29,79.82Z"/><path class="cls-7" d="M68.29,79v.79a6.69,6.69,0,0,1-2.6-.52.79.79,0,0,1-.4-1,.8.8,0,0,1,1-.4,5.66,5.66,0,0,0,2,.38v.35H66A6.33,6.33,0,0,0,68.29,79Z"/><path class="cls-7" d="M68.29,78.58V79A6.33,6.33,0,0,1,66,78.58Z"/><path class="cls-3" d="M68.29,26.87v5.29a6.31,6.31,0,0,1-6.13-3.49c-1.88-3.42-1.64-8.11-1.64-8.11C60.92,25.35,67,26.65,68.29,26.87Z"/><path class="cls-3" d="M66.67,42.24a.38.38,0,0,1,0,.28C66.69,42.38,66.68,42.28,66.67,42.24Z"/><path class="cls-3" d="M66.71,42.52a5.22,5.22,0,0,1,0,.62c0,1.43-.51,4-4.28,3.65l-.18-.95a2.46,2.46,0,0,1,2.11-2C65.85,43.72,66.62,43,66.71,42.52Z"/><path class="cls-9" d="M63,49.28h0s-.41.51-1.05,1.45v-1Z"/><path class="cls-4" d="M62,98.61l.28.38-.34-.14V98.6Z"/><path class="cls-3" d="M62,28.76a1.26,1.26,0,0,1,.12.5,1.12,1.12,0,0,1-.17.59v-.59H59.09A1.41,1.41,0,0,1,60.59,28,1.56,1.56,0,0,1,62,28.76Z"/><path class="cls-4" d="M61.94,98.52a.18.18,0,0,0,.06.09h-.06Z"/><path class="cls-4" d="M61.94,98.6v.25l-.79-.34.24,0Z"/><path class="cls-9" d="M61.94,98.52v.08l-.55-.11-.24,0c-.7-.31-1.39-.64-2.06-1V94.14A42.86,42.86,0,0,0,61.94,98.52Z"/><path class="cls-4" d="M61.94,50.73V98.52a42.86,42.86,0,0,1-2.85-4.38V55.49A43.33,43.33,0,0,1,61.94,50.73Z"/><path class="cls-9" d="M61.94,49.72v1a43.33,43.33,0,0,0-2.85,4.76V51Q60.47,50.34,61.94,49.72Z"/><path class="cls-5" d="M61.94,45.84v3.88q-1.47.62-2.85,1.32V46.12a12.59,12.59,0,0,0,2.78-7.34h.07Z"/><path class="cls-5" d="M61.94,29.85v8.93h-.07a9.43,9.43,0,0,0-1.57-5.14s-.5,1.68-1.21,3.85V29.26a1.4,1.4,0,0,0,1.5,1.28A1.57,1.57,0,0,0,61.94,29.85Z"/><path class="cls-3" d="M61.94,29.26v.59a1.57,1.57,0,0,1-1.35.69,1.4,1.4,0,0,1-1.5-1.28Z"/><path class="cls-6" d="M60.68,124.17a.25.25,0,0,1,0,.37l-.09.1,0,0-.28.31.2-.62a17.37,17.37,0,0,0-1.39,1.9l0,0v-.44a17,17,0,0,1,1.22-1.67A.26.26,0,0,1,60.68,124.17Z"/><path class="cls-6" d="M60.31,125l.28-.31c-.07.08-.17.22-.31.4Z"/><path class="cls-6" d="M60.51,124.36l-.2.62-1.19,1.28A17.37,17.37,0,0,1,60.51,124.36Z"/><path class="cls-3" d="M60.3,33.64a9.43,9.43,0,0,1,1.57,5.14,12.59,12.59,0,0,1-2.78,7.34V37.49C59.8,35.32,60.3,33.64,60.3,33.64Z"/><path class="cls-6" d="M59.12,126.26,60.31,125l0,.09c-1.39,1.84-5.79,8.46-6.31,19.32l-.3.94A36.94,36.94,0,0,1,59.12,126.26Z"/><path class="cls-5" d="M59.09,97.52c.67.35,1.36.68,2.06,1a5,5,0,0,0-2.06.83Z"/><path class="cls-6" d="M59.09,126.3l0,0a36.94,36.94,0,0,0-5.45,19.07l.3-.94c0,.31,0,.62,0,.94a.22.22,0,0,1-.11.2l-.38-.07a.33.33,0,0,1,0-.14,41,41,0,0,1,1.66-10.64,33.12,33.12,0,0,1,4-8.82Z"/><path class="cls-9" d="M59.09,94.14v3.38a39.91,39.91,0,0,1-4.69-2.77V80.89A38,38,0,0,0,59.09,94.14Z"/><path class="cls-4" d="M59.09,55.49V94.14A38,38,0,0,1,54.4,80.89V69.69A45.34,45.34,0,0,1,59.09,55.49Z"/><path class="cls-9" d="M59.09,51v4.45a45.34,45.34,0,0,0-4.69,14.2V53.81A41.34,41.34,0,0,1,59.09,51Z"/><path class="cls-3" d="M59.09,37.49v8.63a23.39,23.39,0,0,1-4.69,4.69v-4C55.29,48.29,57.64,41.88,59.09,37.49Z"/><path class="cls-3" d="M55.19,21.87a1.55,1.55,0,0,1-.79,1.24V21.87H49v1.24a1.57,1.57,0,0,1-.79-1.24c0-1.08,1.56-1.95,3.48-1.95S55.19,20.79,55.19,21.87Z"/><path class="cls-5" d="M54.4,94.75v9.77A55.29,55.29,0,0,0,49,116.76V90.22A34.35,34.35,0,0,0,54.4,94.75Z"/><path class="cls-9" d="M54.4,80.89V94.75A34.35,34.35,0,0,1,49,90.22V67.11l3.44-11.43-.34-.17c.73-.58,1.49-1.15,2.29-1.7V69.69A37.5,37.5,0,0,0,54.4,80.89Z"/><path class="cls-4" d="M54.4,69.69v11.2A37.5,37.5,0,0,1,54.4,69.69Z"/><path class="cls-5" d="M54.4,50.81v3c-.8.55-1.56,1.12-2.29,1.7-.51-.24-1.59-.73-3.1-1.3V23.11a5.47,5.47,0,0,0,5.39,0v27.7Z"/><path class="cls-3" d="M54.4,21.87v1.24a5.47,5.47,0,0,1-5.39,0V21.87Z"/><path class="cls-6" d="M53.82,145.53a.22.22,0,0,1-.15.06h0a.26.26,0,0,1-.22-.13Z"/><path class="cls-9" d="M52.45,55.68,49,67.11V58.34a33.84,33.84,0,0,1,3.1-2.83Z"/><path class="cls-9" d="M52.11,55.51A33.84,33.84,0,0,0,49,58.34V54.21C50.52,54.78,51.6,55.27,52.11,55.51Z"/><path class="cls-9" d="M49,67.11V90.22a25.33,25.33,0,0,1-5.52-8.45,4.18,4.18,0,0,1,1.17-.16Z"/><path class="cls-9" d="M49,58.34v8.77l-4.35,14.5a4.18,4.18,0,0,0-1.17.16,20.54,20.54,0,0,1-1.42-7.44c.33.66.71,1.36,1.13,2.09,0,0,0-10.37,5.19-15.56A10.85,10.85,0,0,0,47,60.74,27.23,27.23,0,0,1,49,58.34Z"/><path class="cls-9" d="M49,54.21v4.13A27.23,27.23,0,0,0,47,60.74c-2.48-.08-7.32.44-7.32,5.59V51.43A60.58,60.58,0,0,1,49,54.21Z"/><path class="cls-3" d="M49,30.63v5.23c-7.52.49-8-8.71-8-11,0-.34,0-.54,0-.54C41.46,29.62,49,30.63,49,30.63Z"/><path class="cls-10" d="M47,60.74a10.85,10.85,0,0,1,1.44.12C43.2,66.05,43.2,76.42,43.2,76.42c-.42-.73-.8-1.43-1.13-2.09v0A22.07,22.07,0,0,1,47,60.74Z"/><path class="cls-10" d="M39.63,66.33c0-5.15,4.84-5.67,7.32-5.59a22.07,22.07,0,0,0-4.88,13.55v0C40.32,70.86,39.63,68.27,39.63,66.33Z"/><path class="cls-3" d="M44.26,95.32c.12,1.09.15,4.66-4.24,4.25l-.18-.95a2.46,2.46,0,0,1,2.11-2C43.39,96.5,44.16,95.8,44.26,95.32Z"/><path class="cls-3" d="M44.26,118.64c.12,1.09.15,4.66-4.24,4.26l-.18-1A2.46,2.46,0,0,1,42,120C43.39,119.82,44.16,119.12,44.26,118.64Z"/><path class="cls-3" d="M44.23,95a.32.32,0,0,1,0,.29A2.31,2.31,0,0,0,44.23,95Z"/><path class="cls-3" d="M44.23,118.35a.29.29,0,0,1,0,.29A2.31,2.31,0,0,0,44.23,118.35Z"/><path class="cls-9" d="M42.07,74.33a20.54,20.54,0,0,0,1.42,7.44,8.17,8.17,0,0,0-3.86,2.75V66.33C39.63,68.27,40.32,70.86,42.07,74.33Z"/><path class="cls-3" d="M40.43,11.82a1.56,1.56,0,0,1-.8,1.24v-.69H34.56A10.59,10.59,0,0,0,35,10.19a5.37,5.37,0,0,1,1.9-.32C38.87,9.87,40.43,10.74,40.43,11.82Z"/><path class="cls-5" d="M39.63,84.52v54.59l-5.38-1.57V94.44C35.6,91,37.42,87.09,39.63,84.52Z"/><path class="cls-9" d="M39.63,66.33V84.52c-2.21,2.57-4,6.44-5.38,9.92V50.61a51,51,0,0,1,5.38.82Z"/><path class="cls-5" d="M39.63,24.81V51.43a51,51,0,0,0-5.38-.82V13.18a1,1,0,0,0,0-.1,5.44,5.44,0,0,0,5.34,0Z"/><path class="cls-3" d="M39.63,12.37v.69a5.44,5.44,0,0,1-5.34,0c.1-.23.19-.47.27-.71Z"/><path class="cls-3" d="M33.52,4.06A9.28,9.28,0,0,1,35,10.19c-1,.34-1.59,1-1.59,1.63a1.56,1.56,0,0,0,.8,1.24v.12c-2,4.72-6.63,8.05-6.63,8.05v-4C29,19.45,33.52,4.06,33.52,4.06Z"/><path class="cls-3" d="M33.45,11.82c0-.68.63-1.29,1.59-1.63a10.59,10.59,0,0,1-.48,2.18h-.31v.69A1.56,1.56,0,0,1,33.45,11.82Z"/><path class="cls-3" d="M34.25,12.37h.31c-.08.24-.17.48-.27.71l0,0Z"/><path class="cls-3" d="M34.29,13.08a1,1,0,0,1,0,.1v-.12Z"/><path class="cls-3" d="M34.25,127.87v5.24a6.41,6.41,0,0,1-6.63-4v-4.4C29.9,127.29,34.25,127.87,34.25,127.87Z"/><path class="cls-9" d="M34.25,50.61V94.44a74.6,74.6,0,0,0-2.55,7.91A55.33,55.33,0,0,1,29.1,86.8,2.69,2.69,0,0,0,27.62,86V50.49A40.58,40.58,0,0,1,34.25,50.61Z"/><path class="cls-3" d="M34.25,43v5.24a6.42,6.42,0,0,1-6.63-4v-4.4C29.9,42.41,34.25,43,34.25,43Z"/><path class="cls-3" d="M32,24.48c.11,1.08.16,4.66-4.25,4.25l-.17-.95a2.46,2.46,0,0,1,2.1-2C31.16,25.66,31.94,25,32,24.48Z"/><path class="cls-3" d="M32,24.19a.36.36,0,0,1,0,.29C32,24.33,32,24.23,32,24.19Z"/><path class="cls-3" d="M28.36,11.82A1.52,1.52,0,0,1,27.62,13v-.17H22.23v.25a1.59,1.59,0,0,1-.86-1.27c0-1.08,1.57-2,3.49-2S28.36,10.74,28.36,11.82Z"/><path class="cls-5" d="M27.62,129.08V135l-5.39-2.82V111.82a9.5,9.5,0,0,0,0-8V87.6c2.06-1.19,3.94-1.85,5.39-1.57v38.65a5.39,5.39,0,0,1-1.37-3.16A18.29,18.29,0,0,0,27.62,129.08Z"/><path class="cls-3" d="M27.62,124.68v4.4a18.29,18.29,0,0,1-1.37-7.56A5.39,5.39,0,0,0,27.62,124.68Z"/><path class="cls-9" d="M27.62,50.49V86c-1.45-.28-3.33.38-5.39,1.57V69.54a16.92,16.92,0,0,1,1.68-.9,20.79,20.79,0,0,0-1.68-1.51V51.32A31.25,31.25,0,0,1,27.62,50.49Z"/><path class="cls-5" d="M27.62,44.19v6.3a31.25,31.25,0,0,0-5.39.83V13.09a4.9,4.9,0,0,0,2.63.68A4.86,4.86,0,0,0,27.62,13V39.79a5.34,5.34,0,0,1-1.37-3.16A18.28,18.28,0,0,0,27.62,44.19Z"/><path class="cls-3" d="M27.62,39.79v4.4a18.28,18.28,0,0,1-1.37-7.56A5.34,5.34,0,0,0,27.62,39.79Z"/><path class="cls-3" d="M27.62,12.84V13a4.86,4.86,0,0,1-2.76.76,4.9,4.9,0,0,1-2.63-.68v-.25Z"/><path class="cls-5" d="M22.23,103.79a9.5,9.5,0,0,1,0,8Z"/><path class="cls-5" d="M22.23,67.13a20.79,20.79,0,0,1,1.68,1.51,16.92,16.92,0,0,0-1.68.9Z"/><path class="cls-3" d="M22.23,103.79v8a21.81,21.81,0,0,1-6.58,7.92v-4c1.34,2.23,5.9-13.15,5.9-13.15A10.64,10.64,0,0,1,22.23,103.79Z"/><path class="cls-9" d="M22.23,69.54V87.6a44.46,44.46,0,0,0-6.58,4.89V74.89A30.63,30.63,0,0,1,22.23,69.54Z"/><path class="cls-9" d="M22.23,51.32V67.13a13.72,13.72,0,0,0-6.58-3V53.85A26.22,26.22,0,0,1,22.23,51.32Z"/><path class="cls-3" d="M22.23,32.72V38a6.4,6.4,0,0,1-6.5-3.76h0v-.05a1.17,1.17,0,0,0-.41-.88,18.77,18.77,0,0,1-1.09-6.91C14.68,31.71,22.23,32.72,22.23,32.72Z"/><path class="cls-3" d="M20.42,98.29c.12,1.09.15,4.66-4.25,4.25l-.17-1a2.46,2.46,0,0,1,2.11-2C19.55,99.47,20.32,98.77,20.42,98.29Z"/><path class="cls-3" d="M20.39,98a.32.32,0,0,1,0,.29A2.31,2.31,0,0,0,20.39,98Z"/><path class="cls-3" d="M15.73,34.15v.05c-.15-.31-.29-.61-.41-.93A1.17,1.17,0,0,1,15.73,34.15Z"/><path class="cls-3" d="M15.73,34.2h0a.91.91,0,0,1-.08.37v-.42H12.8v.42a1.16,1.16,0,0,1-.08-.42,1.4,1.4,0,0,1,1.51-1.27,1.67,1.67,0,0,1,1.09.39C15.44,33.59,15.58,33.89,15.73,34.2Z"/><path class="cls-5" d="M15.65,115.72v11.61l-2.85-2.82V95.08c.91-.86,1.87-1.74,2.85-2.59Z"/><path class="cls-9" d="M15.65,74.89v17.6c-1,.85-1.94,1.73-2.85,2.59V78.35A30.41,30.41,0,0,1,15.65,74.89Z"/><path class="cls-5" d="M15.65,64.15V74.89a30.41,30.41,0,0,0-2.85,3.46V64.08A12.45,12.45,0,0,1,15.65,64.15Z"/><path class="cls-9" d="M15.65,53.85v10.3a12.45,12.45,0,0,0-2.85-.07v-8.4A25.89,25.89,0,0,1,15.65,53.85Z"/><path class="cls-5" d="M15.65,34.57V53.85a25.89,25.89,0,0,0-2.85,1.83V34.57a1.61,1.61,0,0,0,2.85,0Z"/><path class="cls-3" d="M15.65,34.15v.42a1.61,1.61,0,0,1-2.85,0v-.42Z"/><path class="cls-9" d="M12.8,78.35V95.08c-4,3.77-7,7.27-7,7.27C5.76,91.35,9,83.61,12.8,78.35Z"/><path class="cls-9" d="M12.8,55.68v8.4a16.6,16.6,0,0,0-8,3.17c-.35,0-.72,0-1.1,0A29.49,29.49,0,0,1,12.8,55.68Z"/><path class="cls-3" d="M12.72,108.38v5.24c-8.62.55-8-11.6-8-11.6,0,.17,0,.33.07.49C5.63,107.44,12.72,108.38,12.72,108.38Z"/><path class="cls-3" d="M12.72,69.89v1.53C5.42,76.44,0,68.06,0,68.06a16.64,16.64,0,0,1,3.75-.76c-.2.43-.39.89-.58,1.34a15.52,15.52,0,0,1,1.68-1.39A11.84,11.84,0,0,1,12.72,69.89Z"/><path class="cls-3" d="M12.72,41.79V47c-8.62.56-8-11.6-8-11.6C5.17,40.78,12.72,41.79,12.72,41.79Z"/><path class="cls-9" d="M3.75,67.3c.38,0,.75,0,1.1,0a15.52,15.52,0,0,0-1.68,1.39C3.36,68.19,3.55,67.73,3.75,67.3Z"/><path class="cls-4" d="M113.33,145.34a.26.26,0,0,0,.26.25A160,160,0,0,1,84.29,148c-8.17-.08-14.77-.47-20.53-1.08,3.93-2.29,6-6.72,6.91-11.77l1.78-.78V109.56c1,.17,2,.29,3.06.37v18.44l5.39,2.83V110c1-.05,2-.14,3-.25V126.3l2.85-3.09V109.33a43.39,43.39,0,0,0,4.59-1.12v28l4.17-1.82V106.66a24,24,0,0,0,3.25-1.76v22.2l2.85-3.09V102.5a5.33,5.33,0,0,0,1.33-2.68c1.34-.49,2.62-1,3.87-1.6a10.31,10.31,0,0,1,3.59,3.41v29.45a23.13,23.13,0,0,0-4.74-6.92.28.28,0,0,0-.38,0,.27.27,0,0,0,0,.37s.16.15.41.41l7.58,19.54Z"/><path class="cls-9" d="M101.58,100.28l1.33-.46a5.33,5.33,0,0,1-1.33,2.68Z"/><path class="cls-4" d="M101.58,102.5V124l-2.85,3.09V104.9A13,13,0,0,0,101.58,102.5Z"/><path class="cls-9" d="M101.58,100.28v2.22a13,13,0,0,1-2.85,2.4v-3.77C99.7,100.87,100.65,100.59,101.58,100.28Z"/><path class="cls-9" d="M98.73,101.13v3.77a24,24,0,0,1-3.25,1.76V101.9C96.58,101.68,97.67,101.42,98.73,101.13Z"/><path class="cls-4" d="M95.48,106.66v27.73l-4.17,1.82v-28A35.55,35.55,0,0,0,95.48,106.66Z"/><path class="cls-9" d="M95.48,101.9v4.76a35.55,35.55,0,0,1-4.17,1.55V102.6C92.73,102.42,94.12,102.18,95.48,101.9Z"/><path class="cls-9" d="M91.31,102.6v5.61a43.39,43.39,0,0,1-4.59,1.12V103C88.28,102.93,89.81,102.79,91.31,102.6Z"/><path class="cls-4" d="M86.72,109.33v13.88l-2.85,3.09V109.76C84.83,109.65,85.78,109.5,86.72,109.33Z"/><path class="cls-9" d="M86.72,103v6.33c-.94.17-1.89.32-2.85.43v-6.68C84.83,103.08,85.78,103.05,86.72,103Z"/><path class="cls-9" d="M83.87,103.08v6.68c-1,.11-2,.2-3,.25v-7c.91,0,1.83.06,2.75.06Z"/><path class="cls-4" d="M80.9,110V131.2l-5.39-2.83V109.93A40.46,40.46,0,0,0,80.9,110Z"/><path class="cls-9" d="M80.9,103v7a40.46,40.46,0,0,1-5.39-.08v-7.4C77.28,102.78,79.07,102.94,80.9,103Z"/><path class="cls-9" d="M75.51,102.53v7.4c-1-.08-2.05-.2-3.06-.37V102Q74,102.32,75.51,102.53Z"/><path class="cls-4" d="M72.45,109.56v24.83l-1.78.78c2.15-11.54-1.46-26.33-1.46-26.33Q70.8,109.28,72.45,109.56Z"/><path class="cls-9" d="M72.45,102v7.54q-1.65-.28-3.24-.72h-.93v-7.79C69.64,101.42,71,101.75,72.45,102Z"/><path class="cls-9" d="M69.21,108.84s3.61,14.79,1.46,26.33l-2.39,1V108.84Z"/><path class="cls-9" d="M68.28,136.21l2.39-1c-.94,5.05-3,9.48-6.91,11.77-3.26-.34-6.25-.76-9.1-1.22a8.45,8.45,0,0,0-.84-.19.26.26,0,0,0,.11-.2c0-.32,0-.63,0-.94l6.3-19.32c.15-.18.25-.32.32-.41s0,0,0,0l.08-.09,1.23-1.33V98.85l.34.14h0a51.57,51.57,0,0,0,6,2.06v35.16Z"/><path class="cls-9" d="M61.93,98.85v24.36l-1.23,1.33a.26.26,0,1,0-.39-.35,15,15,0,0,0-1.23,1.66V99.34a4.88,4.88,0,0,1,2.07-.83Z"/><path class="cls-4" d="M60.7,124.54l-.08.09Z"/><path class="cls-9" d="M60.27,125.07,54,144.39C54.48,133.53,58.89,126.91,60.27,125.07Z"/><path class="cls-9" d="M59.08,99.34v26.51a33.75,33.75,0,0,0-4,8.83l-.67-.2v-30A16.09,16.09,0,0,1,59.08,99.34Z"/><path class="cls-9" d="M54.39,134.48l.67.2a41,41,0,0,0-1.66,10.64.23.23,0,0,0,0,.14c-.28,0-.57-.08-.86-.1-3.43-.62-6.59-1.32-9.44-2.11A168.87,168.87,0,0,1,49,116.76v14.9Z"/><path class="cls-9" d="M54.39,104.52v30L49,131.66v-14.9A55.83,55.83,0,0,1,54.39,104.52Z"/></g></g></svg>