<svg xmlns="http://www.w3.org/2000/svg" xmlns:xlink="http://www.w3.org/1999/xlink" viewBox="0 0 119.92 132.22"><defs><style>.cls-1{fill:url(#linear-gradient);}.cls-2{font-size:21.53px;fill:#231f20;stroke:#231f20;}.cls-10,.cls-11,.cls-2,.cls-5,.cls-6,.cls-7{stroke-miterlimit:10;}.cls-2,.cls-9{font-family:MyriadPro-Regular, Myriad Pro;}.cls-3{letter-spacing:0.14em;}.cls-4{letter-spacing:0.1em;}.cls-5{fill:#d3edf3;}.cls-5,.cls-7{stroke:#bcbec0;}.cls-6{fill:#39b54a;stroke-width:2px;}.cls-10,.cls-11,.cls-6{stroke:#2e3192;}.cls-7,.cls-9{fill:#fff;}.cls-11,.cls-7{stroke-width:0.75px;}.cls-8{fill:#be1e2d;}.cls-9{font-size:4.73px;}.cls-10,.cls-11{fill:none;}</style><linearGradient id="linear-gradient" x1="59.96" y1="132.22" x2="59.96" y2="12.3" gradientUnits="userSpaceOnUse"><stop offset="0" stop-color="#005fae"/><stop offset="1" stop-color="#2484c6" stop-opacity="0"/></linearGradient></defs><title>webDevIcon</title><g id="Layer_2" data-name="Layer 2"><g id="webDevIcon"><circle class="cls-1" cx="59.96" cy="72.26" r="59.96"/><text class="cls-2" transform="translate(18.14 118.88)"><tspan xml:space="preserve">     </tspan><tspan class="cls-3" x="22.82" y="0">&lt;</tspan><tspan class="cls-4" x="38.67" y="0">/</tspan><tspan x="48.21" y="0">&gt;</tspan></text><rect class="cls-5" x="18.14" y="0.5" width="83.63" height="57.15"/><circle class="cls-6" cx="59.96" cy="60.26" r="34.23"/><rect class="cls-7" x="25.73" y="13.06" width="68.45" height="7.18"/><rect class="cls-8" x="95.52" y="2.59" width="3.85" height="3.85"/><text class="cls-9" transform="translate(96.27 5.52) scale(1.06 1)">x</text><path class="cls-10" d="M60,26V94.48S2.45,61.36,60,26Z"/><path class="cls-10" d="M60,94.48S31,61.68,60,26"/><path class="cls-10" d="M60,94.48V26S117.47,59.15,60,94.48Z"/><path class="cls-10" d="M60,26s29,32.81,0,68.45"/><line class="cls-7" x1="101.77" y1="8.56" x2="18.14" y2="8.56"/><path class="cls-11" d="M29.67,44.31s25.12,27.06,60.57,0"/><path class="cls-11" d="M36.53,35.31a42.4,42.4,0,0,0,47.46,0"/><path class="cls-11" d="M90.24,76.2s-25.11-27.06-60.56,0"/><path class="cls-11" d="M83.39,85.2a42.4,42.4,0,0,0-47.46,0"/></g></g></svg>